<svg width="330" height="485" viewBox="0 0 330 485" fill="none" xmlns="http://www.w3.org/2000/svg">
<rect x="59" y="212" width="110" height="9" fill="#E6C570"/>
<rect x="160" y="485" width="309" height="9" transform="rotate(-90 160 485)" fill="#E6C570"/>
<rect x="165" y="476" width="165" height="9" fill="#E6C570"/>
<rect y="476" width="166" height="9" fill="#E6C570"/>
<rect x="166" y="212" width="110" height="9" fill="#E6C570"/>
<g clip-path="url(#clip0)">
<path d="M164.5 0C116.177 0 77.0021 39.1759 77.0021 87.4991C77.0021 135.821 116.177 175 164.5 175C212.823 175 252.001 135.821 252.001 87.4991C252.001 39.1747 212.823 0 164.5 0ZM164.767 128.78V128.779H164.232H126.857C126.857 101.446 150.862 101.452 156.189 94.3049L156.799 91.0458C149.315 87.253 144.031 78.1085 144.031 67.4136C144.031 53.3236 153.197 41.8995 164.5 41.8995C175.803 41.8995 184.969 53.3236 184.969 67.4136C184.969 78.0175 179.779 87.1048 172.395 90.9577L173.089 94.6614C178.934 101.462 202.141 101.905 202.141 128.78H164.767Z" fill="#BCBEBF"/>
</g>
<defs>
<clipPath id="clip0">
<rect width="175" height="175" fill="white" transform="translate(77)"/>
</clipPath>
</defs>
</svg>
