<svg width="90" height="90" viewBox="0 0 90 90" fill="none" xmlns="http://www.w3.org/2000/svg">
<g clip-path="url(#clip0)">
<path d="M45 90C69.8528 90 90 69.8528 90 45C90 20.1472 69.8528 0 45 0C20.1472 0 0 20.1472 0 45C0 69.8528 20.1472 90 45 90Z" fill="#E0E0E0"/>
<path d="M44.4131 -8.45536e-05C19.5653 0.293394 -0.293441 20.739 3.75165e-05 45.5869C0.293516 70.4347 20.7392 90.2934 45.587 89.9999C70.4348 89.7064 90.2935 69.2608 90 44.413C89.7066 19.5651 69.2609 -0.293563 44.4131 -8.45536e-05ZM44.3153 72.3912H44.0218C40.2066 72.2934 37.4674 69.4564 37.5653 65.6412C37.6631 61.9238 40.4022 59.2825 44.1196 59.2825H44.3153C48.2283 59.3804 50.8696 62.2173 50.7718 66.0325C50.7718 69.7499 48.0326 72.3912 44.3153 72.3912ZM60.3587 40.4021C59.4783 41.6738 57.5218 43.2391 54.9783 45.1956L52.2392 47.0543C50.7718 48.2282 49.7935 49.3043 49.5 50.3804C49.2066 51.2608 49.1087 51.4564 49.1087 53.2173V53.7064H38.5435V52.826C38.6413 49.2064 38.7392 47.0543 40.3044 45.2934C42.6522 42.5543 47.9348 39.1304 48.1305 39.0325C48.9131 38.4456 49.5 37.8586 49.9892 37.1738C51.0653 35.6086 51.5544 34.4347 51.5544 33.2608C51.5544 31.5977 51.0653 30.1304 50.087 28.7608C49.2066 27.489 47.4457 26.8043 44.9022 26.8043C42.3587 26.8043 40.6957 27.5869 39.6196 29.2499C38.5435 30.913 38.0544 32.6738 38.0544 34.4347V34.9238H27.2935V34.4347C27.587 27.7825 29.9348 23.0869 34.337 20.2499C37.0761 18.489 40.5 17.6086 44.5109 17.6086C49.6957 17.6086 54.1957 18.8804 57.6196 21.4238C61.1413 23.9673 62.9022 27.7825 62.9022 32.7717C63 35.5108 62.1196 38.0543 60.3587 40.4021Z" fill="#4F7670"/>
</g>
<defs>
<clipPath id="clip0">
<rect width="90" height="90" fill="white"/>
</clipPath>
</defs>
</svg>
