<svg width="90" height="90" viewBox="0 0 90 90" fill="none" xmlns="http://www.w3.org/2000/svg">
<path d="M45 90C69.8528 90 90 69.8528 90 45C90 20.1472 69.8528 0 45 0C20.1472 0 0 20.1472 0 45C0 69.8528 20.1472 90 45 90Z" fill="#E0E0E0"/>
<path d="M45 0C20.16 0 0 20.16 0 45C0 69.84 20.16 90 45 90C69.84 90 90 69.84 90 45C90 20.16 69.84 0 45 0ZM45.15 66.24H44.88H25.65C25.65 52.17 38.01 52.2 40.74 48.51L41.04 46.83C37.2 44.88 34.47 40.17 34.47 34.68C34.47 27.42 39.18 21.57 45 21.57C50.82 21.57 55.53 27.45 55.53 34.68C55.53 40.14 52.86 44.82 49.05 46.8L49.41 48.69C52.41 52.2 64.35 52.41 64.35 66.24H45.15Z" fill="#4F7670"/>
</svg>
