<svg width="90" height="90" viewBox="0 0 90 90" fill="none" xmlns="http://www.w3.org/2000/svg">
<g clip-path="url(#clip0)">
<path d="M45 89.8242C69.8528 89.8242 90 69.677 90 44.8242C90 19.9714 69.8528 -0.175781 45 -0.175781C20.1472 -0.175781 0 19.9714 0 44.8242C0 69.677 20.1472 89.8242 45 89.8242Z" fill="#E0E0E0"/>
<path d="M45 0C20.1445 0 0 20.1445 0 45C0 69.8555 20.1445 90 45 90C69.8555 90 90 69.8555 90 45C90 20.1445 69.8555 0 45 0ZM63.8965 67.5H26.1035V48.2871L45 29.3906L63.8965 48.2871V67.5ZM67.0605 44.8418L45 22.7813L22.9395 44.8418L20.25 42.1523L45 17.4199L69.75 42.1523L67.0605 44.8418Z" fill="#4F7670"/>
</g>
<defs>
<clipPath id="clip0">
<rect width="90" height="90" fill="white"/>
</clipPath>
</defs>
</svg>
