<svg width="90" height="90" viewBox="0 0 90 90" fill="none" xmlns="http://www.w3.org/2000/svg">
<g clip-path="url(#clip0)">
<path d="M45.3 90C70.1529 90 90.3 69.8528 90.3 45C90.3 20.1472 70.1529 0 45.3 0C20.4472 0 0.300049 20.1472 0.300049 45C0.300049 69.8528 20.4472 90 45.3 90Z" fill="#E0E0E0"/>
<path d="M45 0C20.16 0 0 20.16 0 45C0 69.84 20.16 90 45 90C69.84 90 90 69.84 90 45C90 20.16 69.84 0 45 0ZM26.85 63.36L15.69 66.36L18.75 54.96C16.65 51.33 15.42 47.13 15.42 42.66C15.42 29.13 26.37 18.18 39.9 18.18C53.43 18.18 64.38 29.13 64.38 42.66C64.38 56.19 53.43 67.14 39.9 67.14C35.1 67.14 30.63 65.76 26.85 63.36ZM74.34 71.1L64.2 68.37C60.75 70.56 56.67 71.82 52.32 71.82C49.2 71.82 46.23 71.19 43.56 70.02C57.09 68.25 67.56 56.67 67.56 42.66C67.56 38.61 66.66 34.74 65.1 31.29C70.86 35.31 74.61 42 74.61 49.56C74.61 53.64 73.5 57.45 71.58 60.75L74.34 71.1Z" fill="#4F7670"/>
</g>
<defs>
<clipPath id="clip0">
<rect width="90" height="90" fill="white"/>
</clipPath>
</defs>
</svg>
