<svg width="50" height="50" viewBox="0 0 50 50" fill="none" xmlns="http://www.w3.org/2000/svg">
<g clip-path="url(#clip0)">
<path d="M28.552 38.5697C28.8049 38.3177 29.0165 38.0406 29.2022 37.7518L48.5821 18.3719C50.4717 16.4804 50.4735 13.4141 48.5821 11.5218C46.6906 9.63211 43.6252 9.63032 41.732 11.5218L25.0435 28.212L8.26622 11.4375C6.37478 9.54691 3.30936 9.54601 1.41702 11.4375C0.472642 12.3845 -0.00178862 13.6231 5.06696e-06 14.8616C-0.00178862 16.1011 0.472642 17.3405 1.41881 18.284L20.883 37.7509C21.0687 38.0406 21.2821 38.3168 21.5368 38.5697C22.5036 39.5365 23.7754 40.002 25.0435 39.9795C26.3098 40.0029 27.5852 39.5365 28.552 38.5697Z" fill="#4F766F"/>
</g>
<defs>
<clipPath id="clip0">
<rect width="50" height="50" fill="white"/>
</clipPath>
</defs>
</svg>
