<svg width="90" height="90" viewBox="0 0 90 90" fill="none" xmlns="http://www.w3.org/2000/svg">
<path d="M77.8719 0H12.1282C5.43037 0 0.000488281 5.42966 0.000488281 12.1277V77.8719C0.000488281 84.5699 5.43015 89.9996 12.1282 89.9996H44.5527L44.6079 57.8386H36.2525C35.1667 57.8386 34.2854 56.9606 34.2812 55.8747L34.2411 45.5079C34.2369 44.4161 35.1209 43.5289 36.2127 43.5289H44.5529V33.5119C44.5529 21.8873 51.6525 15.5576 62.0224 15.5576H70.5317C71.6204 15.5576 72.5033 16.4402 72.5033 17.5292V26.2705C72.5033 27.359 71.6211 28.2414 70.5328 28.2421L65.3107 28.2445C59.6713 28.2445 58.5793 30.9243 58.5793 34.8571V43.5291H70.9711C72.1519 43.5291 73.068 44.5601 72.9288 45.7327L71.7001 56.0995C71.5825 57.0916 70.7413 57.839 69.7424 57.839H58.6345L58.5793 90H77.8724C84.5702 90 89.9998 84.5703 89.9998 77.8725V12.1277C89.9996 5.42966 84.5699 0 77.8719 0Z" fill="#475993"/>
</svg>
