<svg width="90" height="90" viewBox="0 0 90 90" fill="none" xmlns="http://www.w3.org/2000/svg">
<path d="M90 13.1251V28.125H0V13.1251C0 5.87619 5.87619 0 13.1251 0H76.8751C84.1238 0 90 5.87619 90 13.1251Z" fill="#795548"/>
<path d="M90 28.125V76.8749C90 84.1238 84.1238 90 76.8749 90H13.1251C5.87619 90 0 84.1238 0 76.8749V28.125H90Z" fill="#BDBDBD"/>
<path d="M65.6249 7.5H76.8749C77.9105 7.5 78.75 8.33953 78.75 9.37506V20.6251C78.75 21.6606 77.9105 22.5001 76.8749 22.5001H65.6249C64.5894 22.5001 63.7499 21.6606 63.7499 20.6251V9.37506C63.7501 8.33936 64.5894 7.5 65.6249 7.5Z" fill="#37474F"/>
<path d="M9.37494 18.7502C8.33941 18.7502 7.49988 17.9106 7.49988 16.8751V3.75006C7.49988 2.71453 8.33941 1.875 9.37494 1.875C10.4105 1.875 11.25 2.71453 11.25 3.75006V16.8751C11.25 17.9106 10.4105 18.7502 9.37494 18.7502Z" fill="#F44336"/>
<path d="M16.8749 18.7501C15.8394 18.7501 14.9999 17.9105 14.9999 16.875V1.87506C14.9999 0.839531 15.8394 0 16.8749 0C17.9105 0 18.75 0.839531 18.75 1.87506V16.875C18.75 17.9105 17.9105 18.7501 16.8749 18.7501Z" fill="#FFC107"/>
<path d="M24.3751 18.7501C23.3395 18.7501 22.5 17.9105 22.5 16.875V1.87506C22.5 0.839531 23.3395 0 24.3751 0C25.4106 0 26.2501 0.839531 26.2501 1.87506V16.875C26.2499 17.9105 25.4106 18.7501 24.3751 18.7501Z" fill="#4CAF50"/>
<path d="M45.0001 65.6249C56.3909 65.6249 65.625 56.3908 65.625 44.9999C65.625 33.6091 56.3909 24.375 45.0001 24.375C33.6092 24.375 24.3751 33.6091 24.3751 44.9999C24.3751 56.3908 33.6092 65.6249 45.0001 65.6249Z" fill="#455A64"/>
<path d="M45 67.5C32.5737 67.5 22.5 57.4263 22.5 45C22.5 32.5737 32.5737 22.5 45 22.5C57.4263 22.5 67.5 32.5737 67.5 45C67.4856 57.4204 57.4204 67.4856 45 67.5ZM45 26.2499C34.6447 26.2499 26.2499 34.6446 26.2499 45C26.2499 55.3554 34.6447 63.7501 45 63.7501C55.3553 63.7501 63.7501 55.3553 63.7501 45C63.7376 34.6498 55.3502 26.2624 45 26.2499Z" fill="#8D6E63"/>
<path d="M45 56.25C51.2132 56.25 56.25 51.2132 56.25 45C56.25 38.7868 51.2132 33.75 45 33.75C38.7868 33.75 33.75 38.7868 33.75 45C33.75 51.2132 38.7868 56.25 45 56.25Z" fill="#37474F"/>
</svg>
