<svg width="90" height="90" viewBox="0 0 90 90" fill="none" xmlns="http://www.w3.org/2000/svg">
<path d="M80 0H10C4.47715 0 0 4.47715 0 10V80C0 85.5229 4.47715 90 10 90H80C85.5229 90 90 85.5229 90 80V10C90 4.47715 85.5229 0 80 0Z" fill="#50ABF1"/>
<path d="M11.9198 66.7139C11.9223 66.7146 11.9247 66.7156 11.9268 66.717C17.9159 70.5145 25.0198 72.7121 32.6348 72.7121C54.0321 72.7121 71.3774 55.3649 71.3774 33.9695C71.3774 32.9717 71.8119 32.0147 72.5757 31.3725C72.6127 31.3414 72.6503 31.3097 72.6884 31.2775C74.8292 29.4681 73.1772 27.1814 70.388 27.4604C70.3819 27.4604 70.3793 27.4527 70.3842 27.4492C70.5263 27.3542 71.4162 26.7495 72.4684 25.7991C74.6381 23.8396 72.4735 21.7303 69.7002 22.6552C68.4846 23.059 67.18 22.652 66.1725 21.8611C63.8619 20.0474 60.9499 18.9668 57.7843 18.9668C50.2745 18.9668 44.1892 25.0503 44.1892 32.5544C44.1892 34.1164 43.0049 35.5374 41.4619 35.294C37.0025 34.5906 28.5377 32.4581 21.0708 26.0463C18.6332 23.953 14.8724 24.2629 14.6564 27.4687C14.4817 30.0611 15.1034 33.2799 17.7738 36.6632C18.5923 37.7002 18.8494 39.3645 17.5778 39.0061C16.5846 38.7261 14.5939 38.9636 14.7181 39.988C15.0463 42.6969 16.3851 47.2411 21.4886 49.8635C22.5993 50.4342 23.6817 51.6936 22.4336 51.7327C21.5283 51.761 19.6708 52.478 20.0582 53.2967C20.5649 54.3673 21.4079 55.7746 22.748 57.0971C25.4747 59.7883 26.6628 64.6421 23.0104 65.7984C19.9127 66.7791 16.1411 67.3442 11.9198 66.7139Z" fill="white"/>
</svg>
