<svg width="126" height="55" viewBox="0 0 126 55" fill="none" xmlns="http://www.w3.org/2000/svg">
<path d="M0.456 44.928V4.288C0.456 3.30666 0.882667 2.56 1.736 2.048C2.58933 1.49333 3.61333 1.216 4.808 1.216H27.016C27.9973 1.216 28.744 1.64267 29.256 2.496C29.768 3.34933 30.024 4.352 30.024 5.504C30.024 6.74133 29.7467 7.78666 29.192 8.64C28.68 9.49333 27.9547 9.92 27.016 9.92H10.44V20.736H20.104C21.0427 20.736 21.768 21.12 22.28 21.888C22.8347 22.656 23.112 23.5733 23.112 24.64C23.112 25.6213 22.856 26.496 22.344 27.264C21.832 28.032 21.0853 28.416 20.104 28.416H10.44V44.928C10.44 45.9093 9.94933 46.6773 8.968 47.232C7.98667 47.744 6.81333 48 5.448 48C4.08267 48 2.90933 47.744 1.928 47.232C0.946667 46.6773 0.456 45.9093 0.456 44.928ZM25.3185 43.904C25.3185 43.776 25.3612 43.5413 25.4465 43.2L37.3505 4.16C37.6918 3.09333 38.4598 2.28266 39.6545 1.728C40.8918 1.13066 42.2998 0.831997 43.8785 0.831997C45.4572 0.831997 46.8438 1.13066 48.0385 1.728C49.2758 2.28266 50.0652 3.09333 50.4065 4.16L62.3745 43.2C62.4598 43.5413 62.5025 43.776 62.5025 43.904C62.5025 45.0133 61.7985 45.9733 60.3905 46.784C59.0252 47.5947 57.5958 48 56.1025 48C54.2678 48 53.1798 47.3813 52.8385 46.144L50.6625 38.144H37.1585L34.9825 46.144C34.6412 47.3813 33.5532 48 31.7185 48C30.2252 48 28.7745 47.5947 27.3665 46.784C26.0012 45.9733 25.3185 45.0133 25.3185 43.904ZM39.2065 30.464H48.5505L43.8785 13.312L39.2065 30.464ZM65.694 33.28V16.32C65.694 11.072 67.102 7.25333 69.918 4.864C72.7767 2.432 76.5953 1.216 81.374 1.216C86.1527 1.216 89.9713 2.432 92.83 4.864C95.6887 7.25333 97.118 11.072 97.118 16.32V33.28C97.118 37.888 95.966 41.408 93.662 43.84C91.4007 46.272 88.3287 47.7227 84.446 48.192V51.904C84.446 52.8853 84.126 53.632 83.486 54.144C82.8887 54.6987 82.1847 54.976 81.374 54.976C80.5633 54.976 79.838 54.6987 79.198 54.144C78.6007 53.632 78.302 52.8853 78.302 51.904V48.192C74.4193 47.7227 71.3473 46.2933 69.086 43.904C66.8247 41.472 65.694 37.9307 65.694 33.28ZM75.678 33.28C75.678 36.1387 76.5527 38.0587 78.302 39.04V36.224C78.302 35.2427 78.6007 34.496 79.198 33.984C79.7953 33.472 80.5207 33.216 81.374 33.216C82.2273 33.216 82.9527 33.472 83.55 33.984C84.1473 34.496 84.446 35.2427 84.446 36.224V39.04C86.238 38.016 87.134 36.096 87.134 33.28V16.32C87.134 12.0533 85.214 9.92 81.374 9.92C77.5767 9.92 75.678 12.0533 75.678 16.32V33.28ZM101.407 42.752C101.407 41.856 101.727 40.9173 102.367 39.936C103.007 38.912 103.775 38.4 104.671 38.4C105.183 38.4 105.801 38.6347 106.527 39.104C107.295 39.5733 108.233 40.064 109.343 40.576C110.495 41.0453 111.817 41.28 113.311 41.28C115.956 41.28 117.279 40.576 117.279 39.168C117.279 38.4 116.767 37.7813 115.743 37.312C114.719 36.8 113.46 36.3733 111.967 36.032C110.516 35.6907 109.044 35.2427 107.551 34.688C106.1 34.1333 104.863 33.216 103.839 31.936C102.815 30.656 102.303 29.0133 102.303 27.008C102.303 24.2773 103.263 21.952 105.183 20.032C107.103 18.112 110.153 17.152 114.335 17.152C117.193 17.152 119.711 17.6 121.887 18.496C124.105 19.3493 125.215 20.4373 125.215 21.76C125.215 22.6133 124.873 23.616 124.191 24.768C123.508 25.8773 122.655 26.432 121.631 26.432C121.204 26.432 120.223 26.112 118.687 25.472C117.151 24.832 115.743 24.512 114.463 24.512C113.268 24.512 112.351 24.7253 111.711 25.152C111.113 25.536 110.815 26.0053 110.815 26.56C110.815 27.2 111.327 27.712 112.351 28.096C113.417 28.48 114.676 28.864 116.127 29.248C117.62 29.5893 119.092 30.0587 120.543 30.656C122.036 31.2107 123.295 32.192 124.319 33.6C125.385 34.9653 125.919 36.6933 125.919 38.784C125.919 41.856 124.831 44.2667 122.655 46.016C120.521 47.7653 117.492 48.64 113.567 48.64C110.239 48.64 107.38 48.064 104.991 46.912C102.601 45.7173 101.407 44.3307 101.407 42.752Z" fill="#6D7172"/>
</svg>
