<svg width="622" height="81" viewBox="0 0 622 81" fill="none" xmlns="http://www.w3.org/2000/svg">
<path d="M278.56 24.016C278.624 23.824 278.688 23.504 278.688 23.184C278.688 21.008 275.104 19.216 272.224 19.216C270.688 19.216 269.408 19.728 269.024 21.072L259.296 53.904L254.24 32.272C253.856 30.544 251.616 29.648 249.44 29.648C247.264 29.648 245.024 30.544 244.64 32.272L239.584 53.904L229.856 21.072C229.472 19.728 228.192 19.216 226.656 19.216C223.776 19.216 220.192 21.008 220.192 23.184C220.192 23.504 220.256 23.824 220.32 24.016L233.056 63.056C233.76 65.296 236.704 66.384 239.648 66.384C242.528 66.384 245.6 65.296 246.112 63.056L249.44 47.888L252.768 63.056C253.28 65.296 256.352 66.384 259.232 66.384C262.176 66.384 265.056 65.296 265.824 63.056L278.56 24.016ZM291.739 48.592C291.739 45.584 293.915 43.792 296.027 43.792C298.523 43.792 300.635 46.16 300.635 48.592V62.928C300.635 64.976 303.259 66 305.563 66C308.059 66 310.555 64.976 310.555 62.928V48.592C310.555 41.232 305.499 35.152 299.675 35.152C295.707 35.152 292.891 37.52 291.739 40.016V21.136C291.739 19.344 289.435 18.128 286.747 18.128C283.867 18.128 281.819 19.344 281.819 21.136V62.928C281.819 64.464 283.867 66 286.747 66C289.435 66 291.739 64.464 291.739 62.928V48.592ZM329.573 35.152C321.381 35.152 314.853 41.232 314.853 48.4V53.072C314.853 61.2 321.573 66.64 331.045 66.64C338.277 66.64 342.949 63.312 342.949 60.88C342.949 59.344 341.605 56.528 339.301 56.528C337.189 56.528 335.269 58.896 331.301 58.896C327.397 58.896 324.773 56.784 324.773 53.648V53.264H337.125C340.069 53.264 343.333 53.008 343.333 47.312C343.333 40.08 336.933 35.152 329.573 35.152ZM324.773 47.696V46.16C324.773 43.6 327.077 42.32 329.381 42.32C331.749 42.32 334.053 43.6 334.053 46.16C334.053 47.376 333.605 47.696 332.709 47.696H324.773ZM366.507 43.792C368.363 43.792 370.027 41.808 370.027 39.44C370.027 37.136 368.363 35.152 366.507 35.152H364.651C361.387 35.152 358.315 38.096 357.035 40.912V38.544C357.035 36.752 355.051 35.536 352.619 35.536C349.803 35.536 347.755 36.752 347.755 38.544V62.928C347.755 64.464 349.803 66 352.619 66C355.435 66 357.675 64.464 357.675 62.928V53.328C357.675 47.504 361.131 43.792 364.651 43.792H366.507ZM386.073 35.152C377.881 35.152 371.353 41.232 371.353 48.4V53.072C371.353 61.2 378.073 66.64 387.545 66.64C394.777 66.64 399.449 63.312 399.449 60.88C399.449 59.344 398.105 56.528 395.801 56.528C393.689 56.528 391.769 58.896 387.801 58.896C383.897 58.896 381.273 56.784 381.273 53.648V53.264H393.625C396.569 53.264 399.833 53.008 399.833 47.312C399.833 40.08 393.433 35.152 386.073 35.152ZM381.273 47.696V46.16C381.273 43.6 383.577 42.32 385.881 42.32C388.249 42.32 390.553 43.6 390.553 46.16C390.553 47.376 390.105 47.696 389.209 47.696H381.273Z" fill="#4F766F"/>
<rect x="432" y="37" width="190" height="10" fill="#E6C570"/>
<rect y="42" width="190" height="10" fill="#E6C570"/>
</svg>
