<svg width="120" height="120" viewBox="0 0 120 120" fill="none" xmlns="http://www.w3.org/2000/svg">
<path d="M79.2002 57.6562C80.4946 57.6562 81.5439 56.6069 81.5439 55.3125C81.5439 54.0181 80.4946 52.9688 79.2002 52.9688C77.9058 52.9688 76.8564 54.0181 76.8564 55.3125C76.8564 56.6069 77.9058 57.6562 79.2002 57.6562Z" fill="black"/>
<path d="M79.6024 65.355C78.323 65.1649 77.1302 66.0497 76.9406 67.3301C76.3001 71.6555 72.6438 75.2428 67.1604 76.9265C61.2994 78.7263 53.164 78.123 48.2011 72.7186C47.3255 71.7651 45.8428 71.7023 44.8896 72.5775C43.9362 73.4531 43.8731 74.9358 44.7485 75.889C47.6215 79.0176 51.5236 81.15 56.033 82.0554C57.6253 82.3751 59.2772 82.5337 60.9398 82.5337C63.5081 82.5337 66.1017 82.1552 68.5364 81.4076C75.7903 79.1803 80.6655 74.1745 81.5775 68.0168C81.7671 66.7364 80.8828 65.5446 79.6024 65.355Z" fill="black"/>
<path d="M112.178 44.6276C107.918 39.6891 102.038 36.487 94.9612 35.201C101.737 30.6284 107.581 26.0777 111.749 22.107C118.102 16.0528 120.233 11.7984 118.454 8.71898C116.474 5.28914 110.76 5.31281 100.469 8.79422C91.7749 11.7356 80.9435 16.8443 69.971 23.1795C68.0756 24.2735 66.198 25.3938 64.361 26.5228C62.9985 22.6751 63.8971 18.2798 66.9032 14.4687C69.1549 11.614 69.6576 7.9882 68.2155 5.00578C66.7038 1.87992 63.386 0.0084375 59.3348 0H59.2246C44.9264 0 30.941 5.64164 19.845 15.8857C8.73511 26.1424 1.93355 39.7202 0.693236 54.1177C-0.79903 71.4567 4.74347 87.9412 16.2993 100.534C27.651 112.905 43.7444 120 60.4528 120C69.4481 120 77.8926 118.354 85.5513 115.108C92.5544 112.14 98.7733 107.901 104.035 102.51C108.914 97.5108 112.761 91.7562 115.469 85.4053C118.046 79.3622 119.453 72.9581 119.541 66.8857C119.667 58.0549 117.121 50.3583 112.178 44.6276ZM64.6349 31.8722C67.1156 30.3077 69.6991 28.7489 72.3145 27.2391C82.4596 21.3816 92.5621 16.557 100.761 13.6538C109.787 10.458 113.482 10.6666 114.344 11.0791C114.269 11.6245 113.592 14.051 107.669 19.5054C102.723 24.06 95.5012 29.4162 87.333 34.5872C84.7509 36.2224 82.0635 37.8476 79.346 39.417C75.5995 41.5793 71.8558 43.6012 68.1815 45.4526C67.4484 43.313 66.5088 41.2366 65.3653 39.2557C64.2569 37.3359 62.9714 35.5336 61.5344 33.866C62.5514 33.1995 63.5861 32.5329 64.6349 31.8722ZM63.9351 47.5317C57.3171 50.6702 51.2444 53.063 46.395 54.4509C46.1425 53.2385 45.6986 52.0666 45.0689 50.9749C44.4719 49.9402 43.7231 49.0151 42.8575 48.2173C46.488 44.7136 51.5978 40.6542 57.6147 36.5013C59.0116 38.0625 60.25 39.7702 61.3059 41.599C62.3978 43.4904 63.2768 45.4798 63.9351 47.5317ZM114.854 66.8184C114.519 90.1406 93.6255 115.312 60.4528 115.312C45.0539 115.312 30.2196 108.771 19.7533 97.3655C9.09558 85.7513 3.9855 70.5349 5.36363 54.5198C7.73058 27.0422 31.8925 4.6875 59.2246 4.6875H59.3299C61.5721 4.69219 63.2728 5.55188 63.9953 7.04648C64.6598 8.42039 64.371 10.1098 63.2226 11.5657C58.9985 16.9212 57.9391 23.5078 60.3257 29.0613C59.0693 29.8709 57.8343 30.6839 56.6411 31.4904C56.6355 31.4941 56.6299 31.4979 56.6245 31.5016C49.1716 36.5306 42.8782 41.5329 38.6908 45.7425C35.515 44.6571 32.0257 44.9735 29.0599 46.6854C24.1905 49.4981 17.7968 62.6055 16.5646 65.2045C16.2346 65.9002 16.2677 66.7137 16.6525 67.3805C17.0376 68.0473 17.7255 68.4825 18.4928 68.5448C19.7882 68.6498 23.4668 68.9152 27.561 68.9152C32.5293 68.9152 38.1093 68.5242 40.7789 66.9823C43.6706 65.313 45.675 62.524 46.3692 59.3177C52.1168 57.8091 59.6264 54.8576 67.7596 50.895C72.3166 48.6771 77.0032 46.1813 81.6897 43.4766C84.067 42.1036 86.4173 40.6882 88.7015 39.2606C88.7153 39.2613 88.7287 39.2634 88.7425 39.2639C108.277 39.8241 115.039 53.865 114.854 66.8184ZM41.9395 57.2742C41.7895 59.6313 40.4798 61.7426 38.4351 62.9229C36.2186 64.2033 28.6043 64.3758 22.3523 64.0898C25.2293 58.5342 29.1853 52.0266 31.4041 50.745C33.4989 49.5356 36.0316 49.4827 38.1803 50.6037C39.3614 51.2187 40.3392 52.1569 41.0085 53.3173C41.7049 54.5243 42.0267 55.8926 41.9395 57.2742Z" fill="black"/>
<path d="M41.7004 14.4937C36.5311 14.4937 32.3254 18.6994 32.3254 23.8687C32.3254 29.0381 36.5311 33.2437 41.7004 33.2437C46.8698 33.2437 51.0754 29.0381 51.0754 23.8687C51.0754 18.6994 46.8698 14.4937 41.7004 14.4937ZM41.7004 28.5562C39.1158 28.5562 37.0129 26.4534 37.0129 23.8687C37.0129 21.2841 39.1158 19.1812 41.7004 19.1812C44.2851 19.1812 46.3879 21.2841 46.3879 23.8687C46.3879 26.4534 44.2851 28.5562 41.7004 28.5562Z" fill="black"/>
<path d="M29.9817 77.4727C24.8123 77.4727 20.6067 81.6783 20.6067 86.8477C20.6067 92.017 24.8123 96.2227 29.9817 96.2227C35.1511 96.2227 39.3567 92.017 39.3567 86.8477C39.3567 81.6783 35.1511 77.4727 29.9817 77.4727ZM29.9817 91.5352C27.397 91.5352 25.2942 89.4323 25.2942 86.8477C25.2942 84.263 27.397 82.1602 29.9817 82.1602C32.5664 82.1602 34.6692 84.263 34.6692 86.8477C34.6692 89.4323 32.5664 91.5352 29.9817 91.5352Z" fill="black"/>
<path d="M53.4192 91.5352C48.2498 91.5352 44.0442 95.7408 44.0442 100.91C44.0442 106.08 48.2498 110.285 53.4192 110.285C58.5886 110.285 62.7942 106.08 62.7942 100.91C62.7942 95.7408 58.5886 91.5352 53.4192 91.5352ZM53.4192 105.598C50.8345 105.598 48.7317 103.495 48.7317 100.91C48.7317 98.3255 50.8345 96.2227 53.4192 96.2227C56.0039 96.2227 58.1067 98.3255 58.1067 100.91C58.1067 103.495 56.0039 105.598 53.4192 105.598Z" fill="black"/>
<path d="M81.5442 86.8477C76.3748 86.8477 72.1692 91.0533 72.1692 96.2227C72.1692 101.392 76.3748 105.598 81.5442 105.598C86.7136 105.598 90.9192 101.392 90.9192 96.2227C90.9192 91.0533 86.7136 86.8477 81.5442 86.8477ZM81.5442 100.91C78.9595 100.91 76.8567 98.8073 76.8567 96.2227C76.8567 93.638 78.9595 91.5352 81.5442 91.5352C84.1289 91.5352 86.2317 93.638 86.2317 96.2227C86.2317 98.8073 84.1289 100.91 81.5442 100.91Z" fill="black"/>
<path d="M100.294 63.4102C95.1248 63.4102 90.9192 67.6158 90.9192 72.7852C90.9192 77.9545 95.1248 82.1602 100.294 82.1602C105.464 82.1602 109.669 77.9545 109.669 72.7852C109.669 67.6158 105.464 63.4102 100.294 63.4102ZM100.294 77.4727C97.7095 77.4727 95.6067 75.3698 95.6067 72.7852C95.6067 70.2005 97.7095 68.0977 100.294 68.0977C102.879 68.0977 104.982 70.2005 104.982 72.7852C104.982 75.3698 102.879 77.4727 100.294 77.4727Z" fill="black"/>
</svg>
