<svg width="120" height="120" viewBox="0 0 120 120" fill="none" xmlns="http://www.w3.org/2000/svg">
<path d="M98 0H22C16.48 0.0065 12.0065 4.48 12 10V64C12.0065 69.52 16.48 73.9935 22 74H49.348L46.492 84H40V88H80V84H73.508L70.652 74H98C103.52 73.9935 107.994 69.52 108 64V10C107.994 4.48 103.52 0.0065 98 0ZM50.652 84L53.508 74H66.492L69.348 84H50.652ZM104 64C104 67.3138 101.314 70 98 70H22C18.6863 70 16 67.3138 16 64V60H104V64ZM104 56H16V10C16 6.68625 18.6863 4 22 4H98C101.314 4 104 6.68625 104 10V56Z" fill="black"/>
<path d="M76 92H20C18.8955 92 18 92.8955 18 94V118C18 119.104 18.8955 120 20 120H76C77.1045 120 78 119.104 78 118V94C78 92.8955 77.1045 92 76 92ZM74 116H22V96H74V116Z" fill="black"/>
<path d="M30 108H26V112H30V108Z" fill="black"/>
<path d="M30 100H26V104H30V100Z" fill="black"/>
<path d="M38 100H34V104H38V100Z" fill="black"/>
<path d="M46 100H42V104H46V100Z" fill="black"/>
<path d="M62 100H58V104H62V100Z" fill="black"/>
<path d="M54 100H50V104H54V100Z" fill="black"/>
<path d="M70 108H66V112H70V108Z" fill="black"/>
<path d="M70 100H66V104H70V100Z" fill="black"/>
<path d="M62 108H34V112H62V108Z" fill="black"/>
<path d="M92 92C86.4773 92 82 96.4773 82 102V110C82 115.523 86.4773 120 92 120C97.5227 120 102 115.523 102 110V102C102 96.4773 97.5227 92 92 92ZM98 110C98 113.314 95.3138 116 92 116C88.6862 116 86 113.314 86 110V102C86 98.6862 88.6862 96 92 96C95.3138 96 98 98.6862 98 102V110Z" fill="black"/>
<path d="M94 100H90V104H94V100Z" fill="black"/>
<path d="M62.0683 17.4921L54.0608 45.4761L57.9047 46.576L65.9122 18.592L62.0683 17.4921Z" fill="black"/>
<path d="M49.2801 23.536L46.7201 20.464L34.7201 30.464C33.8718 31.1715 33.7576 32.4325 34.4651 33.281C34.5423 33.3735 34.6276 33.459 34.7201 33.536L46.7201 43.536L49.2801 40.464L39.1241 32L49.2801 23.536Z" fill="black"/>
<path d="M85.535 30.719C85.4577 30.6265 85.3725 30.541 85.28 30.464L73.28 20.464L70.72 23.536L80.876 32L70.72 40.464L73.28 43.536L85.28 33.536C86.1282 32.8285 86.2425 31.5675 85.535 30.719Z" fill="black"/>
</svg>
