<svg width="672" height="81" viewBox="0 0 672 81" fill="none" xmlns="http://www.w3.org/2000/svg">
<path d="M0.192 23.184C0.192 22.16 0.874667 21.2427 2.24 20.432C3.648 19.6213 5.12 19.216 6.656 19.216C8.448 19.216 9.51467 19.8347 9.856 21.072L19.584 53.904L24.64 32.272C24.8107 31.4613 25.3653 30.8213 26.304 30.352C27.2427 29.8827 28.288 29.648 29.44 29.648C30.592 29.648 31.6373 29.8827 32.576 30.352C33.5147 30.8213 34.0693 31.4613 34.24 32.272L39.296 53.904L49.024 21.072C49.3653 19.8347 50.432 19.216 52.224 19.216C53.76 19.216 55.2107 19.6213 56.576 20.432C57.984 21.2427 58.688 22.16 58.688 23.184C58.688 23.4827 58.6453 23.76 58.56 24.016L45.824 63.056C45.44 64.1227 44.6293 64.9547 43.392 65.552C42.1973 66.1067 40.8107 66.384 39.232 66.384C37.6533 66.384 36.2453 66.1067 35.008 65.552C33.7707 64.9547 33.024 64.1227 32.768 63.056L29.44 47.888L26.112 63.056C25.856 64.1227 25.1093 64.9547 23.872 65.552C22.6347 66.1067 21.2267 66.384 19.648 66.384C18.0693 66.384 16.6613 66.1067 15.424 65.552C14.1867 64.9547 13.3973 64.1227 13.056 63.056L0.32 24.016C0.234667 23.76 0.192 23.4827 0.192 23.184ZM61.819 62.928V21.136C61.819 20.24 62.267 19.5147 63.163 18.96C64.1017 18.4053 65.2963 18.128 66.747 18.128C68.1123 18.128 69.2857 18.4053 70.267 18.96C71.2483 19.5147 71.739 20.24 71.739 21.136V40.016C72.379 38.6507 73.3817 37.4987 74.747 36.56C76.155 35.6213 77.7977 35.152 79.675 35.152C82.619 35.152 85.1577 36.4747 87.291 39.12C89.467 41.7653 90.555 44.9227 90.555 48.592V62.928C90.555 63.9093 90.0643 64.6773 89.083 65.232C88.1017 65.744 86.9283 66 85.563 66C84.283 66 83.131 65.7227 82.107 65.168C81.1257 64.6133 80.635 63.8667 80.635 62.928V48.592C80.635 47.3547 80.1657 46.2453 79.227 45.264C78.331 44.2827 77.2643 43.792 76.027 43.792C74.9177 43.792 73.915 44.24 73.019 45.136C72.1657 45.9893 71.739 47.1413 71.739 48.592V62.928C71.739 63.696 71.227 64.4 70.203 65.04C69.2217 65.68 68.0697 66 66.747 66C65.339 66 64.1657 65.7013 63.227 65.104C62.2883 64.464 61.819 63.7387 61.819 62.928ZM94.277 58.128C94.277 54.5867 95.557 52.0907 98.117 50.64C100.72 49.1893 104.432 48.464 109.253 48.464H111.557V47.824C111.557 46.544 111.173 45.4347 110.405 44.496C109.637 43.5573 108.421 43.088 106.757 43.088C104.709 43.088 103.024 43.4507 101.701 44.176C100.378 44.8587 99.5677 45.2 99.269 45.2C98.245 45.2 97.4343 44.7093 96.837 43.728C96.2397 42.704 95.941 41.552 95.941 40.272C95.941 38.864 97.1143 37.6693 99.461 36.688C101.85 35.664 104.325 35.152 106.885 35.152C111.792 35.152 115.44 36.3467 117.829 38.736C120.261 41.1253 121.477 44.112 121.477 47.696V62.928C121.477 63.7813 121.008 64.5067 120.069 65.104C119.173 65.7013 118.021 66 116.613 66C115.376 66 114.33 65.7013 113.477 65.104C112.624 64.5067 112.197 63.7813 112.197 62.928V61.52C109.253 64.9333 106.01 66.64 102.469 66.64C100.122 66.64 98.1597 65.9147 96.581 64.464C95.045 63.0133 94.277 60.9013 94.277 58.128ZM104.261 56.72C104.261 58.512 105.093 59.408 106.757 59.408C107.824 59.408 108.89 58.8107 109.957 57.616C111.024 56.4213 111.557 55.056 111.557 53.52V53.264H111.301C109.893 53.264 108.72 53.328 107.781 53.456C106.885 53.584 106.074 53.9253 105.349 54.48C104.624 54.992 104.261 55.7387 104.261 56.72ZM126.877 55.184V25.296C126.877 24.4427 127.389 23.7387 128.413 23.184C129.437 22.5867 130.568 22.288 131.805 22.288C133.128 22.288 134.28 22.5867 135.261 23.184C136.285 23.7387 136.797 24.4427 136.797 25.296V35.536H144.029C144.797 35.536 145.394 35.8987 145.821 36.624C146.248 37.3067 146.461 38.1173 146.461 39.056C146.461 40.0373 146.248 40.8693 145.821 41.552C145.394 42.2347 144.797 42.576 144.029 42.576H136.797V55.184C136.797 56.1227 136.989 56.784 137.373 57.168C137.757 57.5093 138.44 57.68 139.421 57.68H142.173C143.538 57.68 144.584 58.1067 145.309 58.96C146.034 59.7707 146.397 60.7307 146.397 61.84C146.397 62.992 146.034 63.9733 145.309 64.784C144.584 65.5947 143.538 66 142.173 66H139.421C131.058 66 126.877 62.3947 126.877 55.184ZM164.346 28.304C163.322 27.3653 162.81 26.2773 162.81 25.04C162.81 23.8027 163.322 22.736 164.346 21.84C165.37 20.944 166.607 20.496 168.058 20.496C169.466 20.496 170.682 20.944 171.706 21.84C172.73 22.736 173.242 23.8027 173.242 25.04C173.242 26.2773 172.73 27.3653 171.706 28.304C170.682 29.2 169.466 29.648 168.058 29.648C166.607 29.648 165.37 29.2 164.346 28.304ZM163.13 62.928V38.544C163.13 37.648 163.578 36.9227 164.474 36.368C165.413 35.8133 166.607 35.536 168.058 35.536C169.466 35.536 170.639 35.8133 171.578 36.368C172.559 36.9227 173.05 37.648 173.05 38.544V62.928C173.05 63.696 172.559 64.4 171.578 65.04C170.597 65.68 169.423 66 168.058 66C166.65 66 165.477 65.7013 164.538 65.104C163.599 64.464 163.13 63.7387 163.13 62.928ZM177.219 60.752C177.219 59.856 177.539 58.9173 178.179 57.936C178.819 56.912 179.587 56.4 180.483 56.4C180.995 56.4 181.614 56.6347 182.339 57.104C183.107 57.5733 184.046 58.064 185.155 58.576C186.307 59.0453 187.63 59.28 189.123 59.28C191.768 59.28 193.091 58.576 193.091 57.168C193.091 56.4 192.579 55.7813 191.555 55.312C190.531 54.8 189.272 54.3733 187.779 54.032C186.328 53.6907 184.856 53.2427 183.363 52.688C181.912 52.1333 180.675 51.216 179.651 49.936C178.627 48.656 178.115 47.0133 178.115 45.008C178.115 42.2773 179.075 39.952 180.995 38.032C182.915 36.112 185.966 35.152 190.147 35.152C193.006 35.152 195.523 35.6 197.699 36.496C199.918 37.3493 201.027 38.4373 201.027 39.76C201.027 40.6133 200.686 41.616 200.003 42.768C199.32 43.8773 198.467 44.432 197.443 44.432C197.016 44.432 196.035 44.112 194.499 43.472C192.963 42.832 191.555 42.512 190.275 42.512C189.08 42.512 188.163 42.7253 187.523 43.152C186.926 43.536 186.627 44.0053 186.627 44.56C186.627 45.2 187.139 45.712 188.163 46.096C189.23 46.48 190.488 46.864 191.939 47.248C193.432 47.5893 194.904 48.0587 196.355 48.656C197.848 49.2107 199.107 50.192 200.131 51.6C201.198 52.9653 201.731 54.6933 201.731 56.784C201.731 59.856 200.643 62.2667 198.467 64.016C196.334 65.7653 193.304 66.64 189.379 66.64C186.051 66.64 183.192 66.064 180.803 64.912C178.414 63.7173 177.219 62.3307 177.219 60.752ZM219.581 62.928V22.224C219.581 21.2427 220.072 20.496 221.053 19.984C222.034 19.472 223.208 19.216 224.573 19.216C225.938 19.216 227.112 19.472 228.093 19.984C229.074 20.496 229.565 21.2427 229.565 22.224V37.904H242.301V22.224C242.301 21.2427 242.792 20.496 243.773 19.984C244.754 19.472 245.928 19.216 247.293 19.216C248.658 19.216 249.832 19.472 250.813 19.984C251.794 20.496 252.285 21.2427 252.285 22.224V62.928C252.285 63.9093 251.794 64.6773 250.813 65.232C249.832 65.744 248.658 66 247.293 66C245.928 66 244.754 65.744 243.773 65.232C242.792 64.6773 242.301 63.9093 242.301 62.928V45.584H229.565V62.928C229.565 63.9093 229.074 64.6773 228.093 65.232C227.112 65.744 225.938 66 224.573 66C223.208 66 222.034 65.744 221.053 65.232C220.072 64.6773 219.581 63.9093 219.581 62.928ZM257.478 53.072V48.4C257.478 44.7733 258.907 41.6587 261.766 39.056C264.667 36.4533 268.145 35.152 272.198 35.152C275.995 35.152 279.238 36.304 281.926 38.608C284.614 40.8693 285.958 43.7707 285.958 47.312C285.958 48.6773 285.787 49.7867 285.446 50.64C285.105 51.4933 284.593 52.0907 283.91 52.432C283.227 52.7733 282.587 53.008 281.99 53.136C281.435 53.2213 280.689 53.264 279.75 53.264H267.398V53.648C267.398 55.2267 267.995 56.5067 269.19 57.488C270.385 58.4267 271.963 58.896 273.926 58.896C275.419 58.896 276.977 58.512 278.598 57.744C280.262 56.9333 281.371 56.528 281.926 56.528C282.993 56.528 283.867 57.04 284.55 58.064C285.233 59.0453 285.574 59.984 285.574 60.88C285.574 62.2027 284.422 63.504 282.118 64.784C279.857 66.0213 277.041 66.64 273.67 66.64C268.891 66.64 264.987 65.4027 261.958 62.928C258.971 60.4107 257.478 57.1253 257.478 53.072ZM267.398 47.696H275.334C276.23 47.696 276.678 47.184 276.678 46.16C276.678 44.9653 276.209 44.0267 275.27 43.344C274.374 42.6613 273.286 42.32 272.006 42.32C270.769 42.32 269.681 42.6613 268.742 43.344C267.846 44.0267 267.398 44.9653 267.398 46.16V47.696ZM290.956 62.928V21.136C290.956 20.24 291.404 19.5147 292.3 18.96C293.239 18.4053 294.433 18.128 295.884 18.128C297.292 18.128 298.465 18.4053 299.404 18.96C300.385 19.5147 300.876 20.24 300.876 21.136V62.928C300.876 63.696 300.385 64.4 299.404 65.04C298.423 65.68 297.249 66 295.884 66C294.476 66 293.303 65.7013 292.364 65.104C291.425 64.464 290.956 63.7387 290.956 62.928ZM307.769 62.928V21.136C307.769 20.24 308.217 19.5147 309.113 18.96C310.051 18.4053 311.246 18.128 312.697 18.128C314.105 18.128 315.278 18.4053 316.217 18.96C317.198 19.5147 317.689 20.24 317.689 21.136V62.928C317.689 63.696 317.198 64.4 316.217 65.04C315.235 65.68 314.062 66 312.697 66C311.289 66 310.115 65.7013 309.177 65.104C308.238 64.464 307.769 63.7387 307.769 62.928ZM322.853 53.072V48.592C322.853 44.9653 324.282 41.8293 327.141 39.184C330 36.496 333.413 35.152 337.381 35.152C341.306 35.152 344.72 36.4747 347.621 39.12C350.522 41.7653 351.973 44.9227 351.973 48.592V53.072C351.973 56.656 350.501 59.8133 347.557 62.544C344.656 65.2747 341.264 66.64 337.381 66.64C333.498 66.64 330.106 65.2747 327.205 62.544C324.304 59.8133 322.853 56.656 322.853 53.072ZM332.773 53.072C332.773 54.352 333.221 55.504 334.117 56.528C335.013 57.5093 336.101 58 337.381 58C338.661 58 339.749 57.5093 340.645 56.528C341.584 55.504 342.053 54.352 342.053 53.072V48.592C342.053 47.3547 341.584 46.2453 340.645 45.264C339.706 44.2827 338.618 43.792 337.381 43.792C336.144 43.792 335.056 44.2827 334.117 45.264C333.221 46.2453 332.773 47.3547 332.773 48.592V53.072ZM350.63 23.184C350.63 22.16 351.312 21.2427 352.678 20.432C354.086 19.6213 355.558 19.216 357.094 19.216C358.886 19.216 359.952 19.8347 360.294 21.072L370.022 53.904L375.078 32.272C375.248 31.4613 375.803 30.8213 376.742 30.352C377.68 29.8827 378.726 29.648 379.878 29.648C381.03 29.648 382.075 29.8827 383.014 30.352C383.952 30.8213 384.507 31.4613 384.678 32.272L389.734 53.904L399.462 21.072C399.803 19.8347 400.87 19.216 402.662 19.216C404.198 19.216 405.648 19.6213 407.014 20.432C408.422 21.2427 409.126 22.16 409.126 23.184C409.126 23.4827 409.083 23.76 408.998 24.016L396.262 63.056C395.878 64.1227 395.067 64.9547 393.83 65.552C392.635 66.1067 391.248 66.384 389.67 66.384C388.091 66.384 386.683 66.1067 385.446 65.552C384.208 64.9547 383.462 64.1227 383.206 63.056L379.878 47.888L376.55 63.056C376.294 64.1227 375.547 64.9547 374.31 65.552C373.072 66.1067 371.664 66.384 370.086 66.384C368.507 66.384 367.099 66.1067 365.862 65.552C364.624 64.9547 363.835 64.1227 363.494 63.056L350.758 24.016C350.672 23.76 350.63 23.4827 350.63 23.184ZM407.853 53.072V48.592C407.853 44.9653 409.282 41.8293 412.141 39.184C415 36.496 418.413 35.152 422.381 35.152C426.306 35.152 429.72 36.4747 432.621 39.12C435.522 41.7653 436.973 44.9227 436.973 48.592V53.072C436.973 56.656 435.501 59.8133 432.557 62.544C429.656 65.2747 426.264 66.64 422.381 66.64C418.498 66.64 415.106 65.2747 412.205 62.544C409.304 59.8133 407.853 56.656 407.853 53.072ZM417.773 53.072C417.773 54.352 418.221 55.504 419.117 56.528C420.013 57.5093 421.101 58 422.381 58C423.661 58 424.749 57.5093 425.645 56.528C426.584 55.504 427.053 54.352 427.053 53.072V48.592C427.053 47.3547 426.584 46.2453 425.645 45.264C424.706 44.2827 423.618 43.792 422.381 43.792C421.144 43.792 420.056 44.2827 419.117 45.264C418.221 46.2453 417.773 47.3547 417.773 48.592V53.072ZM441.568 62.928V38.544C441.568 37.648 442.016 36.9227 442.911 36.368C443.85 35.8133 445.024 35.536 446.432 35.536C447.669 35.536 448.714 35.8133 449.568 36.368C450.421 36.9227 450.848 37.648 450.848 38.544V40.912C451.53 39.376 452.576 38.032 453.984 36.88C455.434 35.728 456.928 35.152 458.464 35.152H460.32C461.258 35.152 462.069 35.5787 462.752 36.432C463.477 37.2853 463.84 38.288 463.84 39.44C463.84 40.6347 463.477 41.6587 462.752 42.512C462.069 43.3653 461.258 43.792 460.32 43.792H458.464C456.629 43.792 455.008 44.688 453.6 46.48C452.192 48.2293 451.488 50.512 451.488 53.328V62.928C451.488 63.696 450.976 64.4 449.952 65.04C448.97 65.68 447.797 66 446.432 66C445.066 66 443.914 65.7013 442.976 65.104C442.037 64.464 441.568 63.7387 441.568 62.928ZM467.331 62.928V21.136C467.331 20.24 467.779 19.5147 468.675 18.96C469.614 18.4053 470.808 18.128 472.259 18.128C473.667 18.128 474.84 18.4053 475.779 18.96C476.76 19.5147 477.251 20.24 477.251 21.136V62.928C477.251 63.696 476.76 64.4 475.779 65.04C474.798 65.68 473.624 66 472.259 66C470.851 66 469.678 65.7013 468.739 65.104C467.8 64.464 467.331 63.7387 467.331 62.928ZM482.48 53.072V48.592C482.48 44.9227 483.589 41.7653 485.808 39.12C488.026 36.4747 490.693 35.152 493.808 35.152C495.642 35.152 497.264 35.6213 498.672 36.56C500.122 37.4987 501.21 38.6507 501.936 40.016V21.136C501.936 20.24 502.405 19.5147 503.344 18.96C504.325 18.4053 505.541 18.128 506.992 18.128C508.4 18.128 509.552 18.4053 510.448 18.96C511.386 19.5147 511.856 20.24 511.856 21.136V62.928C511.856 63.7387 511.386 64.464 510.448 65.104C509.509 65.7013 508.357 66 506.992 66C505.797 66 504.752 65.68 503.856 65.04C503.002 64.4 502.576 63.696 502.576 62.928V61.52C501.893 62.928 500.72 64.144 499.056 65.168C497.392 66.1493 495.578 66.64 493.616 66.64C490.672 66.64 488.069 65.2747 485.808 62.544C483.589 59.8133 482.48 56.656 482.48 53.072ZM492.4 53.072C492.4 54.352 492.848 55.504 493.744 56.528C494.682 57.5093 495.77 58 497.008 58C498.245 58 499.376 57.488 500.4 56.464C501.424 55.44 501.936 54.5867 501.936 53.904V48.592C501.936 47.184 501.424 46.032 500.4 45.136C499.418 44.24 498.309 43.792 497.072 43.792C495.792 43.792 494.682 44.2827 493.744 45.264C492.848 46.2453 492.4 47.3547 492.4 48.592V53.072Z" fill="#4F7670"/>
<rect x="514" y="32" width="160" height="16" fill="#F4CABB"/>
</svg>
