<svg width="120" height="120" viewBox="0 0 120 120" fill="none" xmlns="http://www.w3.org/2000/svg">
<g clip-path="url(#clip0)">
<path d="M119.936 75.0991C119.637 68.2237 118.441 60.601 116.648 53.4267C114.854 46.5513 112.612 40.1243 109.922 35.1919C99.4592 16.8077 88.0999 19.6475 74.4985 23.2347C70.164 24.281 65.5306 25.4767 60.7477 25.9251H59.2531C54.4702 25.4767 49.8368 24.281 45.5023 23.2347C31.901 19.797 20.5416 16.8077 10.079 35.3414C7.38866 40.2737 4.99722 46.7008 3.3531 53.5762C1.55952 60.7505 0.363796 68.3732 0.0648653 75.2486C-0.234065 82.8713 0.513261 88.4016 2.15738 92.2877C3.8015 95.8748 6.19294 98.1168 9.33171 99.0136C12.1715 99.7609 15.4598 99.462 18.8975 97.9673C24.7266 95.5759 31.4526 90.4941 38.029 84.366C42.6624 79.882 51.3314 77.6401 60.0004 77.6401C68.6694 77.6401 77.3384 79.882 81.9718 84.366C88.5483 90.4941 95.2742 95.5759 101.103 97.9673C104.541 99.3125 107.829 99.7609 110.669 99.0136C113.658 98.1168 116.199 96.0243 117.843 92.1382C119.488 88.4016 120.235 82.8713 119.936 75.0991ZM112.762 90.0457C111.865 92.1382 110.669 93.3339 109.174 93.7823C107.53 94.2307 105.438 93.9318 103.046 93.035C97.8151 90.9425 91.687 86.309 85.7084 80.6294C80.0287 74.9497 70.0146 72.1098 60.0004 72.1098C49.9862 72.1098 39.9721 74.9497 34.1429 80.3304C28.0149 86.0101 21.8868 90.793 16.805 92.736C14.4135 93.6328 12.321 94.0812 10.6769 93.4834C9.18224 93.035 7.98652 91.8392 7.08973 89.7467C5.89401 86.9069 5.29615 82.2735 5.59508 75.3981C5.89401 68.9711 6.94026 61.6473 8.73385 54.7719C10.378 48.3449 12.4705 42.3663 15.0114 37.8823C23.232 23.0852 32.7977 25.4767 44.1571 28.466C48.7905 29.6617 53.5734 30.8574 58.8047 31.3058C58.9542 31.3058 58.9542 31.3058 59.1036 31.3058H60.7477C60.8972 31.3058 60.8972 31.3058 61.0467 31.3058C66.4274 30.8574 71.2103 29.6617 75.8437 28.466C87.2031 25.6262 96.7688 23.0852 104.989 37.8823C107.53 42.3663 109.623 48.1954 111.267 54.7719C112.911 61.6473 114.107 68.8216 114.406 75.3981C114.705 82.2735 114.107 86.9069 112.762 90.0457Z" fill="black"/>
<path d="M46.2493 45.9535C44.7547 44.6083 42.9611 43.562 40.8686 43.4126C40.7191 41.4695 39.8223 39.5265 38.4771 38.1813L38.3276 38.0318C36.6835 36.3877 34.591 35.4909 32.1996 35.4909C29.8081 35.4909 27.5662 36.5372 26.0715 38.0318C24.7263 39.377 23.6801 41.32 23.5306 43.4126C21.4381 43.562 19.6445 44.4588 18.1498 45.804L18.0004 45.9535C16.3563 47.5976 15.4595 49.6901 15.4595 52.0815C15.4595 54.473 16.5057 56.715 18.0004 58.2096C19.495 59.7043 21.2886 60.6011 23.5306 60.7505C23.6801 62.843 24.5769 64.7861 26.0715 66.1313C27.7156 67.7754 29.8081 68.6722 32.1996 68.6722C34.591 68.6722 36.833 67.6259 38.3276 66.1313C39.6728 64.6366 40.7191 62.843 40.8686 60.7505C42.9611 60.6011 44.9041 59.7043 46.2493 58.2096C47.8934 56.5655 48.7902 54.473 48.7902 52.0815C48.7902 49.6901 47.744 47.4481 46.2493 45.9535ZM42.5127 54.3235C41.9148 54.9214 41.1675 55.2203 40.2707 55.2203H38.1782C36.6835 55.2203 35.3383 56.416 35.3383 58.0601V60.0032C35.3383 60.9 35.0394 61.6473 34.4416 62.2452C33.8437 62.843 33.0964 63.142 32.1996 63.142C31.3028 63.142 30.5555 62.843 29.9576 62.2452C29.3597 61.6473 29.0608 60.9 29.0608 60.0032V57.9107C29.0608 56.416 27.8651 55.0708 26.221 55.0708H24.1285C23.2317 55.0708 22.4843 54.7719 21.8865 54.1741C21.4381 53.7257 20.9897 52.9783 20.9897 52.0815C20.9897 51.1847 21.2886 50.4374 21.8865 49.8396C21.8865 49.8396 21.8865 49.8396 22.0359 49.6901C22.6338 49.2417 23.3811 48.9428 24.1285 48.9428H26.221C27.7156 48.9428 29.0608 47.747 29.0608 46.1029V44.0104C29.0608 43.1136 29.3597 42.3663 29.9576 41.7684C30.5555 41.1706 31.3028 40.8716 32.1996 40.8716C33.0964 40.8716 33.8437 41.1706 34.4416 41.7684C34.4416 41.7684 34.4416 41.7684 34.591 41.9179C35.0394 42.5158 35.3383 43.2631 35.3383 44.0104V46.1029C35.3383 47.5976 36.5341 48.9428 38.1782 48.9428H40.2707C41.1675 48.9428 41.9148 49.2417 42.5127 49.8396C43.1105 50.4374 43.4095 51.1847 43.4095 52.0815C43.4095 52.9783 43.1105 53.7257 42.5127 54.3235Z" fill="black"/>
<path d="M86.0072 46.7008C88.8963 46.7008 91.2384 44.3587 91.2384 41.4695C91.2384 38.5803 88.8963 36.2382 86.0072 36.2382C83.118 36.2382 80.7759 38.5803 80.7759 41.4695C80.7759 44.3587 83.118 46.7008 86.0072 46.7008Z" fill="black"/>
<path d="M86.0072 67.9248C88.8963 67.9248 91.2384 65.5827 91.2384 62.6936C91.2384 59.8044 88.8963 57.4623 86.0072 57.4623C83.118 57.4623 80.7759 59.8044 80.7759 62.6936C80.7759 65.5827 83.118 67.9248 86.0072 67.9248Z" fill="black"/>
<path d="M75.3951 57.3128C78.2843 57.3128 80.6264 54.9707 80.6264 52.0815C80.6264 49.1923 78.2843 46.8502 75.3951 46.8502C72.5059 46.8502 70.1638 49.1923 70.1638 52.0815C70.1638 54.9707 72.5059 57.3128 75.3951 57.3128Z" fill="black"/>
<path d="M96.6192 57.3128C99.5084 57.3128 101.851 54.9707 101.851 52.0815C101.851 49.1923 99.5084 46.8502 96.6192 46.8502C93.7301 46.8502 91.3879 49.1923 91.3879 52.0815C91.3879 54.9707 93.7301 57.3128 96.6192 57.3128Z" fill="black"/>
</g>
<defs>
<clipPath id="clip0">
<rect width="120" height="120" fill="white"/>
</clipPath>
</defs>
</svg>
