<svg width="120" height="120" viewBox="0 0 120 120" fill="none" xmlns="http://www.w3.org/2000/svg">
<g clip-path="url(#clip0)">
<path d="M75.1967 87.9462H89.5642C90.0693 87.9462 90.4815 87.5322 90.4815 87.0289V75.0116C94.662 74.5458 97.9374 71.0308 97.9374 66.7265C97.9374 62.1085 94.1808 58.3553 89.5642 58.3553C84.9455 58.3553 81.1951 62.1119 81.1951 66.7265C81.1951 71.0308 84.4678 74.5458 88.6472 75.0116V86.1116H76.114V56.7606C76.114 56.5097 76.0103 56.2668 75.8294 56.0948L63.9057 44.7822C63.574 44.4724 63.0689 44.4464 62.7147 44.7215L56.8215 49.2838C56.832 49.2268 56.8566 49.1757 56.8566 49.1166V25.5753C56.8566 25.0692 56.4437 24.658 55.9393 24.658H26.889C26.3823 24.658 25.9717 25.0692 25.9717 25.5753V44.5304H13.1311C12.6243 44.5304 12.2137 44.9416 12.2137 45.4477V87.0285C12.2137 87.5322 12.6243 87.9459 13.1311 87.9459H28.1128C28.3582 87.9459 28.595 87.8448 28.7643 87.6745C28.938 87.4991 29.0318 87.2609 29.0301 87.019L28.7383 69.8497C33.3467 69.5207 37.0075 65.7081 37.0075 61.0165C37.0075 56.1125 33.0178 52.1211 28.1131 52.1211C23.2075 52.1211 19.2144 56.1108 19.2144 61.0165C19.2144 65.5078 22.5714 69.1907 26.9003 69.7893L27.1771 86.1163H14.048V46.3647H44.3159V87.0285C44.3159 87.5322 44.7261 87.9459 45.2332 87.9459H50.7368C51.2411 87.9459 51.6541 87.5319 51.6541 87.0285V55.603L63.2085 46.6568L74.276 57.1571V87.0306C74.2794 87.5353 74.6879 87.9462 75.1967 87.9462ZM50.1747 54.425C49.9508 54.5997 49.8212 54.8676 49.8212 55.1515V86.1112H46.1523V45.4477C46.1523 44.9416 45.7393 44.5304 45.2349 44.5304H27.8081V26.4922H55.0179V49.1163C55.0179 49.5988 55.3933 49.9838 55.867 50.0206L50.1747 54.425Z" fill="black"/>
<path d="M94.3968 32.3002C94.3968 25.5899 88.9329 20.1307 82.226 20.1307C75.5155 20.1307 70.0519 25.5899 70.0519 32.3002C70.0519 39.0108 75.5155 44.472 82.226 44.472C88.9332 44.474 94.3968 39.0108 94.3968 32.3002Z" fill="black"/>
<path d="M119.083 90.6974C118.578 90.6974 118.165 91.1107 118.165 91.6144C118.165 95.1601 115.289 98.0349 111.746 98.0349C108.205 98.0349 105.325 95.1598 105.325 91.6144C105.325 91.1107 104.917 90.6974 104.408 90.6974C103.903 90.6974 103.49 91.1107 103.49 91.6144C103.49 95.1601 100.614 98.0349 97.0699 98.0349C93.5304 98.0349 90.6501 95.1598 90.6501 91.6144C90.6501 91.1107 90.2416 90.6974 89.7328 90.6974C89.6789 90.6974 89.6318 90.7241 89.5823 90.7316C89.5321 90.7244 89.482 90.6974 89.428 90.6974C88.923 90.6974 88.5107 91.1107 88.5107 91.6144C88.5107 95.1601 85.6339 98.0349 82.0902 98.0349C78.5507 98.0349 75.6704 95.1598 75.6704 91.6144C75.6704 91.1107 75.2619 90.6974 74.7531 90.6974C74.248 90.6974 73.8358 91.1107 73.8358 91.6144C73.8358 95.1601 70.9583 98.0349 67.4153 98.0349C63.8757 98.0349 60.9948 95.1598 60.9948 91.6144C60.9948 91.1107 60.5829 90.6974 60.0775 90.6974C60.0502 90.6974 60.028 90.7135 60.001 90.7135C59.9748 90.7135 59.9512 90.6974 59.9236 90.6974C59.4175 90.6974 59.0063 91.1107 59.0063 91.6144C59.0063 95.1601 56.1267 98.0349 52.5861 98.0349C49.0452 98.0349 46.1656 95.1598 46.1656 91.6144C46.1656 91.1107 45.7547 90.6974 45.2483 90.6974C44.7422 90.6974 44.3313 91.1107 44.3313 91.6144C44.3313 95.1601 41.4514 98.0349 37.9108 98.0349C34.3702 98.0349 31.4906 95.1598 31.4906 91.6144C31.4906 91.1107 31.0794 90.6974 30.5733 90.6974C30.5187 90.6974 30.472 90.7241 30.4211 90.7316C30.3703 90.7244 30.3218 90.6974 30.2689 90.6974C29.7628 90.6974 29.3516 91.1107 29.3516 91.6144C29.3516 95.1601 26.472 98.0349 22.9311 98.0349C19.3905 98.0349 16.5109 95.1598 16.5109 91.6144C16.5109 91.1107 16.0997 90.6974 15.5936 90.6974C15.0875 90.6974 14.6763 91.1107 14.6763 91.6144C14.6763 95.1601 11.7967 98.0349 8.25615 98.0349C4.71522 98.0349 1.83565 95.1598 1.83565 91.6144C1.83565 91.1107 1.42443 90.6974 0.918336 90.6974C0.412244 90.6974 0 91.1107 0 91.6144C0 96.1631 3.70372 99.8692 8.25479 99.8692C11.4685 99.8692 14.2289 98.0046 15.5923 95.3212C16.9556 98.0083 19.7157 99.8692 22.9297 99.8692C26.2574 99.8692 29.1155 97.8807 30.4198 95.0359C31.7237 97.8807 34.5821 99.8692 37.9098 99.8692C41.1234 99.8692 43.8842 98.0046 45.2472 95.3212C46.6106 98.0083 49.3711 99.8692 52.5851 99.8692C55.8561 99.8692 58.6626 97.9421 60.0003 95.1741C61.3343 97.9452 64.1419 99.8692 67.4146 99.8692C70.63 99.8692 73.3908 98.0046 74.7528 95.3212C76.1175 98.0083 78.8762 99.8692 82.0899 99.8692C85.4223 99.8692 88.2777 97.8807 89.582 95.0359C90.8856 97.8807 93.7454 99.8692 97.0696 99.8692C100.284 99.8692 103.046 98.0046 104.407 95.3212C105.772 98.0083 108.531 99.8692 111.746 99.8692C116.296 99.8692 120 96.1631 120 91.6144C120 91.1073 119.592 90.6974 119.083 90.6974Z" fill="black"/>
</g>
<defs>
<clipPath id="clip0">
<rect width="120" height="120" fill="white"/>
</clipPath>
</defs>
</svg>
