<svg width="190" height="30" viewBox="0 0 190 30" fill="none" xmlns="http://www.w3.org/2000/svg">
<path d="M4.976 29C3.584 29 2.504 28.604 1.736 27.812C0.992 26.996 0.62 25.88 0.62 24.464V9.74H6.956V22.952C6.956 23.504 7.064 23.888 7.28 24.104C7.496 24.32 7.868 24.428 8.396 24.428H9.656V29H4.976ZM22.1986 29.54C20.1586 29.54 18.3706 29.192 16.8346 28.496C15.2986 27.776 14.1106 26.78 13.2706 25.508C12.4306 24.236 12.0106 22.796 12.0106 21.188V9.74H18.3466V20.648C18.3466 21.944 18.6466 22.928 19.2466 23.6C19.8706 24.272 20.8546 24.608 22.1986 24.608C24.7666 24.608 26.0506 23.288 26.0506 20.648V3.296H32.3866V21.188C32.3866 22.796 31.9666 24.236 31.1266 25.508C30.2866 26.78 29.0986 27.776 27.5626 28.496C26.0266 29.192 24.2386 29.54 22.1986 29.54ZM10.3285 3.62H23.9725V7.58H10.3285V3.62ZM44.7436 29.54C41.7436 29.54 39.3556 28.736 37.5796 27.128C35.8036 25.52 34.9156 23.132 34.9156 19.964C34.9156 17.732 35.3836 15.812 36.3196 14.204C37.2556 12.596 38.5876 11.36 40.3156 10.496C42.0436 9.632 44.0956 9.2 46.4716 9.2C50.2156 9.2 52.9756 10.064 54.7516 11.792C56.5516 13.496 57.4516 15.788 57.4516 18.668V29H51.1156V18.632C51.1156 17.168 50.7556 16.052 50.0356 15.284C49.3156 14.516 48.1276 14.132 46.4716 14.132C44.9596 14.132 43.7356 14.636 42.7996 15.644C41.8876 16.652 41.4316 18.092 41.4316 19.964C41.4316 21.596 41.8036 22.784 42.5476 23.528C43.3156 24.248 44.4556 24.608 45.9676 24.608C46.7836 24.608 47.5876 24.464 48.3796 24.176V29.036C47.2996 29.372 46.0876 29.54 44.7436 29.54ZM68.226 29.54C66.762 29.54 65.274 29.396 63.762 29.108C62.25 28.844 61.062 28.448 60.198 27.92V23.168C61.23 23.768 62.406 24.248 63.726 24.608C65.07 24.968 66.27 25.148 67.326 25.148C68.43 25.148 69.246 25.052 69.774 24.86C70.302 24.644 70.566 24.284 70.566 23.78C70.566 23.324 70.314 22.964 69.81 22.7C69.306 22.436 68.37 22.088 67.002 21.656L65.886 21.296C63.846 20.624 62.346 19.844 61.386 18.956C60.45 18.044 59.982 16.796 59.982 15.212C59.982 13.292 60.75 11.816 62.286 10.784C63.822 9.728 65.874 9.2 68.442 9.2C69.882 9.2 71.274 9.344 72.618 9.632C73.962 9.92 75.042 10.292 75.858 10.748V15.572C75.09 15.044 74.118 14.612 72.942 14.276C71.79 13.94 70.686 13.772 69.63 13.772C67.518 13.772 66.462 14.252 66.462 15.212C66.462 15.692 66.726 16.064 67.254 16.328C67.806 16.592 68.706 16.904 69.954 17.264L71.322 17.696C73.506 18.368 75.006 19.196 75.822 20.18C76.638 21.14 77.046 22.376 77.046 23.888C77.046 25.592 76.302 26.96 74.814 27.992C73.35 29.024 71.154 29.54 68.226 29.54ZM68.7809 7.58C66.3329 7.58 65.1089 6.416 65.1089 4.088V0.883999H70.7609V2.792C70.7609 3.104 70.8329 3.32 70.9769 3.44C71.0969 3.56 71.3129 3.62 71.6249 3.62H79.4729V7.58H68.7809ZM89.7689 29.54C87.7289 29.54 85.9409 29.192 84.4049 28.496C82.8689 27.776 81.6809 26.78 80.8409 25.508C80.0009 24.236 79.5809 22.796 79.5809 21.188V9.74H85.9169V20.648C85.9169 21.944 86.2169 22.928 86.8169 23.6C87.4409 24.272 88.4249 24.608 89.7689 24.608C92.3369 24.608 93.6209 23.288 93.6209 20.648V9.74H99.9569V21.188C99.9569 22.796 99.5369 24.236 98.6969 25.508C97.8569 26.78 96.6689 27.776 95.1329 28.496C93.5969 29.192 91.8089 29.54 89.7689 29.54ZM109.506 29.54C107.346 29.54 105.63 29.012 104.358 27.956C103.11 26.876 102.486 25.316 102.486 23.276C102.486 21.188 103.194 19.568 104.61 18.416C106.05 17.24 108.006 16.652 110.478 16.652C111.534 16.652 112.578 16.748 113.61 16.94C114.666 17.132 115.578 17.396 116.346 17.732V17.12C116.346 16.016 115.95 15.2 115.158 14.672C114.366 14.12 113.058 13.844 111.234 13.844C110.058 13.844 108.882 13.976 107.706 14.24C106.53 14.48 105.498 14.804 104.61 15.212V10.604C105.426 10.196 106.542 9.86 107.958 9.596C109.374 9.332 110.85 9.2 112.386 9.2C113.97 9.2 115.302 9.38 116.382 9.74L117.57 8.3H124.41L120.918 12.296C121.518 12.872 121.962 13.628 122.25 14.564C122.538 15.476 122.682 16.436 122.682 17.444V29H116.346V22.088C115.098 21.44 113.682 21.116 112.098 21.116C111.018 21.116 110.226 21.296 109.722 21.656C109.242 21.992 109.002 22.532 109.002 23.276C109.002 24.644 109.926 25.328 111.774 25.328C112.494 25.328 113.13 25.208 113.682 24.968V29.036C112.674 29.372 111.282 29.54 109.506 29.54ZM138.65 29.54C137.474 29.54 136.334 29.324 135.23 28.892C134.126 28.436 133.178 27.812 132.386 27.02V29H126.374V9.74H132.71V22.34C133.166 23.108 133.706 23.684 134.33 24.068C134.954 24.428 135.71 24.608 136.598 24.608C137.63 24.608 138.422 24.356 138.974 23.852C139.526 23.348 139.802 22.592 139.802 21.584V9.74H146.138V21.98C146.138 23.42 145.85 24.716 145.274 25.868C144.698 26.996 143.846 27.896 142.718 28.568C141.59 29.216 140.234 29.54 138.65 29.54ZM138.566 7.58C136.118 7.58 134.894 6.416 134.894 4.088V0.883999H140.546V2.792C140.546 3.104 140.618 3.32 140.762 3.44C140.882 3.56 141.098 3.62 141.41 3.62H149.258V7.58H138.566ZM149.366 17.516C149.366 14.78 150.29 12.716 152.138 11.324C153.986 9.908 156.47 9.2 159.59 9.2C162.734 9.2 165.218 9.908 167.042 11.324C168.89 12.716 169.814 14.78 169.814 17.516V29H163.478V17.624C163.478 15.296 162.182 14.132 159.59 14.132C156.998 14.132 155.702 15.296 155.702 17.624V19.928C156.014 19.592 156.422 19.328 156.926 19.136C157.43 18.92 157.97 18.812 158.546 18.812H161.21V23.384H158.294C157.526 23.384 156.902 23.612 156.422 24.068C155.942 24.5 155.702 25.112 155.702 25.904V29H149.366V17.516ZM180.585 29.54C179.121 29.54 177.633 29.396 176.121 29.108C174.609 28.844 173.421 28.448 172.557 27.92V23.168C173.589 23.768 174.765 24.248 176.085 24.608C177.429 24.968 178.629 25.148 179.685 25.148C180.789 25.148 181.605 25.052 182.133 24.86C182.661 24.644 182.925 24.284 182.925 23.78C182.925 23.324 182.673 22.964 182.169 22.7C181.665 22.436 180.729 22.088 179.361 21.656L178.245 21.296C176.205 20.624 174.705 19.844 173.745 18.956C172.809 18.044 172.341 16.796 172.341 15.212C172.341 13.292 173.109 11.816 174.645 10.784C176.181 9.728 178.233 9.2 180.801 9.2C182.241 9.2 183.633 9.344 184.977 9.632C186.321 9.92 187.401 10.292 188.217 10.748V15.572C187.449 15.044 186.477 14.612 185.301 14.276C184.149 13.94 183.045 13.772 181.989 13.772C179.877 13.772 178.821 14.252 178.821 15.212C178.821 15.692 179.085 16.064 179.613 16.328C180.165 16.592 181.065 16.904 182.313 17.264L183.681 17.696C185.865 18.368 187.365 19.196 188.181 20.18C188.997 21.14 189.405 22.376 189.405 23.888C189.405 25.592 188.661 26.96 187.173 27.992C185.709 29.024 183.513 29.54 180.585 29.54Z" fill="#E2928D"/>
</svg>
