<svg width="244" height="24" viewBox="0 0 244 24" fill="none" xmlns="http://www.w3.org/2000/svg">
<path d="M5.544 23.36C4.52 23.36 3.584 23.272 2.736 23.096C1.888 22.92 1.176 22.656 0.6 22.304V19.04C1.608 19.728 2.944 20.072 4.608 20.072C5.824 20.072 6.768 19.792 7.44 19.232C8.128 18.656 8.472 17.776 8.472 16.592C8.472 15.408 8.128 14.528 7.44 13.952C6.768 13.376 5.824 13.088 4.608 13.088C2.976 13.088 1.672 13.432 0.696 14.12V10.856C1.256 10.52 1.96 10.264 2.808 10.088C3.672 9.896 4.584 9.8 5.544 9.8C7.832 9.8 9.616 10.392 10.896 11.576C12.176 12.76 12.816 14.432 12.816 16.592C12.816 18.736 12.176 20.4 10.896 21.584C9.616 22.768 7.832 23.36 5.544 23.36ZM7.28625 8.72C5.65425 8.72 4.83825 7.944 4.83825 6.392V4.256H8.60625V5.528C8.60625 5.736 8.65425 5.88 8.75025 5.96C8.83025 6.04 8.97425 6.08 9.18225 6.08H14.4143V8.72H7.28625ZM19.4783 23.36C18.4223 23.36 17.5183 23.144 16.7663 22.712C16.0143 22.264 15.4463 21.664 15.0623 20.912C14.6783 20.144 14.4863 19.28 14.4863 18.32V10.16H18.7103V18.056C18.7103 18.728 18.8943 19.232 19.2623 19.568C19.6303 19.904 20.1583 20.072 20.8463 20.072C21.4383 20.072 21.9423 19.952 22.3583 19.712C22.7743 19.456 23.1343 19.072 23.4383 18.56V10.16H27.6623V23H23.6543V21.68C23.1263 22.208 22.4943 22.624 21.7583 22.928C21.0223 23.216 20.2623 23.36 19.4783 23.36ZM29.8144 10.16H33.8224V11.504C34.3664 10.96 35.0144 10.544 35.7664 10.256C36.5344 9.952 37.3024 9.8 38.0704 9.8C39.7024 9.8 40.9264 10.232 41.7424 11.096C42.5744 11.96 42.9904 13.112 42.9904 14.552V23H38.7664V15.032C38.7664 13.736 38.1024 13.088 36.7744 13.088C36.1984 13.088 35.6704 13.216 35.1904 13.472C34.7264 13.712 34.3424 14.088 34.0384 14.6V23H29.8144V10.16ZM31.4865 6.08H39.1425V3.56H42.9585V8.72H31.4865V6.08ZM39.1185 0.359998H42.9345V3.84H39.1185V0.359998ZM52.8188 20.576L55.4828 18.152L56.6348 17.12C57.5788 16.288 58.2988 15.624 58.7948 15.128C59.3068 14.632 59.7228 14.128 60.0428 13.616C60.3788 13.104 60.5468 12.6 60.5468 12.104C60.5468 10.616 59.7068 9.872 58.0268 9.872C57.2108 9.872 56.4028 10.016 55.6028 10.304C54.8188 10.592 54.0908 10.992 53.4188 11.504V7.448C54.1388 6.952 54.9788 6.568 55.9388 6.296C56.8988 6.008 57.9228 5.864 59.0108 5.864C60.2588 5.864 61.3388 6.096 62.2508 6.56C63.1628 7.024 63.8588 7.664 64.3387 8.48C64.8188 9.296 65.0588 10.216 65.0588 11.24C65.0588 12.472 64.7708 13.552 64.1948 14.48C63.6348 15.392 62.7228 16.424 61.4588 17.576L59.3228 19.52H65.5868V23H52.8188V20.576ZM74.5155 23.36C72.9635 23.36 71.6035 23.016 70.4355 22.328C69.2675 21.624 68.3635 20.616 67.7235 19.304C67.0995 17.992 66.7875 16.432 66.7875 14.624C66.7875 12.816 67.0995 11.256 67.7235 9.944C68.3475 8.632 69.2355 7.624 70.3875 6.92C71.5555 6.216 72.9315 5.864 74.5155 5.864C76.0995 5.864 77.4675 6.216 78.6195 6.92C79.7875 7.624 80.6835 8.632 81.3075 9.944C81.9315 11.256 82.2435 12.816 82.2435 14.624C82.2435 16.432 81.9235 17.992 81.2835 19.304C80.6595 20.616 79.7635 21.624 78.5955 22.328C77.4275 23.016 76.0675 23.36 74.5155 23.36ZM74.5155 19.376C75.5875 19.376 76.4195 18.96 77.0115 18.128C77.6035 17.296 77.8995 16.144 77.8995 14.672C77.8995 13.184 77.6035 12.016 77.0115 11.168C76.4355 10.304 75.6035 9.872 74.5155 9.872C73.4275 9.872 72.5875 10.304 71.9955 11.168C71.4195 12.016 71.1315 13.184 71.1315 14.672C71.1315 16.144 71.4275 17.296 72.0195 18.128C72.6115 18.96 73.4435 19.376 74.5155 19.376ZM92.6878 15.512L91.4878 13.424C93.4398 11.008 95.9278 9.8 98.9518 9.8C101.08 9.8 102.72 10.272 103.872 11.216C105.024 12.144 105.6 13.432 105.6 15.08V23H101.376V15.416C101.376 13.864 100.568 13.088 98.9518 13.088C97.7678 13.088 96.7918 13.416 96.0238 14.072L96.9118 15.584V23H92.6878V15.512ZM100.567 8.72C98.9355 8.72 98.1195 7.944 98.1195 6.392V4.256H101.887V5.528C101.887 5.736 101.935 5.88 102.031 5.96C102.111 6.04 102.255 6.08 102.463 6.08H107.696V8.72H100.567ZM112.76 23.36C111.704 23.36 110.8 23.144 110.048 22.712C109.296 22.264 108.728 21.664 108.344 20.912C107.96 20.144 107.768 19.28 107.768 18.32V10.16H111.992V18.056C111.992 18.728 112.176 19.232 112.544 19.568C112.912 19.904 113.44 20.072 114.128 20.072C114.72 20.072 115.224 19.952 115.64 19.712C116.056 19.456 116.416 19.072 116.72 18.56V10.16H120.944V23H116.936V21.68C116.408 22.208 115.776 22.624 115.04 22.928C114.304 23.216 113.544 23.36 112.76 23.36ZM129.48 23.36C127.384 23.36 125.712 23.008 124.464 22.304C123.232 21.584 122.616 20.528 122.616 19.136C122.616 18.528 122.768 17.992 123.072 17.528C123.376 17.048 123.792 16.68 124.32 16.424C123.84 16.152 123.448 15.768 123.144 15.272C122.856 14.76 122.712 14.208 122.712 13.616C122.712 12.464 123.128 11.544 123.96 10.856C124.808 10.152 126.032 9.8 127.632 9.8C128.096 9.8 128.576 9.84 129.072 9.92C129.568 9.984 129.944 10.056 130.2 10.136V13.208C129.976 13.096 129.704 13.008 129.384 12.944C129.08 12.88 128.8 12.848 128.544 12.848C127.552 12.848 127.056 13.216 127.056 13.952C127.056 14.72 127.56 15.104 128.568 15.104H130.2V17.744H128.568C127.496 17.744 126.96 18.152 126.96 18.968C126.96 19.896 127.8 20.36 129.48 20.36C130.472 20.36 131.2 20.16 131.664 19.76C132.128 19.344 132.36 18.728 132.36 17.912V10.136H136.584V17.888C136.584 18.8 136.344 19.672 135.864 20.504C135.384 21.336 134.616 22.024 133.56 22.568C132.504 23.096 131.144 23.36 129.48 23.36ZM142.352 15.224C142.352 14.504 142.184 13.968 141.848 13.616C141.528 13.264 140.968 13.088 140.168 13.088C139.384 13.088 138.592 13.288 137.792 13.688V10.52C138.16 10.328 138.672 10.16 139.328 10.016C140 9.872 140.64 9.8 141.248 9.8C142.976 9.8 144.296 10.256 145.208 11.168C146.12 12.064 146.576 13.368 146.576 15.08V23H142.352V15.224ZM155.12 23.36C153.024 23.36 151.352 23.008 150.104 22.304C148.872 21.584 148.256 20.528 148.256 19.136C148.256 18.528 148.408 17.992 148.712 17.528C149.016 17.048 149.432 16.68 149.96 16.424C149.48 16.152 149.088 15.768 148.784 15.272C148.496 14.76 148.352 14.208 148.352 13.616C148.352 12.464 148.768 11.544 149.6 10.856C150.448 10.152 151.672 9.8 153.272 9.8C153.736 9.8 154.216 9.84 154.712 9.92C155.208 9.984 155.584 10.056 155.84 10.136V13.208C155.616 13.096 155.344 13.008 155.024 12.944C154.72 12.88 154.44 12.848 154.184 12.848C153.192 12.848 152.696 13.216 152.696 13.952C152.696 14.72 153.2 15.104 154.208 15.104H155.84V17.744H154.208C153.136 17.744 152.6 18.152 152.6 18.968C152.6 19.896 153.44 20.36 155.12 20.36C156.112 20.36 156.84 20.16 157.304 19.76C157.768 19.344 158 18.728 158 17.912V10.136H162.224V17.888C162.224 18.8 161.984 19.672 161.504 20.504C161.024 21.336 160.256 22.024 159.2 22.568C158.144 23.096 156.784 23.36 155.12 23.36ZM169.385 23.36C168.329 23.36 167.425 23.144 166.673 22.712C165.921 22.264 165.353 21.664 164.969 20.912C164.585 20.144 164.393 19.28 164.393 18.32V10.16H168.617V18.056C168.617 18.728 168.801 19.232 169.169 19.568C169.537 19.904 170.065 20.072 170.753 20.072C171.345 20.072 171.849 19.952 172.265 19.712C172.681 19.456 173.041 19.072 173.345 18.56V10.16H177.569V23H173.561V21.68C173.033 22.208 172.401 22.624 171.665 22.928C170.929 23.216 170.169 23.36 169.385 23.36ZM187.397 20.576L190.061 18.152L191.213 17.12C192.157 16.288 192.877 15.624 193.373 15.128C193.885 14.632 194.301 14.128 194.621 13.616C194.957 13.104 195.125 12.6 195.125 12.104C195.125 10.616 194.285 9.872 192.605 9.872C191.789 9.872 190.981 10.016 190.181 10.304C189.397 10.592 188.669 10.992 187.997 11.504V7.448C188.717 6.952 189.557 6.568 190.517 6.296C191.477 6.008 192.501 5.864 193.589 5.864C194.837 5.864 195.917 6.096 196.829 6.56C197.741 7.024 198.437 7.664 198.917 8.48C199.397 9.296 199.637 10.216 199.637 11.24C199.637 12.472 199.349 13.552 198.773 14.48C198.213 15.392 197.301 16.424 196.037 17.576L193.901 19.52H200.165V23H187.397V20.576ZM206.55 23.36C205.59 23.36 204.638 23.256 203.694 23.048C202.75 22.84 201.974 22.552 201.366 22.184V18.464C202.086 18.928 202.894 19.296 203.79 19.568C204.702 19.824 205.558 19.952 206.358 19.952C207.478 19.952 208.31 19.736 208.854 19.304C209.398 18.872 209.67 18.28 209.67 17.528C209.67 16.808 209.39 16.248 208.83 15.848C208.286 15.448 207.518 15.248 206.526 15.248C205.966 15.248 205.374 15.304 204.75 15.416C204.142 15.512 203.614 15.656 203.166 15.848L201.534 14.912L202.206 6.224H212.958V9.704H206.31L206.094 12.344C206.83 12.152 207.614 12.056 208.446 12.056C210.19 12.056 211.55 12.52 212.526 13.448C213.518 14.36 214.014 15.68 214.014 17.408C214.014 19.28 213.382 20.744 212.118 21.8C210.854 22.84 208.998 23.36 206.55 23.36ZM222.225 23.36C220.865 23.36 219.649 23.056 218.577 22.448C217.521 21.824 216.697 20.936 216.105 19.784C215.513 18.616 215.217 17.248 215.217 15.68C215.217 13.632 215.577 11.872 216.297 10.4C217.017 8.912 218.017 7.784 219.297 7.016C220.577 6.248 222.057 5.864 223.737 5.864C224.873 5.864 225.889 6.008 226.785 6.296V9.896C226.081 9.512 225.177 9.32 224.073 9.32C222.873 9.32 221.897 9.648 221.145 10.304C220.393 10.944 219.929 11.896 219.753 13.16C220.153 12.744 220.705 12.416 221.409 12.176C222.113 11.936 222.857 11.816 223.641 11.816C224.713 11.816 225.657 12.04 226.473 12.488C227.305 12.92 227.945 13.552 228.393 14.384C228.857 15.216 229.089 16.216 229.089 17.384C229.089 18.52 228.825 19.544 228.297 20.456C227.785 21.352 227.009 22.064 225.969 22.592C224.945 23.104 223.697 23.36 222.225 23.36ZM222.297 20.072C223.001 20.072 223.593 19.832 224.073 19.352C224.553 18.872 224.793 18.288 224.793 17.6C224.793 16.896 224.553 16.304 224.073 15.824C223.593 15.344 223.001 15.104 222.297 15.104C221.609 15.104 221.025 15.352 220.545 15.848C220.065 16.328 219.825 16.912 219.825 17.6C219.825 18.288 220.065 18.872 220.545 19.352C221.025 19.832 221.609 20.072 222.297 20.072ZM230.288 20.576L232.952 18.152L234.104 17.12C235.048 16.288 235.768 15.624 236.264 15.128C236.776 14.632 237.192 14.128 237.512 13.616C237.848 13.104 238.016 12.6 238.016 12.104C238.016 10.616 237.176 9.872 235.496 9.872C234.68 9.872 233.872 10.016 233.072 10.304C232.288 10.592 231.56 10.992 230.888 11.504V7.448C231.608 6.952 232.448 6.568 233.408 6.296C234.368 6.008 235.392 5.864 236.48 5.864C237.728 5.864 238.808 6.096 239.72 6.56C240.632 7.024 241.328 7.664 241.807 8.48C242.288 9.296 242.528 10.216 242.528 11.24C242.528 12.472 242.24 13.552 241.664 14.48C241.104 15.392 240.192 16.424 238.928 17.576L236.792 19.52H243.056V23H230.288V20.576Z" fill="#4F766F"/>
</svg>
