<svg width="97" height="100" viewBox="0 0 97 100" fill="none" xmlns="http://www.w3.org/2000/svg">
<g clip-path="url(#clip0)">
<path d="M48.5089 0C34.8794 0 22.5961 5.98621 13.8853 15.5218C13.8236 15.577 13.7464 15.5965 13.6881 15.6571C13.5955 15.7532 13.5629 15.8814 13.4771 15.9846C5.59985 24.8295 0.741089 36.6115 0.741089 49.5772C0.741089 76.9129 22.1673 99.1525 48.5072 99.1525C74.8437 99.1525 96.2734 76.9129 96.2734 49.5772C96.2751 22.2396 74.8454 0 48.5089 0ZM8.43999 49.5754C8.43999 40.1146 11.5357 31.4067 16.6826 24.4094L72.7496 82.6055C66.0094 87.9473 57.6245 91.1602 48.5072 91.1602C26.4138 91.1602 8.43999 72.5038 8.43999 49.5754ZM78.4025 77.1675L21.9204 18.5514C29.0036 12.0045 38.3009 7.98874 48.5089 7.98874C70.6006 7.98874 88.5762 26.6434 88.5762 49.5754C88.5745 60.1701 84.707 69.8213 78.4025 77.1675Z" fill="#E2928D"/>
</g>
<defs>
<clipPath id="clip0">
<rect width="95.5357" height="99.1525" fill="white" transform="translate(0.741089)"/>
</clipPath>
</defs>
</svg>
