<svg width="181" height="30" viewBox="0 0 181 30" fill="none" xmlns="http://www.w3.org/2000/svg">
<path d="M12.808 29.54C10.768 29.54 8.98 29.192 7.444 28.496C5.908 27.776 4.72 26.78 3.88 25.508C3.04 24.236 2.62 22.796 2.62 21.188V9.74H8.956V20.648C8.956 21.944 9.256 22.928 9.856 23.6C10.48 24.272 11.464 24.608 12.808 24.608C15.376 24.608 16.66 23.288 16.66 20.648V3.296H22.996V21.188C22.996 22.796 22.576 24.236 21.736 25.508C20.896 26.78 19.708 27.776 18.172 28.496C16.636 29.192 14.848 29.54 12.808 29.54ZM0.937844 3.62H14.5818V7.58H0.937844V3.62ZM35.353 29.54C32.353 29.54 29.965 28.736 28.189 27.128C26.413 25.52 25.525 23.132 25.525 19.964C25.525 17.732 25.993 15.812 26.929 14.204C27.865 12.596 29.197 11.36 30.925 10.496C32.653 9.632 34.705 9.2 37.081 9.2C40.825 9.2 43.585 10.064 45.361 11.792C47.161 13.496 48.061 15.788 48.061 18.668V29H41.725V18.632C41.725 17.168 41.365 16.052 40.645 15.284C39.925 14.516 38.737 14.132 37.081 14.132C35.569 14.132 34.345 14.636 33.409 15.644C32.497 16.652 32.041 18.092 32.041 19.964C32.041 21.596 32.413 22.784 33.157 23.528C33.925 24.248 35.065 24.608 36.577 24.608C37.393 24.608 38.197 24.464 38.989 24.176V29.036C37.909 29.372 36.697 29.54 35.353 29.54ZM58.8354 29.54C57.3714 29.54 55.8834 29.396 54.3714 29.108C52.8594 28.844 51.6714 28.448 50.8074 27.92V23.168C51.8394 23.768 53.0154 24.248 54.3354 24.608C55.6794 24.968 56.8794 25.148 57.9354 25.148C59.0394 25.148 59.8554 25.052 60.3834 24.86C60.9114 24.644 61.1754 24.284 61.1754 23.78C61.1754 23.324 60.9234 22.964 60.4194 22.7C59.9154 22.436 58.9794 22.088 57.6114 21.656L56.4954 21.296C54.4554 20.624 52.9554 19.844 51.9954 18.956C51.0594 18.044 50.5914 16.796 50.5914 15.212C50.5914 13.292 51.3594 11.816 52.8954 10.784C54.4314 9.728 56.4834 9.2 59.0514 9.2C60.4914 9.2 61.8834 9.344 63.2274 9.632C64.5714 9.92 65.6514 10.292 66.4674 10.748V15.572C65.6994 15.044 64.7274 14.612 63.5514 14.276C62.3994 13.94 61.2954 13.772 60.2394 13.772C58.1274 13.772 57.0714 14.252 57.0714 15.212C57.0714 15.692 57.3354 16.064 57.8634 16.328C58.4154 16.592 59.3154 16.904 60.5634 17.264L61.9314 17.696C64.1154 18.368 65.6154 19.196 66.4314 20.18C67.2474 21.14 67.6554 22.376 67.6554 23.888C67.6554 25.592 66.9114 26.96 65.4234 27.992C63.9594 29.024 61.7634 29.54 58.8354 29.54ZM59.3903 7.58C56.9423 7.58 55.7183 6.416 55.7183 4.088V0.883999H61.3703V2.792C61.3703 3.104 61.4423 3.32 61.5863 3.44C61.7063 3.56 61.9223 3.62 62.2343 3.62H70.0823V7.58H59.3903ZM80.3783 29.54C78.3383 29.54 76.5503 29.192 75.0143 28.496C73.4783 27.776 72.2903 26.78 71.4503 25.508C70.6103 24.236 70.1903 22.796 70.1903 21.188V9.74H76.5263V20.648C76.5263 21.944 76.8263 22.928 77.4263 23.6C78.0503 24.272 79.0343 24.608 80.3783 24.608C82.9463 24.608 84.2303 23.288 84.2303 20.648V9.74H90.5663V21.188C90.5663 22.796 90.1463 24.236 89.3063 25.508C88.4663 26.78 87.2783 27.776 85.7423 28.496C84.2063 29.192 82.4183 29.54 80.3783 29.54ZM100.115 29.54C97.9553 29.54 96.2393 29.012 94.9673 27.956C93.7193 26.876 93.0953 25.316 93.0953 23.276C93.0953 21.188 93.8033 19.568 95.2193 18.416C96.6593 17.24 98.6153 16.652 101.087 16.652C102.143 16.652 103.187 16.748 104.219 16.94C105.275 17.132 106.187 17.396 106.955 17.732V17.12C106.955 16.016 106.559 15.2 105.767 14.672C104.975 14.12 103.667 13.844 101.843 13.844C100.667 13.844 99.4913 13.976 98.3153 14.24C97.1393 14.48 96.1073 14.804 95.2193 15.212V10.604C96.0353 10.196 97.1513 9.86 98.5673 9.596C99.9833 9.332 101.459 9.2 102.995 9.2C104.579 9.2 105.911 9.38 106.991 9.74L108.179 8.3H115.019L111.527 12.296C112.127 12.872 112.571 13.628 112.859 14.564C113.147 15.476 113.291 16.436 113.291 17.444V29H106.955V22.088C105.707 21.44 104.291 21.116 102.707 21.116C101.627 21.116 100.835 21.296 100.331 21.656C99.8513 21.992 99.6113 22.532 99.6113 23.276C99.6113 24.644 100.535 25.328 102.383 25.328C103.103 25.328 103.739 25.208 104.291 24.968V29.036C103.283 29.372 101.891 29.54 100.115 29.54ZM129.259 29.54C128.083 29.54 126.943 29.324 125.839 28.892C124.735 28.436 123.787 27.812 122.995 27.02V29H116.983V9.74H123.319V22.34C123.775 23.108 124.315 23.684 124.939 24.068C125.563 24.428 126.319 24.608 127.207 24.608C128.239 24.608 129.031 24.356 129.583 23.852C130.135 23.348 130.411 22.592 130.411 21.584V9.74H136.747V21.98C136.747 23.42 136.459 24.716 135.883 25.868C135.307 26.996 134.455 27.896 133.327 28.568C132.199 29.216 130.843 29.54 129.259 29.54ZM129.175 7.58C126.727 7.58 125.503 6.416 125.503 4.088V0.883999H131.155V2.792C131.155 3.104 131.227 3.32 131.371 3.44C131.491 3.56 131.707 3.62 132.019 3.62H139.867V7.58H129.175ZM139.975 17.516C139.975 14.78 140.899 12.716 142.747 11.324C144.595 9.908 147.079 9.2 150.199 9.2C153.343 9.2 155.827 9.908 157.651 11.324C159.499 12.716 160.423 14.78 160.423 17.516V29H154.087V17.624C154.087 15.296 152.791 14.132 150.199 14.132C147.607 14.132 146.311 15.296 146.311 17.624V19.928C146.623 19.592 147.031 19.328 147.535 19.136C148.039 18.92 148.579 18.812 149.155 18.812H151.819V23.384H148.903C148.135 23.384 147.511 23.612 147.031 24.068C146.551 24.5 146.311 25.112 146.311 25.904V29H139.975V17.516ZM171.195 29.54C169.731 29.54 168.243 29.396 166.731 29.108C165.219 28.844 164.031 28.448 163.167 27.92V23.168C164.199 23.768 165.375 24.248 166.695 24.608C168.039 24.968 169.239 25.148 170.295 25.148C171.399 25.148 172.215 25.052 172.743 24.86C173.271 24.644 173.535 24.284 173.535 23.78C173.535 23.324 173.283 22.964 172.779 22.7C172.275 22.436 171.339 22.088 169.971 21.656L168.855 21.296C166.815 20.624 165.315 19.844 164.355 18.956C163.419 18.044 162.951 16.796 162.951 15.212C162.951 13.292 163.719 11.816 165.255 10.784C166.791 9.728 168.843 9.2 171.411 9.2C172.851 9.2 174.243 9.344 175.587 9.632C176.931 9.92 178.011 10.292 178.827 10.748V15.572C178.059 15.044 177.087 14.612 175.911 14.276C174.759 13.94 173.655 13.772 172.599 13.772C170.487 13.772 169.431 14.252 169.431 15.212C169.431 15.692 169.695 16.064 170.223 16.328C170.775 16.592 171.675 16.904 172.923 17.264L174.291 17.696C176.475 18.368 177.975 19.196 178.791 20.18C179.607 21.14 180.015 22.376 180.015 23.888C180.015 25.592 179.271 26.96 177.783 27.992C176.319 29.024 174.123 29.54 171.195 29.54Z" fill="#E2928D"/>
</svg>
