<svg width="96" height="101" viewBox="0 0 96 101" fill="none" xmlns="http://www.w3.org/2000/svg">
<g clip-path="url(#clip0)">
<path d="M62.2291 0.974609H10.6176V100.127H85.4539V25.0786L62.2291 0.974609ZM63.1622 6.61639L80.0179 24.1102H63.1622V6.61639ZM13.8021 96.8221V4.27969H59.9777V27.4153H82.2693V96.8221H13.8021Z" fill="#E2928D"/>
<path d="M67.9389 35.678H42.4627C41.5838 35.678 40.8705 36.4167 40.8705 37.3305C40.8705 38.2444 41.5838 38.9831 42.4627 38.9831H67.9389C68.8179 38.9831 69.5312 38.2444 69.5312 37.3305C69.5312 36.4167 68.8179 35.678 67.9389 35.678Z" fill="#E2928D"/>
<path d="M36.6908 31.0822L29.8425 36.7686L27.6659 34.5095C27.0433 33.8634 26.037 33.8634 25.4144 34.5095C24.7919 35.1557 24.7919 36.2001 25.4144 36.8462L28.599 40.1513C28.9079 40.4719 29.3155 40.6355 29.7247 40.6355C30.075 40.6355 30.4269 40.5165 30.7183 40.2736L38.6796 33.6634C39.3674 33.0916 39.4773 32.0522 38.928 31.34C38.3802 30.6261 37.3771 30.512 36.6908 31.0822Z" fill="#E2928D"/>
<path d="M67.9389 53.856H42.4627C41.5838 53.856 40.8705 54.5946 40.8705 55.5085C40.8705 56.4224 41.5838 57.161 42.4627 57.161H67.9389C68.8179 57.161 69.5312 56.4224 69.5312 55.5085C69.5312 54.5946 68.8179 53.856 67.9389 53.856Z" fill="#E2928D"/>
<path d="M36.6908 49.2601L29.8425 54.9465L27.6659 52.6875C27.0433 52.0414 26.037 52.0414 25.4144 52.6875C24.7919 53.3337 24.7919 54.3781 25.4144 55.0242L28.599 58.3293C28.9079 58.6499 29.3155 58.8135 29.7247 58.8135C30.075 58.8135 30.4269 58.6945 30.7183 58.4516L38.6796 51.8414C39.3674 51.2696 39.4773 50.2302 38.928 49.5179C38.3802 48.804 37.3771 48.69 36.6908 49.2601Z" fill="#E2928D"/>
<path d="M67.9389 72.0339H42.4627C41.5838 72.0339 40.8705 72.7726 40.8705 73.6865C40.8705 74.6003 41.5838 75.339 42.4627 75.339H67.9389C68.8179 75.339 69.5312 74.6003 69.5312 73.6865C69.5312 72.7726 68.8179 72.0339 67.9389 72.0339Z" fill="#E2928D"/>
<path d="M36.6908 67.4381L29.8425 73.1245L27.6659 70.8655C27.0433 70.2193 26.037 70.2193 25.4144 70.8655C24.7919 71.5116 24.7919 72.556 25.4144 73.2022L28.599 76.5073C28.9079 76.8279 29.3155 76.9915 29.7247 76.9915C30.075 76.9915 30.4269 76.8725 30.7183 76.6296L38.6796 70.0194C39.3674 69.4476 39.4773 68.4082 38.928 67.6959C38.3802 66.982 37.3771 66.868 36.6908 67.4381Z" fill="#E2928D"/>
</g>
<defs>
<clipPath id="clip0">
<rect width="95.5357" height="99.1525" fill="white" transform="translate(0.267822 0.974609)"/>
</clipPath>
</defs>
</svg>
