<svg width="289" height="64" viewBox="0 0 289 64" fill="none" xmlns="http://www.w3.org/2000/svg">
<path d="M5.544 23.36C4.52 23.36 3.584 23.272 2.736 23.096C1.888 22.92 1.176 22.656 0.6 22.304V19.04C1.608 19.728 2.944 20.072 4.608 20.072C5.824 20.072 6.768 19.792 7.44 19.232C8.128 18.656 8.472 17.776 8.472 16.592C8.472 15.408 8.128 14.528 7.44 13.952C6.768 13.376 5.824 13.088 4.608 13.088C2.976 13.088 1.672 13.432 0.696 14.12V10.856C1.256 10.52 1.96 10.264 2.808 10.088C3.672 9.896 4.584 9.8 5.544 9.8C7.832 9.8 9.616 10.392 10.896 11.576C12.176 12.76 12.816 14.432 12.816 16.592C12.816 18.736 12.176 20.4 10.896 21.584C9.616 22.768 7.832 23.36 5.544 23.36ZM7.28625 8.72C5.65425 8.72 4.83825 7.944 4.83825 6.392V4.256H8.60625V5.528C8.60625 5.736 8.65425 5.88 8.75025 5.96C8.83025 6.04 8.97425 6.08 9.18225 6.08H14.4143V8.72H7.28625ZM19.4783 23.36C18.4223 23.36 17.5183 23.144 16.7663 22.712C16.0143 22.264 15.4463 21.664 15.0623 20.912C14.6783 20.144 14.4863 19.28 14.4863 18.32V10.16H18.7103V18.056C18.7103 18.728 18.8943 19.232 19.2623 19.568C19.6303 19.904 20.1583 20.072 20.8463 20.072C21.4383 20.072 21.9423 19.952 22.3583 19.712C22.7743 19.456 23.1343 19.072 23.4383 18.56V10.16H27.6623V23H23.6543V21.68C23.1263 22.208 22.4943 22.624 21.7583 22.928C21.0223 23.216 20.2623 23.36 19.4783 23.36ZM29.8144 10.16H33.8224V11.504C34.3664 10.96 35.0144 10.544 35.7664 10.256C36.5344 9.952 37.3024 9.8 38.0704 9.8C39.7024 9.8 40.9264 10.232 41.7424 11.096C42.5744 11.96 42.9904 13.112 42.9904 14.552V23H38.7664V15.032C38.7664 13.736 38.1024 13.088 36.7744 13.088C36.1984 13.088 35.6704 13.216 35.1904 13.472C34.7264 13.712 34.3424 14.088 34.0384 14.6V23H29.8144V10.16ZM31.4865 6.08H39.1425V3.56H42.9585V8.72H31.4865V6.08ZM39.1185 0.359998H42.9345V3.84H39.1185V0.359998ZM56.2268 10.952L52.8188 13.424V9.248L56.9468 6.224H60.4748V23H56.2268V10.952ZM67.3309 23.36C66.3709 23.36 65.4189 23.256 64.4749 23.048C63.5309 22.84 62.7549 22.552 62.1469 22.184V18.464C62.8669 18.928 63.6749 19.296 64.5709 19.568C65.4829 19.824 66.3389 19.952 67.1389 19.952C68.2589 19.952 69.0909 19.736 69.6349 19.304C70.1789 18.872 70.4509 18.28 70.4509 17.528C70.4509 16.808 70.1709 16.248 69.6109 15.848C69.0669 15.448 68.2989 15.248 67.3069 15.248C66.7469 15.248 66.1549 15.304 65.5309 15.416C64.9229 15.512 64.3949 15.656 63.9469 15.848L62.3149 14.912L62.9869 6.224H73.7389V9.704H67.0909L66.8749 12.344C67.6109 12.152 68.3949 12.056 69.2269 12.056C70.9709 12.056 72.3309 12.52 73.3069 13.448C74.2989 14.36 74.7949 15.68 74.7949 17.408C74.7949 19.28 74.1629 20.744 72.8989 21.8C71.6349 22.84 69.7789 23.36 67.3309 23.36ZM90.7067 23.36C88.5627 23.36 86.9307 22.824 85.8107 21.752C84.7067 20.664 84.1547 19.032 84.1547 16.856C84.1547 15.4 84.3787 14.144 84.8267 13.088C85.2747 12.016 85.8907 11.2 86.6747 10.64C87.4747 10.08 88.3627 9.8 89.3387 9.8C89.9307 9.8 90.4507 9.912 90.8987 10.136C91.3467 10.344 91.7067 10.624 91.9787 10.976C92.5547 10.192 93.5547 9.8 94.9787 9.8C96.2747 9.8 97.2987 10.184 98.0507 10.952C98.8027 11.704 99.1787 12.688 99.1787 13.904V23H94.9547V14.384C94.9547 13.952 94.8827 13.632 94.7387 13.424C94.5947 13.2 94.3547 13.088 94.0187 13.088C93.4107 13.088 93.0267 13.48 92.8667 14.264H91.1627C91.0507 13.48 90.7147 13.088 90.1547 13.088C89.6587 13.088 89.2587 13.408 88.9547 14.048C88.6507 14.688 88.4987 15.624 88.4987 16.856C88.4987 17.96 88.7387 18.776 89.2187 19.304C89.6987 19.816 90.4667 20.072 91.5227 20.072C92.0667 20.072 92.6027 19.976 93.1307 19.784V23.024C92.4107 23.248 91.6027 23.36 90.7067 23.36ZM95.4176 27.464C95.4176 27.16 95.3616 26.944 95.2496 26.816C95.1376 26.704 94.9296 26.648 94.6256 26.648H93.8816V24.008H96.6656C97.5776 24.008 98.2256 24.216 98.6096 24.632C98.9936 25.048 99.1856 25.712 99.1856 26.624V29.696H95.4176V27.464ZM105.546 23.36C104.106 23.36 102.962 23.008 102.114 22.304C101.282 21.584 100.866 20.544 100.866 19.184C100.866 17.792 101.338 16.712 102.282 15.944C103.242 15.16 104.546 14.768 106.194 14.768C106.898 14.768 107.594 14.832 108.282 14.96C108.986 15.088 109.594 15.264 110.106 15.488V15.08C110.106 14.344 109.842 13.8 109.314 13.448C108.786 13.08 107.914 12.896 106.698 12.896C105.914 12.896 105.13 12.984 104.346 13.16C103.562 13.32 102.874 13.536 102.282 13.808V10.736C102.826 10.464 103.57 10.24 104.514 10.064C105.458 9.888 106.442 9.8 107.466 9.8C109.818 9.8 111.546 10.272 112.65 11.216C113.77 12.16 114.33 13.456 114.33 15.104V23H110.106V18.392C109.274 17.96 108.33 17.744 107.274 17.744C106.554 17.744 106.026 17.864 105.69 18.104C105.37 18.328 105.21 18.688 105.21 19.184C105.21 20.096 105.826 20.552 107.058 20.552C107.538 20.552 107.962 20.472 108.33 20.312V23.024C107.658 23.248 106.73 23.36 105.546 23.36ZM120.086 15.224C120.086 14.504 119.918 13.968 119.582 13.616C119.262 13.264 118.702 13.088 117.902 13.088C117.118 13.088 116.326 13.288 115.526 13.688V10.52C115.894 10.328 116.406 10.16 117.062 10.016C117.734 9.872 118.374 9.8 118.982 9.8C120.71 9.8 122.03 10.256 122.942 11.168C123.854 12.064 124.31 13.368 124.31 15.08V23H120.086V15.224ZM126.471 15.344C126.471 13.52 127.087 12.144 128.319 11.216C129.551 10.272 131.207 9.8 133.287 9.8C135.383 9.8 137.039 10.272 138.255 11.216C139.487 12.144 140.103 13.52 140.103 15.344V23H135.879V15.416C135.879 13.864 135.015 13.088 133.287 13.088C131.559 13.088 130.695 13.864 130.695 15.416V16.952C130.903 16.728 131.175 16.552 131.511 16.424C131.847 16.28 132.207 16.208 132.591 16.208H134.367V19.256H132.423C131.911 19.256 131.495 19.408 131.175 19.712C130.855 20 130.695 20.408 130.695 20.936V23H126.471V15.344ZM150.452 23.36C149.668 23.36 148.908 23.216 148.172 22.928C147.436 22.624 146.804 22.208 146.276 21.68V23H142.268V10.16H146.492V18.56C146.796 19.072 147.156 19.456 147.572 19.712C147.988 19.952 148.492 20.072 149.084 20.072C149.772 20.072 150.3 19.904 150.668 19.568C151.036 19.232 151.22 18.728 151.22 18.056V10.16H155.444V18.32C155.444 19.28 155.252 20.144 154.868 20.912C154.484 21.664 153.916 22.264 153.164 22.712C152.412 23.144 151.508 23.36 150.452 23.36ZM165.272 20.576L167.936 18.152L169.088 17.12C170.032 16.288 170.752 15.624 171.248 15.128C171.76 14.632 172.176 14.128 172.496 13.616C172.832 13.104 173 12.6 173 12.104C173 10.616 172.16 9.872 170.48 9.872C169.664 9.872 168.856 10.016 168.056 10.304C167.272 10.592 166.544 10.992 165.872 11.504V7.448C166.592 6.952 167.432 6.568 168.392 6.296C169.352 6.008 170.376 5.864 171.464 5.864C172.712 5.864 173.792 6.096 174.704 6.56C175.616 7.024 176.312 7.664 176.792 8.48C177.272 9.296 177.512 10.216 177.512 11.24C177.512 12.472 177.224 13.552 176.648 14.48C176.088 15.392 175.176 16.424 173.912 17.576L171.776 19.52H178.04V23H165.272V20.576ZM184.425 23.36C183.465 23.36 182.513 23.256 181.569 23.048C180.625 22.84 179.849 22.552 179.241 22.184V18.464C179.961 18.928 180.769 19.296 181.665 19.568C182.577 19.824 183.433 19.952 184.233 19.952C185.353 19.952 186.185 19.736 186.729 19.304C187.273 18.872 187.545 18.28 187.545 17.528C187.545 16.808 187.265 16.248 186.705 15.848C186.161 15.448 185.393 15.248 184.401 15.248C183.841 15.248 183.249 15.304 182.625 15.416C182.017 15.512 181.489 15.656 181.041 15.848L179.409 14.912L180.081 6.224H190.833V9.704H184.185L183.969 12.344C184.705 12.152 185.489 12.056 186.321 12.056C188.065 12.056 189.425 12.52 190.401 13.448C191.393 14.36 191.889 15.68 191.889 17.408C191.889 19.28 191.257 20.744 189.993 21.8C188.729 22.84 186.873 23.36 184.425 23.36ZM200.1 23.36C198.74 23.36 197.524 23.056 196.452 22.448C195.396 21.824 194.572 20.936 193.98 19.784C193.388 18.616 193.092 17.248 193.092 15.68C193.092 13.632 193.452 11.872 194.172 10.4C194.892 8.912 195.892 7.784 197.172 7.016C198.452 6.248 199.932 5.864 201.612 5.864C202.748 5.864 203.764 6.008 204.66 6.296V9.896C203.956 9.512 203.052 9.32 201.948 9.32C200.748 9.32 199.772 9.648 199.02 10.304C198.268 10.944 197.804 11.896 197.628 13.16C198.028 12.744 198.58 12.416 199.284 12.176C199.988 11.936 200.732 11.816 201.516 11.816C202.588 11.816 203.532 12.04 204.348 12.488C205.18 12.92 205.82 13.552 206.268 14.384C206.732 15.216 206.964 16.216 206.964 17.384C206.964 18.52 206.7 19.544 206.172 20.456C205.66 21.352 204.884 22.064 203.844 22.592C202.82 23.104 201.572 23.36 200.1 23.36ZM200.172 20.072C200.876 20.072 201.468 19.832 201.948 19.352C202.428 18.872 202.668 18.288 202.668 17.6C202.668 16.896 202.428 16.304 201.948 15.824C201.468 15.344 200.876 15.104 200.172 15.104C199.484 15.104 198.9 15.352 198.42 15.848C197.94 16.328 197.7 16.912 197.7 17.6C197.7 18.288 197.94 18.872 198.42 19.352C198.9 19.832 199.484 20.072 200.172 20.072ZM208.163 20.576L210.827 18.152L211.979 17.12C212.923 16.288 213.643 15.624 214.139 15.128C214.651 14.632 215.067 14.128 215.387 13.616C215.723 13.104 215.891 12.6 215.891 12.104C215.891 10.616 215.051 9.872 213.371 9.872C212.555 9.872 211.747 10.016 210.947 10.304C210.163 10.592 209.435 10.992 208.763 11.504V7.448C209.483 6.952 210.323 6.568 211.283 6.296C212.243 6.008 213.267 5.864 214.355 5.864C215.603 5.864 216.683 6.096 217.595 6.56C218.507 7.024 219.203 7.664 219.682 8.48C220.163 9.296 220.403 10.216 220.403 11.24C220.403 12.472 220.115 13.552 219.539 14.48C218.979 15.392 218.067 16.424 216.803 17.576L214.667 19.52H220.931V23H208.163V20.576ZM0.6 50.048H9.144V53.408H0.6V50.048ZM23.4503 59.36C22.4263 59.36 21.4903 59.272 20.6423 59.096C19.7943 58.92 19.0823 58.656 18.5063 58.304V55.04C19.5143 55.728 20.8503 56.072 22.5143 56.072C23.7303 56.072 24.6743 55.792 25.3463 55.232C26.0343 54.656 26.3783 53.776 26.3783 52.592C26.3783 51.408 26.0343 50.528 25.3463 49.952C24.6743 49.376 23.7303 49.088 22.5143 49.088C20.8823 49.088 19.5783 49.432 18.6023 50.12V46.856C19.1623 46.52 19.8663 46.264 20.7143 46.088C21.5783 45.896 22.4903 45.8 23.4503 45.8C25.7383 45.8 27.5223 46.392 28.8023 47.576C30.0823 48.76 30.7223 50.432 30.7223 52.592C30.7223 54.736 30.0823 56.4 28.8023 57.584C27.5223 58.768 25.7383 59.36 23.4503 59.36ZM25.1925 44.72C23.5605 44.72 22.7445 43.944 22.7445 42.392V40.256H26.5125V41.528C26.5125 41.736 26.5605 41.88 26.6565 41.96C26.7365 42.04 26.8805 42.08 27.0885 42.08H32.3205V44.72H25.1925ZM37.3845 59.36C36.3285 59.36 35.4245 59.144 34.6725 58.712C33.9205 58.264 33.3525 57.664 32.9685 56.912C32.5845 56.144 32.3925 55.28 32.3925 54.32V46.16H36.6165V54.056C36.6165 54.728 36.8005 55.232 37.1685 55.568C37.5365 55.904 38.0645 56.072 38.7525 56.072C39.3445 56.072 39.8485 55.952 40.2645 55.712C40.6805 55.456 41.0405 55.072 41.3445 54.56V46.16H45.5685V59H41.5605V57.68C41.0325 58.208 40.4005 58.624 39.6645 58.928C38.9285 59.216 38.1685 59.36 37.3845 59.36ZM47.7206 46.16H51.7286V47.504C52.2726 46.96 52.9206 46.544 53.6726 46.256C54.4406 45.952 55.2086 45.8 55.9766 45.8C57.6086 45.8 58.8326 46.232 59.6486 47.096C60.4806 47.96 60.8966 49.112 60.8966 50.552V59H56.6726V51.032C56.6726 49.736 56.0086 49.088 54.6806 49.088C54.1046 49.088 53.5766 49.216 53.0966 49.472C52.6326 49.712 52.2486 50.088 51.9446 50.6V59H47.7206V46.16ZM49.3927 42.08H57.0487V39.56H60.8647V44.72H49.3927V42.08ZM57.0247 36.36H60.8407V39.84H57.0247V36.36ZM74.133 46.952L70.725 49.424V45.248L74.853 42.224H78.381V59H74.133V46.952ZM87.2771 55.544H79.5731V52.904L87.5171 42.224H91.7171V52.184H94.0931V55.544H91.7171V59H87.2771V55.544ZM87.9251 52.184V47.384L84.3971 52.184H87.9251ZM102.735 46.16H106.959L108.495 53.24L110.439 46.16H113.439L115.383 53.24L116.919 46.16H121.143L117.567 59H113.967L111.927 51.824L109.911 59H106.311L102.735 46.16ZM131.868 51.416C131.868 49.864 131.06 49.088 129.444 49.088C128.26 49.088 127.284 49.416 126.516 50.072L127.404 51.584V54.968C127.404 55.32 127.484 55.576 127.644 55.736C127.82 55.88 128.092 55.952 128.46 55.952H129.588V59H126.108C125.18 59 124.46 58.736 123.948 58.208C123.436 57.664 123.18 56.92 123.18 55.976V51.512L121.98 49.424C123.932 47.008 126.42 45.8 129.444 45.8C131.572 45.8 133.212 46.272 134.364 47.216C135.516 48.144 136.092 49.432 136.092 51.08V63.704H131.868V51.416ZM138.26 51.344C138.26 49.52 138.876 48.144 140.108 47.216C141.34 46.272 142.996 45.8 145.076 45.8C146.02 45.8 146.9 45.928 147.716 46.184L148.508 45.2H153.068L150.716 47.96C151.5 48.744 151.892 49.872 151.892 51.344V59H147.668V51.416C147.668 49.864 146.804 49.088 145.076 49.088C143.348 49.088 142.484 49.864 142.484 51.416V52.952C142.692 52.728 142.964 52.552 143.3 52.424C143.636 52.28 143.996 52.208 144.38 52.208H146.156V55.256H144.212C143.7 55.256 143.284 55.408 142.964 55.712C142.644 56 142.484 56.408 142.484 56.936V59H138.26V51.344ZM154.145 51.944H158.345L159.329 55.928C160.225 55.928 160.977 55.64 161.585 55.064C162.209 54.472 162.521 53.664 162.521 52.64C162.521 51.488 162.201 50.608 161.561 50C160.937 49.392 159.801 49.088 158.153 49.088C157.417 49.088 156.649 49.168 155.849 49.328C155.065 49.488 154.417 49.696 153.905 49.952V46.688C154.545 46.416 155.313 46.2 156.209 46.04C157.121 45.88 158.041 45.8 158.969 45.8C161.513 45.8 163.465 46.392 164.825 47.576C166.185 48.744 166.865 50.408 166.865 52.568C166.865 53.88 166.537 55.024 165.881 56C165.241 56.976 164.369 57.72 163.265 58.232C162.177 58.744 160.977 59 159.665 59H155.897L154.145 51.944ZM154.885 42.08H166.357V44.72H154.885V42.08ZM169.141 51.512L167.941 49.424C169.893 47.008 172.381 45.8 175.405 45.8C177.533 45.8 179.173 46.272 180.325 47.216C181.477 48.144 182.053 49.432 182.053 51.08V59H177.829V51.416C177.829 49.864 177.021 49.088 175.405 49.088C174.221 49.088 173.245 49.416 172.477 50.072L173.365 51.584V59H169.141V51.512ZM187.821 51.224C187.821 50.504 187.653 49.968 187.317 49.616C186.997 49.264 186.437 49.088 185.637 49.088C184.853 49.088 184.061 49.288 183.261 49.688V46.52C183.629 46.328 184.141 46.16 184.797 46.016C185.469 45.872 186.109 45.8 186.717 45.8C188.445 45.8 189.765 46.256 190.677 47.168C191.589 48.064 192.045 49.368 192.045 51.08V59H187.821V51.224ZM200.589 59.36C198.493 59.36 196.821 59.008 195.573 58.304C194.341 57.584 193.725 56.528 193.725 55.136C193.725 54.528 193.877 53.992 194.181 53.528C194.485 53.048 194.901 52.68 195.429 52.424C194.949 52.152 194.557 51.768 194.253 51.272C193.965 50.76 193.821 50.208 193.821 49.616C193.821 48.464 194.237 47.544 195.069 46.856C195.917 46.152 197.141 45.8 198.741 45.8C199.205 45.8 199.685 45.84 200.181 45.92C200.677 45.984 201.053 46.056 201.309 46.136V49.208C201.085 49.096 200.813 49.008 200.493 48.944C200.189 48.88 199.909 48.848 199.653 48.848C198.661 48.848 198.165 49.216 198.165 49.952C198.165 50.72 198.669 51.104 199.677 51.104H201.309V53.744H199.677C198.605 53.744 198.069 54.152 198.069 54.968C198.069 55.896 198.909 56.36 200.589 56.36C201.581 56.36 202.309 56.16 202.773 55.76C203.237 55.344 203.469 54.728 203.469 53.912V46.136H207.693V53.888C207.693 54.8 207.453 55.672 206.973 56.504C206.493 57.336 205.725 58.024 204.669 58.568C203.613 59.096 202.253 59.36 200.589 59.36ZM214.853 59.36C213.797 59.36 212.893 59.144 212.141 58.712C211.389 58.264 210.821 57.664 210.437 56.912C210.053 56.144 209.861 55.28 209.861 54.32V46.16H214.085V54.056C214.085 54.728 214.269 55.232 214.637 55.568C215.005 55.904 215.533 56.072 216.221 56.072C216.813 56.072 217.317 55.952 217.733 55.712C218.149 55.456 218.509 55.072 218.813 54.56V46.16H223.037V59H219.029V57.68C218.501 58.208 217.869 58.624 217.133 58.928C216.397 59.216 215.637 59.36 214.853 59.36ZM232.866 56.576L235.53 54.152L236.682 53.12C237.626 52.288 238.346 51.624 238.842 51.128C239.354 50.632 239.77 50.128 240.09 49.616C240.426 49.104 240.594 48.6 240.594 48.104C240.594 46.616 239.754 45.872 238.074 45.872C237.258 45.872 236.45 46.016 235.65 46.304C234.866 46.592 234.138 46.992 233.466 47.504V43.448C234.186 42.952 235.026 42.568 235.986 42.296C236.946 42.008 237.97 41.864 239.058 41.864C240.306 41.864 241.386 42.096 242.298 42.56C243.21 43.024 243.906 43.664 244.386 44.48C244.866 45.296 245.106 46.216 245.106 47.24C245.106 48.472 244.818 49.552 244.242 50.48C243.682 51.392 242.77 52.424 241.506 53.576L239.37 55.52H245.634V59H232.866V56.576ZM252.018 59.36C251.058 59.36 250.106 59.256 249.162 59.048C248.218 58.84 247.442 58.552 246.834 58.184V54.464C247.554 54.928 248.362 55.296 249.258 55.568C250.17 55.824 251.026 55.952 251.826 55.952C252.946 55.952 253.778 55.736 254.322 55.304C254.866 54.872 255.138 54.28 255.138 53.528C255.138 52.808 254.858 52.248 254.298 51.848C253.754 51.448 252.986 51.248 251.994 51.248C251.434 51.248 250.842 51.304 250.218 51.416C249.61 51.512 249.082 51.656 248.634 51.848L247.002 50.912L247.674 42.224H258.426V45.704H251.778L251.562 48.344C252.298 48.152 253.082 48.056 253.914 48.056C255.658 48.056 257.018 48.52 257.994 49.448C258.986 50.36 259.482 51.68 259.482 53.408C259.482 55.28 258.85 56.744 257.586 57.8C256.322 58.84 254.466 59.36 252.018 59.36ZM267.694 59.36C266.334 59.36 265.118 59.056 264.046 58.448C262.99 57.824 262.166 56.936 261.574 55.784C260.982 54.616 260.686 53.248 260.686 51.68C260.686 49.632 261.046 47.872 261.766 46.4C262.486 44.912 263.486 43.784 264.766 43.016C266.046 42.248 267.526 41.864 269.206 41.864C270.342 41.864 271.358 42.008 272.254 42.296V45.896C271.55 45.512 270.646 45.32 269.542 45.32C268.342 45.32 267.366 45.648 266.614 46.304C265.862 46.944 265.398 47.896 265.222 49.16C265.622 48.744 266.174 48.416 266.878 48.176C267.582 47.936 268.326 47.816 269.11 47.816C270.182 47.816 271.126 48.04 271.942 48.488C272.774 48.92 273.414 49.552 273.862 50.384C274.326 51.216 274.558 52.216 274.558 53.384C274.558 54.52 274.294 55.544 273.766 56.456C273.254 57.352 272.478 58.064 271.438 58.592C270.414 59.104 269.166 59.36 267.694 59.36ZM267.766 56.072C268.47 56.072 269.062 55.832 269.542 55.352C270.022 54.872 270.262 54.288 270.262 53.6C270.262 52.896 270.022 52.304 269.542 51.824C269.062 51.344 268.47 51.104 267.766 51.104C267.078 51.104 266.494 51.352 266.014 51.848C265.534 52.328 265.294 52.912 265.294 53.6C265.294 54.288 265.534 54.872 266.014 55.352C266.494 55.832 267.078 56.072 267.766 56.072ZM275.756 56.576L278.42 54.152L279.572 53.12C280.516 52.288 281.236 51.624 281.732 51.128C282.244 50.632 282.66 50.128 282.98 49.616C283.316 49.104 283.484 48.6 283.484 48.104C283.484 46.616 282.644 45.872 280.964 45.872C280.148 45.872 279.34 46.016 278.54 46.304C277.756 46.592 277.028 46.992 276.356 47.504V43.448C277.076 42.952 277.916 42.568 278.876 42.296C279.836 42.008 280.86 41.864 281.948 41.864C283.196 41.864 284.276 42.096 285.188 42.56C286.1 43.024 286.796 43.664 287.276 44.48C287.756 45.296 287.996 46.216 287.996 47.24C287.996 48.472 287.708 49.552 287.132 50.48C286.572 51.392 285.66 52.424 284.396 53.576L282.26 55.52H288.524V59H275.756V56.576Z" fill="#4F766F"/>
</svg>
