<svg width="567" height="81" viewBox="0 0 567 81" fill="none" xmlns="http://www.w3.org/2000/svg">
<path d="M167.512 23.632C167.512 22.4373 167.768 21.4133 168.28 20.56C168.792 19.664 169.539 19.216 170.52 19.216H198.168C199.149 19.216 199.896 19.664 200.408 20.56C200.92 21.4133 201.176 22.4373 201.176 23.632C201.176 24.912 200.899 26 200.344 26.896C199.832 27.7493 199.107 28.176 198.168 28.176H189.336V62.928C189.336 63.9093 188.845 64.6773 187.864 65.232C186.883 65.744 185.709 66 184.344 66C182.979 66 181.805 65.744 180.824 65.232C179.843 64.6773 179.352 63.9093 179.352 62.928V28.176H170.52C169.581 28.176 168.835 27.7493 168.28 26.896C167.768 26 167.512 24.912 167.512 23.632ZM205.784 28.304C204.76 27.3653 204.248 26.2773 204.248 25.04C204.248 23.8027 204.76 22.736 205.784 21.84C206.808 20.944 208.045 20.496 209.496 20.496C210.904 20.496 212.12 20.944 213.144 21.84C214.168 22.736 214.68 23.8027 214.68 25.04C214.68 26.2773 214.168 27.3653 213.144 28.304C212.12 29.2 210.904 29.648 209.496 29.648C208.045 29.648 206.808 29.2 205.784 28.304ZM204.568 62.928V38.544C204.568 37.648 205.016 36.9227 205.911 36.368C206.85 35.8133 208.045 35.536 209.496 35.536C210.904 35.536 212.077 35.8133 213.016 36.368C213.997 36.9227 214.488 37.648 214.488 38.544V62.928C214.488 63.696 213.997 64.4 213.016 65.04C212.034 65.68 210.861 66 209.496 66C208.088 66 206.914 65.7013 205.976 65.104C205.037 64.464 204.568 63.7387 204.568 62.928ZM220.193 62.928V38.544C220.193 37.648 220.641 36.9227 221.536 36.368C222.475 35.8133 223.67 35.536 225.121 35.536C226.315 35.536 227.339 35.8133 228.193 36.368C229.046 36.9227 229.473 37.648 229.473 38.544V40.016C231.307 36.7733 234.123 35.152 237.921 35.152C239.627 35.152 241.142 35.7493 242.465 36.944C243.83 38.096 244.833 39.632 245.473 41.552C246.539 39.4613 247.926 37.8827 249.632 36.816C251.339 35.7067 253.153 35.152 255.073 35.152C258.273 35.152 261.003 36.368 263.265 38.8C265.569 41.232 266.721 44.496 266.721 48.592V62.928C266.721 63.696 266.23 64.4 265.249 65.04C264.267 65.68 263.094 66 261.729 66C260.449 66 259.297 65.68 258.273 65.04C257.291 64.4 256.801 63.696 256.801 62.928V48.592C256.801 47.056 256.374 45.8613 255.521 45.008C254.667 44.1547 253.665 43.728 252.513 43.728C251.403 43.728 250.443 44.1547 249.632 45.008C248.822 45.8613 248.417 47.056 248.417 48.592V62.992C248.417 63.9733 247.926 64.72 246.945 65.232C245.963 65.744 244.79 66 243.425 66C242.145 66 240.993 65.744 239.969 65.232C238.987 64.72 238.497 63.9733 238.497 62.992V48.656C238.497 47.1627 238.049 45.9893 237.153 45.136C236.299 44.24 235.297 43.792 234.145 43.792C233.035 43.792 232.075 44.2187 231.265 45.072C230.497 45.8827 230.113 47.056 230.113 48.592V62.928C230.113 63.696 229.601 64.4 228.577 65.04C227.595 65.68 226.443 66 225.121 66C223.713 66 222.539 65.7013 221.601 65.104C220.662 64.464 220.193 63.7387 220.193 62.928ZM271.103 53.072V48.4C271.103 44.7733 272.532 41.6587 275.391 39.056C278.292 36.4533 281.77 35.152 285.823 35.152C289.62 35.152 292.863 36.304 295.551 38.608C298.239 40.8693 299.583 43.7707 299.583 47.312C299.583 48.6773 299.412 49.7867 299.071 50.64C298.73 51.4933 298.218 52.0907 297.535 52.432C296.852 52.7733 296.212 53.008 295.615 53.136C295.06 53.2213 294.314 53.264 293.375 53.264H281.023V53.648C281.023 55.2267 281.62 56.5067 282.815 57.488C284.01 58.4267 285.588 58.896 287.551 58.896C289.044 58.896 290.602 58.512 292.223 57.744C293.887 56.9333 294.996 56.528 295.551 56.528C296.618 56.528 297.492 57.04 298.175 58.064C298.858 59.0453 299.199 59.984 299.199 60.88C299.199 62.2027 298.047 63.504 295.743 64.784C293.482 66.0213 290.666 66.64 287.295 66.64C282.516 66.64 278.612 65.4027 275.583 62.928C272.596 60.4107 271.103 57.1253 271.103 53.072ZM281.023 47.696H288.959C289.855 47.696 290.303 47.184 290.303 46.16C290.303 44.9653 289.834 44.0267 288.895 43.344C287.999 42.6613 286.911 42.32 285.631 42.32C284.394 42.32 283.306 42.6613 282.367 43.344C281.471 44.0267 281.023 44.9653 281.023 46.16V47.696ZM304.581 62.928V21.136C304.581 20.24 305.029 19.5147 305.925 18.96C306.864 18.4053 308.058 18.128 309.509 18.128C310.917 18.128 312.09 18.4053 313.029 18.96C314.01 19.5147 314.501 20.24 314.501 21.136V62.928C314.501 63.696 314.01 64.4 313.029 65.04C312.048 65.68 310.874 66 309.509 66C308.101 66 306.928 65.7013 305.989 65.104C305.05 64.464 304.581 63.7387 304.581 62.928ZM322.034 28.304C321.01 27.3653 320.498 26.2773 320.498 25.04C320.498 23.8027 321.01 22.736 322.034 21.84C323.058 20.944 324.295 20.496 325.746 20.496C327.154 20.496 328.37 20.944 329.394 21.84C330.418 22.736 330.93 23.8027 330.93 25.04C330.93 26.2773 330.418 27.3653 329.394 28.304C328.37 29.2 327.154 29.648 325.746 29.648C324.295 29.648 323.058 29.2 322.034 28.304ZM320.818 62.928V38.544C320.818 37.648 321.266 36.9227 322.161 36.368C323.1 35.8133 324.295 35.536 325.746 35.536C327.154 35.536 328.327 35.8133 329.266 36.368C330.247 36.9227 330.738 37.648 330.738 38.544V62.928C330.738 63.696 330.247 64.4 329.266 65.04C328.284 65.68 327.111 66 325.746 66C324.338 66 323.164 65.7013 322.226 65.104C321.287 64.464 320.818 63.7387 320.818 62.928ZM336.443 62.928V38.544C336.443 37.648 336.891 36.9227 337.786 36.368C338.725 35.8133 339.92 35.536 341.371 35.536C342.565 35.536 343.589 35.8133 344.443 36.368C345.296 36.9227 345.723 37.648 345.723 38.544V40.016C346.405 38.6507 347.493 37.4987 348.987 36.56C350.523 35.6213 352.293 35.152 354.299 35.152C357.243 35.152 359.781 36.4747 361.915 39.12C364.091 41.7653 365.179 44.9227 365.179 48.592V62.928C365.179 63.9093 364.688 64.6773 363.707 65.232C362.725 65.744 361.552 66 360.187 66C358.907 66 357.755 65.7227 356.731 65.168C355.749 64.6133 355.259 63.8667 355.259 62.928V48.592C355.259 47.3547 354.789 46.2453 353.851 45.264C352.955 44.2827 351.888 43.792 350.651 43.792C349.541 43.792 348.539 44.24 347.643 45.136C346.789 45.9893 346.363 47.1413 346.363 48.592V62.928C346.363 63.696 345.851 64.4 344.827 65.04C343.845 65.68 342.693 66 341.371 66C339.963 66 338.789 65.7013 337.851 65.104C336.912 64.464 336.443 63.7387 336.443 62.928ZM369.478 53.072V48.4C369.478 44.7733 370.907 41.6587 373.766 39.056C376.667 36.4533 380.145 35.152 384.198 35.152C387.995 35.152 391.238 36.304 393.926 38.608C396.614 40.8693 397.958 43.7707 397.958 47.312C397.958 48.6773 397.787 49.7867 397.446 50.64C397.105 51.4933 396.593 52.0907 395.91 52.432C395.227 52.7733 394.587 53.008 393.99 53.136C393.435 53.2213 392.689 53.264 391.75 53.264H379.398V53.648C379.398 55.2267 379.995 56.5067 381.19 57.488C382.385 58.4267 383.963 58.896 385.926 58.896C387.419 58.896 388.977 58.512 390.598 57.744C392.262 56.9333 393.371 56.528 393.926 56.528C394.993 56.528 395.867 57.04 396.55 58.064C397.233 59.0453 397.574 59.984 397.574 60.88C397.574 62.2027 396.422 63.504 394.118 64.784C391.857 66.0213 389.041 66.64 385.67 66.64C380.891 66.64 376.987 65.4027 373.958 62.928C370.971 60.4107 369.478 57.1253 369.478 53.072ZM379.398 47.696H387.334C388.23 47.696 388.678 47.184 388.678 46.16C388.678 44.9653 388.209 44.0267 387.27 43.344C386.374 42.6613 385.286 42.32 384.006 42.32C382.769 42.32 381.681 42.6613 380.742 43.344C379.846 44.0267 379.398 44.9653 379.398 46.16V47.696Z" fill="#E2928D"/>
<rect y="36" width="150" height="10" fill="#BCBEBF"/>
<rect x="417" y="36" width="150" height="10" fill="#BCBEBF"/>
</svg>
