<svg width="97" height="101" viewBox="0 0 97 101" fill="none" xmlns="http://www.w3.org/2000/svg">
<g clip-path="url(#clip0)">
<path d="M73.4545 6.97925H59.8546V9.83977H73.4545C74.4978 9.83997 75.3466 10.7207 75.3466 11.8037C75.3466 12.1185 75.2768 12.4191 75.1391 12.6968L77.59 14.005C77.9253 13.3283 78.1026 12.5671 78.1026 11.8037C78.1028 9.14338 76.0176 6.97925 73.4545 6.97925Z" fill="#E2928D"/>
<path d="M55.8789 6.97925H52.4547V9.83977H55.8789V6.97925Z" fill="#E2928D"/>
<path d="M66.5436 32.5752H17.8508V35.4357H66.5436V32.5752Z" fill="#E2928D"/>
<path d="M66.5436 84.7173H17.8508V87.5778H66.5436V84.7173Z" fill="#E2928D"/>
<path d="M82.734 33.5024L80.785 35.525L82.4987 37.3038L76.8395 43.1772L78.7883 45.2L86.3964 37.3038L82.734 33.5024Z" fill="#E2928D"/>
<path d="M75.1152 44.9685L73.2794 46.8738L75.2282 48.8963L77.064 46.991L75.1152 44.9685Z" fill="#E2928D"/>
<path d="M94.0519 25.119L93.0323 24.0609C90.0705 20.9867 85.2506 20.9867 82.2886 24.0609L81.292 25.0952L79.343 27.1177L74.2916 32.3605V21.4736C79.0598 21.0322 82.8111 16.8651 82.8111 11.8035C82.8111 6.44882 78.6134 2.09229 73.4543 2.09229H10.0978C4.93871 2.09229 0.741089 6.44862 0.741089 11.8033V89.1222H8.71984V99.0261H74.2919V56.7776L91.1065 39.3265L92.5791 37.798L93.0551 37.304L94.0517 36.2696C95.4866 34.7804 96.2768 32.8006 96.2768 30.6946C96.2768 28.5886 95.487 26.608 94.0519 25.119ZM16.7229 4.95281H73.4545C77.0942 4.95281 80.0551 8.02597 80.0551 11.8035C80.0551 15.581 77.094 18.6539 73.4545 18.6539H16.7229C18.41 16.8965 19.4548 14.4742 19.4548 11.8035C19.4548 9.13234 18.4102 6.71026 16.7229 4.95281ZM8.71984 18.6537V86.2617H3.49727V11.8033C3.49727 8.02577 6.45851 4.95261 10.098 4.95261C13.7375 4.95261 16.6986 8.02597 16.6986 11.8033C16.6986 15.5808 13.7374 18.6537 10.098 18.6537H8.71984ZM71.5359 96.1656H11.4758V21.5144H71.5358V35.2208L65.5606 41.4219H17.8503V44.2824H62.8048L57.0363 50.2694H17.8503V53.1299H54.2803L48.5119 59.1166H17.8503V61.9772H45.7559L45.2751 62.4762L43.7075 67.9641H17.8503V70.8246H42.8906L41.1805 76.8116H17.8503V79.6721H66.5425V76.8116H50.1265L57.0383 74.6852L60.7577 70.825H66.5423V67.9645H63.5139L71.5359 59.6387V96.1656ZM47.1597 65.9412L53.6992 72.7283L44.4044 75.588L47.1597 65.9412ZM56.311 71.3938L48.4455 63.2305L81.292 29.1405L89.1575 37.3038L56.311 71.3938ZM92.1033 34.2467L91.1067 35.281L83.2412 27.1177L84.2378 26.0834C86.1252 24.1246 89.1961 24.1246 91.0837 26.0834L92.1033 27.1416C93.0176 28.0905 93.5212 29.3522 93.5212 30.694C93.521 32.0361 93.0174 33.2978 92.1033 34.2467Z" fill="#E2928D"/>
</g>
<defs>
<clipPath id="clip0">
<rect width="95.5357" height="99.1525" fill="white" transform="translate(0.741089 0.98291)"/>
</clipPath>
</defs>
</svg>
