<svg width="208" height="30" viewBox="0 0 208 30" fill="none" xmlns="http://www.w3.org/2000/svg">
<path d="M5.544 23.36C4.52 23.36 3.584 23.272 2.736 23.096C1.888 22.92 1.176 22.656 0.6 22.304V19.04C1.608 19.728 2.944 20.072 4.608 20.072C5.824 20.072 6.768 19.792 7.44 19.232C8.128 18.656 8.472 17.776 8.472 16.592C8.472 15.408 8.128 14.528 7.44 13.952C6.768 13.376 5.824 13.088 4.608 13.088C2.976 13.088 1.672 13.432 0.696 14.12V10.856C1.256 10.52 1.96 10.264 2.808 10.088C3.672 9.896 4.584 9.8 5.544 9.8C7.832 9.8 9.616 10.392 10.896 11.576C12.176 12.76 12.816 14.432 12.816 16.592C12.816 18.736 12.176 20.4 10.896 21.584C9.616 22.768 7.832 23.36 5.544 23.36ZM7.28625 8.72C5.65425 8.72 4.83825 7.944 4.83825 6.392V4.256H8.60625V5.528C8.60625 5.736 8.65425 5.88 8.75025 5.96C8.83025 6.04 8.97425 6.08 9.18225 6.08H14.4143V8.72H7.28625ZM19.4783 23.36C18.4223 23.36 17.5183 23.144 16.7663 22.712C16.0143 22.264 15.4463 21.664 15.0623 20.912C14.6783 20.144 14.4863 19.28 14.4863 18.32V10.16H18.7103V18.056C18.7103 18.728 18.8943 19.232 19.2623 19.568C19.6303 19.904 20.1583 20.072 20.8463 20.072C21.4383 20.072 21.9423 19.952 22.3583 19.712C22.7743 19.456 23.1343 19.072 23.4383 18.56V10.16H27.6623V23H23.6543V21.68C23.1263 22.208 22.4943 22.624 21.7583 22.928C21.0223 23.216 20.2623 23.36 19.4783 23.36ZM29.8144 10.16H33.8224V11.504C34.3664 10.96 35.0144 10.544 35.7664 10.256C36.5344 9.952 37.3024 9.8 38.0704 9.8C39.7024 9.8 40.9264 10.232 41.7424 11.096C42.5744 11.96 42.9904 13.112 42.9904 14.552V23H38.7664V15.032C38.7664 13.736 38.1024 13.088 36.7744 13.088C36.1984 13.088 35.6704 13.216 35.1904 13.472C34.7264 13.712 34.3424 14.088 34.0384 14.6V23H29.8144V10.16ZM31.4865 6.08H39.1425V3.56H42.9585V8.72H31.4865V6.08ZM39.1185 0.359998H42.9345V3.84H39.1185V0.359998ZM56.2268 10.952L52.8188 13.424V9.248L56.9468 6.224H60.4748V23H56.2268V10.952ZM76.8551 23.36C74.7111 23.36 73.0791 22.824 71.9591 21.752C70.8551 20.664 70.3031 19.032 70.3031 16.856C70.3031 15.4 70.5271 14.144 70.9751 13.088C71.4231 12.016 72.0391 11.2 72.8231 10.64C73.6231 10.08 74.5111 9.8 75.4871 9.8C76.0791 9.8 76.5991 9.912 77.0471 10.136C77.4951 10.344 77.8551 10.624 78.1271 10.976C78.7031 10.192 79.7031 9.8 81.1271 9.8C82.4231 9.8 83.4471 10.184 84.1991 10.952C84.9511 11.704 85.3271 12.688 85.3271 13.904V23H81.1031V14.384C81.1031 13.952 81.0311 13.632 80.8871 13.424C80.7431 13.2 80.5031 13.088 80.1671 13.088C79.5591 13.088 79.1751 13.48 79.0151 14.264H77.3111C77.1991 13.48 76.8631 13.088 76.3031 13.088C75.8071 13.088 75.4071 13.408 75.1031 14.048C74.7991 14.688 74.6471 15.624 74.6471 16.856C74.6471 17.96 74.8871 18.776 75.3671 19.304C75.8471 19.816 76.6151 20.072 77.6711 20.072C78.2151 20.072 78.7511 19.976 79.2791 19.784V23.024C78.5591 23.248 77.7511 23.36 76.8551 23.36ZM81.5661 27.464C81.5661 27.16 81.5101 26.944 81.3981 26.816C81.2861 26.704 81.0781 26.648 80.7741 26.648H80.0301V24.008H82.8141C83.7261 24.008 84.3741 24.216 84.7581 24.632C85.1421 25.048 85.3341 25.712 85.3341 26.624V29.696H81.5661V27.464ZM91.6941 23.36C90.2541 23.36 89.1101 23.008 88.2621 22.304C87.4301 21.584 87.0141 20.544 87.0141 19.184C87.0141 17.792 87.4861 16.712 88.4301 15.944C89.3901 15.16 90.6941 14.768 92.3421 14.768C93.0461 14.768 93.7421 14.832 94.4301 14.96C95.1341 15.088 95.7421 15.264 96.2541 15.488V15.08C96.2541 14.344 95.9901 13.8 95.4621 13.448C94.9341 13.08 94.0621 12.896 92.8461 12.896C92.0621 12.896 91.2781 12.984 90.4941 13.16C89.7101 13.32 89.0221 13.536 88.4301 13.808V10.736C88.9741 10.464 89.7181 10.24 90.6621 10.064C91.6061 9.888 92.5901 9.8 93.6141 9.8C95.9661 9.8 97.6941 10.272 98.7981 11.216C99.9181 12.16 100.478 13.456 100.478 15.104V23H96.2541V18.392C95.4221 17.96 94.4781 17.744 93.4221 17.744C92.7021 17.744 92.1741 17.864 91.8381 18.104C91.5181 18.328 91.3581 18.688 91.3581 19.184C91.3581 20.096 91.9741 20.552 93.2061 20.552C93.6861 20.552 94.1101 20.472 94.4781 20.312V23.024C93.8061 23.248 92.8781 23.36 91.6941 23.36ZM106.235 15.224C106.235 14.504 106.067 13.968 105.731 13.616C105.411 13.264 104.851 13.088 104.051 13.088C103.267 13.088 102.475 13.288 101.675 13.688V10.52C102.043 10.328 102.555 10.16 103.211 10.016C103.883 9.872 104.523 9.8 105.131 9.8C106.859 9.8 108.179 10.256 109.091 11.168C110.003 12.064 110.459 13.368 110.459 15.08V23H106.235V15.224ZM112.619 15.344C112.619 13.52 113.235 12.144 114.467 11.216C115.699 10.272 117.355 9.8 119.435 9.8C121.531 9.8 123.187 10.272 124.403 11.216C125.635 12.144 126.251 13.52 126.251 15.344V23H122.027V15.416C122.027 13.864 121.163 13.088 119.435 13.088C117.707 13.088 116.843 13.864 116.843 15.416V16.952C117.051 16.728 117.323 16.552 117.659 16.424C117.995 16.28 118.355 16.208 118.739 16.208H120.515V19.256H118.571C118.059 19.256 117.643 19.408 117.323 19.712C117.003 20 116.843 20.408 116.843 20.936V23H112.619V15.344ZM136.6 23.36C135.816 23.36 135.056 23.216 134.32 22.928C133.584 22.624 132.952 22.208 132.424 21.68V23H128.416V10.16H132.64V18.56C132.944 19.072 133.304 19.456 133.72 19.712C134.136 19.952 134.64 20.072 135.232 20.072C135.92 20.072 136.448 19.904 136.816 19.568C137.184 19.232 137.368 18.728 137.368 18.056V10.16H141.592V18.32C141.592 19.28 141.4 20.144 141.016 20.912C140.632 21.664 140.064 22.264 139.312 22.712C138.56 23.144 137.656 23.36 136.6 23.36ZM151.42 20.576L154.084 18.152L155.236 17.12C156.18 16.288 156.9 15.624 157.396 15.128C157.908 14.632 158.324 14.128 158.644 13.616C158.98 13.104 159.148 12.6 159.148 12.104C159.148 10.616 158.308 9.872 156.628 9.872C155.812 9.872 155.004 10.016 154.204 10.304C153.42 10.592 152.692 10.992 152.02 11.504V7.448C152.74 6.952 153.58 6.568 154.54 6.296C155.5 6.008 156.524 5.864 157.612 5.864C158.86 5.864 159.94 6.096 160.852 6.56C161.764 7.024 162.46 7.664 162.94 8.48C163.42 9.296 163.66 10.216 163.66 11.24C163.66 12.472 163.372 13.552 162.796 14.48C162.236 15.392 161.324 16.424 160.06 17.576L157.924 19.52H164.188V23H151.42V20.576ZM170.573 23.36C169.613 23.36 168.661 23.256 167.717 23.048C166.773 22.84 165.997 22.552 165.389 22.184V18.464C166.109 18.928 166.917 19.296 167.813 19.568C168.725 19.824 169.581 19.952 170.381 19.952C171.501 19.952 172.333 19.736 172.877 19.304C173.421 18.872 173.693 18.28 173.693 17.528C173.693 16.808 173.413 16.248 172.853 15.848C172.309 15.448 171.541 15.248 170.549 15.248C169.989 15.248 169.397 15.304 168.773 15.416C168.165 15.512 167.637 15.656 167.189 15.848L165.557 14.912L166.229 6.224H176.981V9.704H170.333L170.117 12.344C170.853 12.152 171.637 12.056 172.469 12.056C174.213 12.056 175.573 12.52 176.549 13.448C177.541 14.36 178.037 15.68 178.037 17.408C178.037 19.28 177.405 20.744 176.141 21.8C174.877 22.84 173.021 23.36 170.573 23.36ZM186.249 23.36C184.889 23.36 183.673 23.056 182.601 22.448C181.545 21.824 180.721 20.936 180.129 19.784C179.537 18.616 179.241 17.248 179.241 15.68C179.241 13.632 179.601 11.872 180.321 10.4C181.041 8.912 182.041 7.784 183.321 7.016C184.601 6.248 186.081 5.864 187.761 5.864C188.897 5.864 189.913 6.008 190.809 6.296V9.896C190.105 9.512 189.201 9.32 188.097 9.32C186.897 9.32 185.921 9.648 185.169 10.304C184.417 10.944 183.953 11.896 183.777 13.16C184.177 12.744 184.729 12.416 185.433 12.176C186.137 11.936 186.881 11.816 187.665 11.816C188.737 11.816 189.681 12.04 190.497 12.488C191.329 12.92 191.969 13.552 192.417 14.384C192.881 15.216 193.113 16.216 193.113 17.384C193.113 18.52 192.849 19.544 192.321 20.456C191.809 21.352 191.033 22.064 189.993 22.592C188.969 23.104 187.721 23.36 186.249 23.36ZM186.321 20.072C187.025 20.072 187.617 19.832 188.097 19.352C188.577 18.872 188.817 18.288 188.817 17.6C188.817 16.896 188.577 16.304 188.097 15.824C187.617 15.344 187.025 15.104 186.321 15.104C185.633 15.104 185.049 15.352 184.569 15.848C184.089 16.328 183.849 16.912 183.849 17.6C183.849 18.288 184.089 18.872 184.569 19.352C185.049 19.832 185.633 20.072 186.321 20.072ZM194.311 20.576L196.975 18.152L198.127 17.12C199.071 16.288 199.791 15.624 200.287 15.128C200.799 14.632 201.215 14.128 201.535 13.616C201.871 13.104 202.039 12.6 202.039 12.104C202.039 10.616 201.199 9.872 199.519 9.872C198.703 9.872 197.895 10.016 197.095 10.304C196.311 10.592 195.583 10.992 194.911 11.504V7.448C195.631 6.952 196.471 6.568 197.431 6.296C198.391 6.008 199.415 5.864 200.503 5.864C201.751 5.864 202.831 6.096 203.743 6.56C204.655 7.024 205.351 7.664 205.831 8.48C206.311 9.296 206.551 10.216 206.551 11.24C206.551 12.472 206.263 13.552 205.687 14.48C205.127 15.392 204.215 16.424 202.951 17.576L200.815 19.52H207.079V23H194.311V20.576Z" fill="#4F766F"/>
</svg>
