<svg width="162" height="27" viewBox="0 0 162 27" fill="none" xmlns="http://www.w3.org/2000/svg">
<path d="M10.808 26.54C8.768 26.54 6.98 26.192 5.444 25.496C3.908 24.776 2.72 23.78 1.88 22.508C1.04 21.236 0.62 19.796 0.62 18.188V6.74H6.956V17.648C6.956 18.944 7.256 19.928 7.856 20.6C8.48 21.272 9.464 21.608 10.808 21.608C13.376 21.608 14.66 20.288 14.66 17.648V0.295998H20.996V18.188C20.996 19.796 20.576 21.236 19.736 22.508C18.896 23.78 17.708 24.776 16.172 25.496C14.636 26.192 12.848 26.54 10.808 26.54ZM31.769 26.54C30.305 26.54 28.817 26.396 27.305 26.108C25.793 25.844 24.605 25.448 23.741 24.92V20.168C24.773 20.768 25.949 21.248 27.269 21.608C28.613 21.968 29.813 22.148 30.869 22.148C31.973 22.148 32.789 22.052 33.317 21.86C33.845 21.644 34.109 21.284 34.109 20.78C34.109 20.324 33.857 19.964 33.353 19.7C32.849 19.436 31.913 19.088 30.545 18.656L29.429 18.296C27.389 17.624 25.889 16.844 24.929 15.956C23.993 15.044 23.525 13.796 23.525 12.212C23.525 10.292 24.293 8.816 25.829 7.784C27.365 6.728 29.417 6.2 31.985 6.2C33.425 6.2 34.817 6.344 36.161 6.632C37.505 6.92 38.585 7.292 39.401 7.748V12.572C38.633 12.044 37.661 11.612 36.485 11.276C35.333 10.94 34.229 10.772 33.173 10.772C31.061 10.772 30.005 11.252 30.005 12.212C30.005 12.692 30.269 13.064 30.797 13.328C31.349 13.592 32.249 13.904 33.497 14.264L34.865 14.696C37.049 15.368 38.549 16.196 39.365 17.18C40.181 18.14 40.589 19.376 40.589 20.888C40.589 22.592 39.845 23.96 38.357 24.992C36.893 26.024 34.697 26.54 31.769 26.54ZM46.0399 14.948C44.7919 14.948 43.8679 14.672 43.2679 14.12C42.6919 13.568 42.4039 12.728 42.4039 11.6V8.288H48.0559V9.908C48.0559 10.46 48.3559 10.736 48.9559 10.736H53.2039V14.948H46.0399ZM46.0399 24.596C44.7919 24.596 43.8679 24.32 43.2679 23.768C42.6919 23.192 42.4039 22.34 42.4039 21.212V17.9H48.0559V19.556C48.0559 20.108 48.3559 20.384 48.9559 20.384H53.2039V24.596H46.0399ZM56.6098 14.768L54.8098 11.636C57.7378 8.012 61.4698 6.2 66.0058 6.2C69.1978 6.2 71.6578 6.908 73.3858 8.324C75.1138 9.716 75.9778 11.648 75.9778 14.12V26H69.6418V14.624C69.6418 12.296 68.4298 11.132 66.0058 11.132C64.2298 11.132 62.7658 11.624 61.6138 12.608L62.9458 14.876V26H56.6098V14.768ZM84.6294 14.336C84.6294 13.256 84.3774 12.452 83.8734 11.924C83.3934 11.396 82.5534 11.132 81.3534 11.132C80.1774 11.132 78.9894 11.432 77.7894 12.032V7.28C78.3414 6.992 79.1094 6.74 80.0934 6.524C81.1014 6.308 82.0614 6.2 82.9734 6.2C85.5654 6.2 87.5454 6.884 88.9134 8.252C90.2814 9.596 90.9654 11.552 90.9654 14.12V26H84.6294V14.336ZM94.2059 14.516C94.2059 11.78 95.1299 9.716 96.9779 8.324C98.8259 6.908 101.31 6.2 104.43 6.2C105.846 6.2 107.166 6.392 108.39 6.776L109.578 5.3H116.418L112.89 9.44C114.066 10.616 114.654 12.308 114.654 14.516V26H108.318V14.624C108.318 12.296 107.022 11.132 104.43 11.132C101.838 11.132 100.542 12.296 100.542 14.624V16.928C100.854 16.592 101.262 16.328 101.766 16.136C102.27 15.92 102.81 15.812 103.386 15.812H106.05V20.384H103.134C102.366 20.384 101.742 20.612 101.262 21.068C100.782 21.5 100.542 22.112 100.542 22.904V26H94.2059V14.516ZM118.393 11.384C118.393 9.92 118.789 8.78 119.581 7.964C120.373 7.148 121.501 6.74 122.965 6.74H127.501V11.312H126.205C125.653 11.312 125.257 11.432 125.017 11.672C124.801 11.888 124.693 12.284 124.693 12.86V18.224L127.861 13.58H129.841L132.973 18.224V6.74H139.273V26H133.585L128.833 19.088L124.081 26H118.393V11.384ZM148.811 26.54C146.651 26.54 144.935 26.012 143.663 24.956C142.415 23.876 141.791 22.316 141.791 20.276C141.791 18.188 142.499 16.568 143.915 15.416C145.355 14.24 147.311 13.652 149.783 13.652C150.839 13.652 151.883 13.748 152.915 13.94C153.971 14.132 154.883 14.396 155.651 14.732V14.12C155.651 13.016 155.255 12.2 154.463 11.672C153.671 11.12 152.363 10.844 150.539 10.844C149.363 10.844 148.187 10.976 147.011 11.24C145.835 11.48 144.803 11.804 143.915 12.212V7.604C144.731 7.196 145.847 6.86 147.263 6.596C148.679 6.332 150.155 6.2 151.691 6.2C155.219 6.2 157.811 6.908 159.467 8.324C161.147 9.74 161.987 11.684 161.987 14.156V26H155.651V19.088C154.403 18.44 152.987 18.116 151.403 18.116C150.323 18.116 149.531 18.296 149.027 18.656C148.547 18.992 148.307 19.532 148.307 20.276C148.307 21.644 149.231 22.328 151.079 22.328C151.799 22.328 152.435 22.208 152.987 21.968V26.036C151.979 26.372 150.587 26.54 148.811 26.54Z" fill="#E2928D"/>
</svg>
