<svg width="213" height="30" viewBox="0 0 213 30" fill="none" xmlns="http://www.w3.org/2000/svg">
<path d="M5.544 23.36C4.52 23.36 3.584 23.272 2.736 23.096C1.888 22.92 1.176 22.656 0.6 22.304V19.04C1.608 19.728 2.944 20.072 4.608 20.072C5.824 20.072 6.768 19.792 7.44 19.232C8.128 18.656 8.472 17.776 8.472 16.592C8.472 15.408 8.128 14.528 7.44 13.952C6.768 13.376 5.824 13.088 4.608 13.088C2.976 13.088 1.672 13.432 0.696 14.12V10.856C1.256 10.52 1.96 10.264 2.808 10.088C3.672 9.896 4.584 9.8 5.544 9.8C7.832 9.8 9.616 10.392 10.896 11.576C12.176 12.76 12.816 14.432 12.816 16.592C12.816 18.736 12.176 20.4 10.896 21.584C9.616 22.768 7.832 23.36 5.544 23.36ZM7.28625 8.72C5.65425 8.72 4.83825 7.944 4.83825 6.392V4.256H8.60625V5.528C8.60625 5.736 8.65425 5.88 8.75025 5.96C8.83025 6.04 8.97425 6.08 9.18225 6.08H14.4143V8.72H7.28625ZM19.4783 23.36C18.4223 23.36 17.5183 23.144 16.7663 22.712C16.0143 22.264 15.4463 21.664 15.0623 20.912C14.6783 20.144 14.4863 19.28 14.4863 18.32V10.16H18.7103V18.056C18.7103 18.728 18.8943 19.232 19.2623 19.568C19.6303 19.904 20.1583 20.072 20.8463 20.072C21.4383 20.072 21.9423 19.952 22.3583 19.712C22.7743 19.456 23.1343 19.072 23.4383 18.56V10.16H27.6623V23H23.6543V21.68C23.1263 22.208 22.4943 22.624 21.7583 22.928C21.0223 23.216 20.2623 23.36 19.4783 23.36ZM29.8144 10.16H33.8224V11.504C34.3664 10.96 35.0144 10.544 35.7664 10.256C36.5344 9.952 37.3024 9.8 38.0704 9.8C39.7024 9.8 40.9264 10.232 41.7424 11.096C42.5744 11.96 42.9904 13.112 42.9904 14.552V23H38.7664V15.032C38.7664 13.736 38.1024 13.088 36.7744 13.088C36.1984 13.088 35.6704 13.216 35.1904 13.472C34.7264 13.712 34.3424 14.088 34.0384 14.6V23H29.8144V10.16ZM31.4865 6.08H39.1425V3.56H42.9585V8.72H31.4865V6.08ZM39.1185 0.359998H42.9345V3.84H39.1185V0.359998ZM59.7068 23.36C57.6108 23.36 55.9388 22.912 54.6908 22.016C53.4428 21.12 52.8188 19.848 52.8188 18.2C52.8188 17.256 53.0348 16.456 53.4668 15.8C53.9148 15.128 54.5068 14.632 55.2428 14.312C54.6348 13.896 54.1708 13.384 53.8508 12.776C53.5308 12.152 53.3708 11.472 53.3708 10.736C53.3708 9.2 53.9388 8.008 55.0748 7.16C56.2268 6.296 57.7708 5.864 59.7068 5.864C61.6428 5.864 63.1788 6.296 64.3148 7.16C65.4508 8.008 66.0188 9.2 66.0188 10.736C66.0188 11.488 65.8588 12.176 65.5388 12.8C65.2188 13.408 64.7628 13.912 64.1708 14.312C64.9068 14.616 65.4908 15.104 65.9228 15.776C66.3548 16.448 66.5708 17.256 66.5708 18.2C66.5708 19.848 65.9468 21.12 64.6988 22.016C63.4668 22.912 61.8028 23.36 59.7068 23.36ZM59.7068 13.28C60.3308 13.28 60.8428 13.088 61.2428 12.704C61.6588 12.32 61.8668 11.832 61.8668 11.24C61.8668 10.648 61.6588 10.16 61.2428 9.776C60.8428 9.376 60.3308 9.176 59.7068 9.176C59.0828 9.176 58.5708 9.368 58.1708 9.752C57.7708 10.136 57.5708 10.632 57.5708 11.24C57.5708 11.832 57.7708 12.32 58.1708 12.704C58.5708 13.088 59.0828 13.28 59.7068 13.28ZM59.7068 20.072C60.4428 20.072 61.0348 19.864 61.4828 19.448C61.9468 19.016 62.1788 18.456 62.1788 17.768C62.1788 17.096 61.9468 16.544 61.4828 16.112C61.0188 15.68 60.4268 15.464 59.7068 15.464C58.9868 15.464 58.3948 15.68 57.9308 16.112C57.4668 16.544 57.2348 17.096 57.2348 17.768C57.2348 18.456 57.4588 19.016 57.9068 19.448C58.3708 19.864 58.9708 20.072 59.7068 20.072ZM82.4801 23.36C80.3361 23.36 78.7041 22.824 77.5841 21.752C76.4801 20.664 75.9281 19.032 75.9281 16.856C75.9281 15.4 76.1521 14.144 76.6001 13.088C77.0481 12.016 77.6641 11.2 78.4481 10.64C79.2481 10.08 80.1361 9.8 81.1121 9.8C81.7041 9.8 82.2241 9.912 82.6721 10.136C83.1201 10.344 83.4801 10.624 83.7521 10.976C84.3281 10.192 85.3281 9.8 86.7521 9.8C88.0481 9.8 89.0721 10.184 89.8241 10.952C90.5761 11.704 90.9521 12.688 90.9521 13.904V23H86.7281V14.384C86.7281 13.952 86.6561 13.632 86.5121 13.424C86.3681 13.2 86.1281 13.088 85.7921 13.088C85.1841 13.088 84.8001 13.48 84.6401 14.264H82.9361C82.8241 13.48 82.4881 13.088 81.9281 13.088C81.4321 13.088 81.0321 13.408 80.7281 14.048C80.4241 14.688 80.2721 15.624 80.2721 16.856C80.2721 17.96 80.5121 18.776 80.9921 19.304C81.4721 19.816 82.2401 20.072 83.2961 20.072C83.8401 20.072 84.3761 19.976 84.9041 19.784V23.024C84.1841 23.248 83.3761 23.36 82.4801 23.36ZM87.1911 27.464C87.1911 27.16 87.1351 26.944 87.0231 26.816C86.9111 26.704 86.7031 26.648 86.3991 26.648H85.6551V24.008H88.4391C89.3511 24.008 89.9991 24.216 90.3831 24.632C90.7671 25.048 90.9591 25.712 90.9591 26.624V29.696H87.1911V27.464ZM97.3191 23.36C95.8791 23.36 94.7351 23.008 93.8871 22.304C93.0551 21.584 92.6391 20.544 92.6391 19.184C92.6391 17.792 93.1111 16.712 94.0551 15.944C95.0151 15.16 96.3191 14.768 97.9671 14.768C98.6711 14.768 99.3671 14.832 100.055 14.96C100.759 15.088 101.367 15.264 101.879 15.488V15.08C101.879 14.344 101.615 13.8 101.087 13.448C100.559 13.08 99.6871 12.896 98.4711 12.896C97.6871 12.896 96.9031 12.984 96.1191 13.16C95.3351 13.32 94.6471 13.536 94.0551 13.808V10.736C94.5991 10.464 95.3431 10.24 96.2871 10.064C97.2311 9.888 98.2151 9.8 99.2391 9.8C101.591 9.8 103.319 10.272 104.423 11.216C105.543 12.16 106.103 13.456 106.103 15.104V23H101.879V18.392C101.047 17.96 100.103 17.744 99.0471 17.744C98.3271 17.744 97.7991 17.864 97.4631 18.104C97.1431 18.328 96.9831 18.688 96.9831 19.184C96.9831 20.096 97.5991 20.552 98.8311 20.552C99.3111 20.552 99.7351 20.472 100.103 20.312V23.024C99.4311 23.248 98.5031 23.36 97.3191 23.36ZM111.86 15.224C111.86 14.504 111.692 13.968 111.356 13.616C111.036 13.264 110.476 13.088 109.676 13.088C108.892 13.088 108.1 13.288 107.3 13.688V10.52C107.668 10.328 108.18 10.16 108.836 10.016C109.508 9.872 110.148 9.8 110.756 9.8C112.484 9.8 113.804 10.256 114.716 11.168C115.628 12.064 116.084 13.368 116.084 15.08V23H111.86V15.224ZM118.244 15.344C118.244 13.52 118.86 12.144 120.092 11.216C121.324 10.272 122.98 9.8 125.06 9.8C127.156 9.8 128.812 10.272 130.028 11.216C131.26 12.144 131.876 13.52 131.876 15.344V23H127.652V15.416C127.652 13.864 126.788 13.088 125.06 13.088C123.332 13.088 122.468 13.864 122.468 15.416V16.952C122.676 16.728 122.948 16.552 123.284 16.424C123.62 16.28 123.98 16.208 124.364 16.208H126.14V19.256H124.196C123.684 19.256 123.268 19.408 122.948 19.712C122.628 20 122.468 20.408 122.468 20.936V23H118.244V15.344ZM142.225 23.36C141.441 23.36 140.681 23.216 139.945 22.928C139.209 22.624 138.577 22.208 138.049 21.68V23H134.041V10.16H138.265V18.56C138.569 19.072 138.929 19.456 139.345 19.712C139.761 19.952 140.265 20.072 140.857 20.072C141.545 20.072 142.073 19.904 142.441 19.568C142.809 19.232 142.993 18.728 142.993 18.056V10.16H147.217V18.32C147.217 19.28 147.025 20.144 146.641 20.912C146.257 21.664 145.689 22.264 144.937 22.712C144.185 23.144 143.281 23.36 142.225 23.36ZM157.045 20.576L159.709 18.152L160.861 17.12C161.805 16.288 162.525 15.624 163.021 15.128C163.533 14.632 163.949 14.128 164.269 13.616C164.605 13.104 164.773 12.6 164.773 12.104C164.773 10.616 163.933 9.872 162.253 9.872C161.437 9.872 160.629 10.016 159.829 10.304C159.045 10.592 158.317 10.992 157.645 11.504V7.448C158.365 6.952 159.205 6.568 160.165 6.296C161.125 6.008 162.149 5.864 163.237 5.864C164.485 5.864 165.565 6.096 166.477 6.56C167.389 7.024 168.085 7.664 168.565 8.48C169.045 9.296 169.285 10.216 169.285 11.24C169.285 12.472 168.997 13.552 168.421 14.48C167.861 15.392 166.949 16.424 165.685 17.576L163.549 19.52H169.813V23H157.045V20.576ZM176.198 23.36C175.238 23.36 174.286 23.256 173.342 23.048C172.398 22.84 171.622 22.552 171.014 22.184V18.464C171.734 18.928 172.542 19.296 173.438 19.568C174.35 19.824 175.206 19.952 176.006 19.952C177.126 19.952 177.958 19.736 178.502 19.304C179.046 18.872 179.318 18.28 179.318 17.528C179.318 16.808 179.038 16.248 178.478 15.848C177.934 15.448 177.166 15.248 176.174 15.248C175.614 15.248 175.022 15.304 174.398 15.416C173.79 15.512 173.262 15.656 172.814 15.848L171.182 14.912L171.854 6.224H182.606V9.704H175.958L175.742 12.344C176.478 12.152 177.262 12.056 178.094 12.056C179.838 12.056 181.198 12.52 182.174 13.448C183.166 14.36 183.662 15.68 183.662 17.408C183.662 19.28 183.03 20.744 181.766 21.8C180.502 22.84 178.646 23.36 176.198 23.36ZM191.874 23.36C190.514 23.36 189.298 23.056 188.226 22.448C187.17 21.824 186.346 20.936 185.754 19.784C185.162 18.616 184.866 17.248 184.866 15.68C184.866 13.632 185.226 11.872 185.946 10.4C186.666 8.912 187.666 7.784 188.946 7.016C190.226 6.248 191.706 5.864 193.386 5.864C194.522 5.864 195.538 6.008 196.434 6.296V9.896C195.73 9.512 194.826 9.32 193.722 9.32C192.522 9.32 191.546 9.648 190.794 10.304C190.042 10.944 189.578 11.896 189.402 13.16C189.802 12.744 190.354 12.416 191.058 12.176C191.762 11.936 192.506 11.816 193.29 11.816C194.362 11.816 195.306 12.04 196.122 12.488C196.954 12.92 197.594 13.552 198.042 14.384C198.506 15.216 198.738 16.216 198.738 17.384C198.738 18.52 198.474 19.544 197.946 20.456C197.434 21.352 196.658 22.064 195.618 22.592C194.594 23.104 193.346 23.36 191.874 23.36ZM191.946 20.072C192.65 20.072 193.242 19.832 193.722 19.352C194.202 18.872 194.442 18.288 194.442 17.6C194.442 16.896 194.202 16.304 193.722 15.824C193.242 15.344 192.65 15.104 191.946 15.104C191.258 15.104 190.674 15.352 190.194 15.848C189.714 16.328 189.474 16.912 189.474 17.6C189.474 18.288 189.714 18.872 190.194 19.352C190.674 19.832 191.258 20.072 191.946 20.072ZM199.936 20.576L202.6 18.152L203.752 17.12C204.696 16.288 205.416 15.624 205.912 15.128C206.424 14.632 206.84 14.128 207.16 13.616C207.496 13.104 207.664 12.6 207.664 12.104C207.664 10.616 206.824 9.872 205.144 9.872C204.328 9.872 203.52 10.016 202.72 10.304C201.936 10.592 201.208 10.992 200.536 11.504V7.448C201.256 6.952 202.096 6.568 203.056 6.296C204.016 6.008 205.04 5.864 206.128 5.864C207.376 5.864 208.456 6.096 209.368 6.56C210.28 7.024 210.976 7.664 211.456 8.48C211.936 9.296 212.176 10.216 212.176 11.24C212.176 12.472 211.888 13.552 211.312 14.48C210.752 15.392 209.84 16.424 208.576 17.576L206.44 19.52H212.704V23H199.936V20.576Z" fill="#4F766F"/>
</svg>
