<svg width="97" height="101" viewBox="0 0 97 101" fill="none" xmlns="http://www.w3.org/2000/svg">
<g clip-path="url(#clip0)">
<path d="M15.8008 81.3282C19.0046 78.2028 19.1608 72.9738 16.1495 69.6487C13.1381 66.3235 8.09978 66.1612 4.89575 69.2866C1.69192 72.4119 1.53568 77.641 4.54704 80.9661C4.65969 81.0905 4.77593 81.2111 4.89575 81.328C2.37798 82.7405 0.804829 85.4678 0.794678 88.4383V98.4746C0.794081 99.3868 1.50622 100.126 2.38515 100.127C2.38575 100.127 2.38634 100.127 2.38694 100.127H18.3096C19.1885 100.128 19.9012 99.3886 19.9018 98.4764C19.9018 98.4758 19.9018 98.4752 19.9018 98.4746V88.4383C19.8917 85.4678 18.3185 82.7405 15.8008 81.3282ZM10.3482 70.3814C12.9864 70.3814 15.125 72.6009 15.125 75.339C15.125 78.077 12.9864 80.2966 10.3482 80.2966C7.71007 80.2966 5.57146 78.077 5.57146 75.339C5.57425 72.6022 7.71126 70.3843 10.3482 70.3814ZM16.7173 96.822H3.9792V88.4383C3.98159 85.7682 6.06666 83.6042 8.63935 83.6017H12.0571C14.6298 83.6042 16.7149 85.7682 16.7173 88.4383V96.822Z" fill="#E2928D"/>
<path d="M41.277 81.3283C44.4808 78.203 44.6371 72.9739 41.6257 69.6488C38.6143 66.3237 33.576 66.1615 30.3722 69.2869C27.1684 72.4123 27.0121 77.6413 30.0235 80.9664C30.1361 81.0908 30.2524 81.2114 30.3722 81.3283C27.8542 82.7407 26.2811 85.468 26.2711 88.4384V98.4747C26.2705 99.3869 26.9827 100.127 27.8616 100.127C27.8622 100.127 27.8628 100.127 27.8634 100.127H43.786C44.6649 100.128 45.3777 99.3888 45.3783 98.4766C45.3783 98.476 45.3783 98.4753 45.3783 98.4747V88.4384C45.3679 85.468 43.7948 82.7407 41.277 81.3283ZM35.8245 70.3815C38.4627 70.3815 40.6013 72.6011 40.6013 75.3391C40.6013 78.0772 38.4627 80.2968 35.8245 80.2968C33.1863 80.2968 31.0477 78.0772 31.0477 75.3391C31.0505 72.6023 33.1875 70.3844 35.8245 70.3815ZM42.1935 96.8222H29.4554V88.4384C29.4578 85.7683 31.5429 83.6043 34.1156 83.6018H37.5334C40.1061 83.6043 42.1911 85.7683 42.1935 88.4384V96.8222Z" fill="#E2928D"/>
<path d="M66.7532 81.3283C69.957 78.203 70.1133 72.9739 67.1019 69.6488C64.0905 66.3237 59.0522 66.1615 55.8484 69.2869C52.6446 72.4123 52.4883 77.6413 55.4997 80.9664C55.6123 81.0908 55.7286 81.2114 55.8484 81.3283C53.3304 82.7407 51.7573 85.468 51.7473 88.4384V98.4747C51.7467 99.3869 52.4589 100.127 53.3378 100.127C53.3384 100.127 53.339 100.127 53.3396 100.127H69.2622C70.1411 100.128 70.8539 99.3888 70.8545 98.4766C70.8545 98.476 70.8545 98.4753 70.8545 98.4747V88.4384C70.8441 85.468 69.2709 82.7407 66.7532 81.3283ZM61.3007 70.3815C63.9389 70.3815 66.0775 72.6011 66.0775 75.3391C66.0775 78.0772 63.9389 80.2968 61.3007 80.2968C58.6625 80.2968 56.5239 78.0772 56.5239 75.3391C56.5267 72.6023 58.6637 70.3844 61.3007 70.3815ZM67.6697 96.8222H54.9316V88.4384C54.934 85.7683 57.0191 83.6043 59.5918 83.6018H63.0096C65.5823 83.6043 67.6673 85.7683 67.6697 88.4384V96.8222Z" fill="#E2928D"/>
<path d="M92.2293 81.3283C95.4332 78.203 95.5894 72.9739 92.578 69.6488C89.5667 66.3237 84.5283 66.1615 81.3245 69.2869C78.1207 72.4123 77.9644 77.6413 80.9758 80.9664C81.0885 81.0908 81.2047 81.2114 81.3245 81.3283C78.8066 82.7407 77.2334 85.468 77.2235 88.4384V98.4747C77.2229 99.3869 77.935 100.127 78.8139 100.127C78.8145 100.127 78.8151 100.127 78.8157 100.127H94.7383C95.6173 100.128 96.33 99.3888 96.3306 98.4766C96.3306 98.476 96.3306 98.4753 96.3306 98.4747V88.4384C96.3202 85.468 94.7471 82.7407 92.2293 81.3283ZM86.7768 70.3815C89.415 70.3815 91.5536 72.6011 91.5536 75.3391C91.5536 78.0772 89.415 80.2968 86.7768 80.2968C84.1386 80.2968 82 78.0772 82 75.3391C82.0028 72.6023 84.1398 70.3844 86.7768 70.3815ZM93.1459 96.8222H80.4078V88.4384C80.4102 85.7683 82.4952 83.6043 85.0679 83.6018H88.4857C91.0584 83.6043 93.1435 85.7683 93.1459 88.4384V96.8222Z" fill="#E2928D"/>
<path d="M58.1179 9.23731C58.1173 9.23731 58.1167 9.23731 58.1161 9.23731H35.8244C34.9455 9.23669 34.2328 9.97579 34.2322 10.888C34.2322 10.8886 34.2322 10.8892 34.2322 10.8898V40.6356C34.2316 41.5478 34.9437 42.2875 35.8226 42.2881C35.8232 42.2881 35.8238 42.2881 35.8244 42.2881H58.1161C58.995 42.2888 59.7078 41.5497 59.7084 40.6375C59.7084 40.6368 59.7084 40.6362 59.7084 40.6356V10.8898C59.709 9.97764 58.9968 9.23792 58.1179 9.23731ZM56.5238 38.9831H37.4167V12.5424H56.5238V38.9831Z" fill="#E2928D"/>
<path d="M85.0581 9.70481C84.9905 9.63127 84.9212 9.55938 84.8503 9.48915C82.2812 6.95869 78.253 6.95869 75.6839 9.48915L75.6309 9.54245L75.578 9.48915C73.0089 6.95869 68.9807 6.95869 66.4115 9.48915C63.9262 11.9494 63.8333 16.0349 66.2038 18.6143C66.2714 18.6878 66.3407 18.7597 66.4115 18.8299L74.5253 26.9522C75.1423 27.5698 76.1196 27.5698 76.7364 26.9522L84.8501 18.8299C87.3355 16.3697 87.4286 12.2842 85.0581 9.70481ZM82.7663 16.3191C82.7251 16.3643 82.6827 16.4083 82.6391 16.4511L75.6309 23.4664L68.6228 16.4511C67.4033 15.2584 67.3464 13.2656 68.4956 12C68.5368 11.9547 68.5792 11.9107 68.6228 11.868C69.9529 10.5598 72.0368 10.5598 73.367 11.868L74.5253 13.0283C75.1427 13.6447 76.1192 13.6447 76.7364 13.0283L77.8947 11.868C79.2245 10.5583 81.3092 10.5583 82.6389 11.868C83.8586 13.0605 83.9155 15.0535 82.7663 16.3191Z" fill="#E2928D"/>
<path d="M53.0205 24.7719L48.2437 18.1617C47.6657 17.4317 46.627 17.3264 45.9236 17.9262C45.8408 17.9969 45.7648 18.0758 45.6967 18.1617L40.9199 24.7719C40.4954 25.359 40.4954 26.1664 40.9199 26.7537L45.6967 33.3639C46.2231 34.0939 47.2199 34.2426 47.9233 33.6965C48.0449 33.6021 48.1527 33.4901 48.2437 33.3639L53.0205 26.7537C53.445 26.1666 53.445 25.359 53.0205 24.7719ZM46.9703 29.6182L44.1838 25.7628L46.9703 21.9074L49.7568 25.7628L46.9703 29.6182Z" fill="#E2928D"/>
<path d="M75.631 30.7205C68.596 30.7205 62.8929 36.6395 62.8929 43.9408C62.8929 51.2421 68.596 57.1611 75.631 57.1611C82.666 57.1611 88.3691 51.2421 88.3691 43.9408C88.3611 36.643 82.6626 30.7287 75.631 30.7205ZM75.631 53.856C70.3546 53.856 66.0774 49.4169 66.0774 43.9408C66.0774 38.4647 70.3546 34.0255 75.631 34.0255C80.9073 34.0255 85.1846 38.4647 85.1846 43.9408C85.1788 49.4144 80.905 53.8501 75.631 53.856Z" fill="#E2928D"/>
<path d="M77.2232 47.2458C77.2226 48.1583 76.5101 48.8978 75.631 48.8984C74.7518 48.8978 74.0393 48.1583 74.0387 47.2458H70.8542C70.8542 49.9839 72.9928 52.2035 75.631 52.2035C78.2691 52.2035 80.4078 49.9839 80.4078 47.2458H77.2232Z" fill="#E2928D"/>
<path d="M79.6117 38.9832C78.2927 38.9832 77.2233 40.093 77.2233 41.462C77.2233 42.8309 78.2927 43.9408 79.6117 43.9408C80.9307 43.9408 82.0001 42.8309 82.0001 41.462C81.9987 40.0937 80.9301 38.9846 79.6117 38.9832ZM79.6117 42.2882C79.172 42.2882 78.8155 41.9183 78.8155 41.462C78.8155 41.0057 79.172 40.6357 79.6117 40.6357C80.0513 40.6357 80.4078 41.0057 80.4078 41.462C80.407 41.9179 80.0509 42.2874 79.6117 42.2882Z" fill="#E2928D"/>
<path d="M71.6504 38.9832C70.3314 38.9832 69.262 40.093 69.262 41.462C69.262 42.8309 70.3314 43.9408 71.6504 43.9408C72.9687 43.9393 74.0374 42.8303 74.0387 41.462C74.0387 40.093 72.9693 38.9832 71.6504 38.9832ZM71.6504 42.2882C71.2111 42.2874 70.855 41.9179 70.8542 41.462C70.8542 41.0057 71.2107 40.6357 71.6504 40.6357C72.09 40.6357 72.4465 41.0057 72.4465 41.462C72.4465 41.9183 72.09 42.2882 71.6504 42.2882Z" fill="#E2928D"/>
<path d="M29.4572 34.0254C29.4566 34.0254 29.456 34.0254 29.4554 34.0254H10.3482C9.46932 34.0248 8.75658 34.7639 8.75598 35.6761C8.75598 35.6767 8.75598 35.6773 8.75598 35.6779V47.2457C8.75538 48.1579 9.46752 48.8976 10.3465 48.8983C10.347 48.8983 10.3476 48.8983 10.3482 48.8983H16.1405L25.2508 56.7784C25.9265 57.3628 26.9309 57.268 27.4939 56.5667C27.8024 56.1827 27.9266 55.6741 27.8321 55.1839L26.6208 48.8983H29.4554C30.3343 48.8989 31.0471 48.1598 31.0476 47.2476C31.0476 47.247 31.0476 47.2463 31.0476 47.2457V35.6779C31.0482 34.7657 30.3361 34.026 29.4572 34.0254ZM27.8631 45.5932H24.6786C23.7993 45.5932 23.0863 46.3331 23.0865 47.2459C23.0865 47.3548 23.0969 47.4634 23.1176 47.5702L23.8251 51.2416L17.7375 45.9757C17.4507 45.7285 17.0899 45.5932 16.7173 45.5932H11.9405V37.3305H27.8631V45.5932Z" fill="#E2928D"/>
<path d="M77.8655 0.974609H19.2595C9.06648 0.986384 0.806023 9.55957 0.794678 20.1385V44.6071C0.806023 55.1863 9.06648 63.7594 19.2595 63.7712H77.8653C88.0586 63.7594 96.3188 55.1863 96.3302 44.6073V20.1385C96.319 9.55957 88.0586 0.986384 77.8655 0.974609ZM93.1459 44.6073C93.1367 53.3621 86.3007 60.4568 77.8655 60.4661H19.2595C10.8243 60.4566 3.98836 53.3619 3.9792 44.6073V20.1385C3.98836 11.384 10.8243 4.2892 19.2595 4.27969H77.8653C86.3007 4.2892 93.1367 11.384 93.1457 20.1385V44.6073H93.1459Z" fill="#E2928D"/>
<path d="M21.6437 7.7258C21.0675 7.63161 20.4852 7.58431 19.9018 7.58472C15.1784 7.5936 10.9724 10.6888 9.40104 15.3118L9.39188 15.3294L9.38492 15.3572C9.18807 15.942 9.03741 16.5425 8.93431 17.1525C8.92316 17.2166 8.916 17.2804 8.90605 17.3444C7.9479 23.6511 12.0973 29.5699 18.174 30.5643C24.2507 31.5588 29.9536 27.2522 30.9117 20.9455C31.8698 14.6388 27.7204 8.72022 21.6437 7.7258ZM18.1766 27.2074C13.9864 26.3006 11.2725 22.0717 12.0812 17.7092C15.7177 18.5493 18.306 21.8959 18.3095 25.7627C18.3074 26.2475 18.2628 26.7311 18.1766 27.2074ZM21.3697 27.2611C21.4433 26.7649 21.4849 26.2644 21.4941 25.7627C21.4895 20.5435 18.1161 15.9751 13.2617 14.613C14.4252 12.7778 16.2442 11.4981 18.3175 11.0559C18.4166 16.4965 22.1419 21.1364 27.2804 22.2188C26.2673 24.8356 24.0393 26.736 21.3697 27.2611ZM21.5106 11.06C25.1358 11.8464 27.7606 15.1222 27.8448 18.9652C24.2234 18.1721 21.6015 14.9001 21.5106 11.06Z" fill="#E2928D"/>
</g>
<defs>
<clipPath id="clip0">
<rect width="95.5357" height="99.1525" fill="white" transform="translate(0.794678 0.974609)"/>
</clipPath>
</defs>
</svg>
