<svg width="171" height="30" viewBox="0 0 171 30" fill="none" xmlns="http://www.w3.org/2000/svg">
<path d="M8.316 29.54C6.78 29.54 5.376 29.408 4.104 29.144C2.832 28.88 1.764 28.484 0.9 27.956V23.06C2.412 24.092 4.416 24.608 6.912 24.608C8.736 24.608 10.152 24.188 11.16 23.348C12.192 22.484 12.708 21.164 12.708 19.388C12.708 17.612 12.192 16.292 11.16 15.428C10.152 14.564 8.736 14.132 6.912 14.132C4.464 14.132 2.508 14.648 1.044 15.68V10.784C1.884 10.28 2.94 9.896 4.212 9.632C5.508 9.344 6.876 9.2 8.316 9.2C11.748 9.2 14.424 10.088 16.344 11.864C18.264 13.64 19.224 16.148 19.224 19.388C19.224 22.604 18.264 25.1 16.344 26.876C14.424 28.652 11.748 29.54 8.316 29.54ZM10.9294 7.58C8.48137 7.58 7.25737 6.416 7.25737 4.088V0.883999H12.9094V2.792C12.9094 3.104 12.9814 3.32 13.1254 3.44C13.2454 3.56 13.4614 3.62 13.7734 3.62H21.6214V7.58H10.9294ZM29.2174 29.54C27.6334 29.54 26.2774 29.216 25.1494 28.568C24.0214 27.896 23.1694 26.996 22.5934 25.868C22.0174 24.716 21.7294 23.42 21.7294 21.98V9.74H28.0654V21.584C28.0654 22.592 28.3414 23.348 28.8934 23.852C29.4454 24.356 30.2374 24.608 31.2694 24.608C32.1574 24.608 32.9134 24.428 33.5374 24.068C34.1614 23.684 34.7014 23.108 35.1574 22.34V9.74H41.4934V29H35.4814V27.02C34.6894 27.812 33.7414 28.436 32.6374 28.892C31.5334 29.324 30.3934 29.54 29.2174 29.54ZM45.6216 17.768L43.8216 14.636C46.7496 11.012 50.4816 9.2 55.0176 9.2C58.2096 9.2 60.6696 9.908 62.3976 11.324C64.1256 12.716 64.9896 14.648 64.9896 17.12V29H58.6536V17.624C58.6536 15.296 57.4416 14.132 55.0176 14.132C53.2416 14.132 51.7776 14.624 50.6256 15.608L51.9576 17.876V29H45.6216V17.768ZM47.7571 3.62H64.9651V7.58H47.7571V3.62ZM67.8811 18.416H74.1811L75.6571 24.392C77.0011 24.392 78.1291 23.96 79.0411 23.096C79.9771 22.208 80.4451 20.996 80.4451 19.46C80.4451 17.732 79.9651 16.412 79.0051 15.5C78.0691 14.588 76.3651 14.132 73.8931 14.132C72.7891 14.132 71.6371 14.252 70.4371 14.492C69.2611 14.732 68.2891 15.044 67.5211 15.428V10.532C68.4811 10.124 69.6331 9.8 70.9771 9.56C72.3451 9.32 73.7251 9.2 75.1171 9.2C78.9331 9.2 81.8611 10.088 83.9011 11.864C85.9411 13.616 86.9611 16.112 86.9611 19.352C86.9611 21.32 86.4691 23.036 85.4851 24.5C84.5251 25.964 83.2171 27.08 81.5611 27.848C79.9291 28.616 78.1291 29 76.1611 29H70.5091L67.8811 18.416ZM90.3755 17.768L88.5755 14.636C91.5035 11.012 95.2355 9.2 99.7715 9.2C102.963 9.2 105.423 9.908 107.151 11.324C108.879 12.716 109.743 14.648 109.743 17.12V29H103.407V17.624C103.407 15.296 102.195 14.132 99.7715 14.132C97.9955 14.132 96.5315 14.624 95.3795 15.608L96.7115 17.876V29H90.3755V17.768ZM120.519 29.54C119.055 29.54 117.567 29.396 116.055 29.108C114.543 28.844 113.355 28.448 112.491 27.92V23.168C113.523 23.768 114.699 24.248 116.019 24.608C117.363 24.968 118.563 25.148 119.619 25.148C120.723 25.148 121.539 25.052 122.067 24.86C122.595 24.644 122.859 24.284 122.859 23.78C122.859 23.324 122.607 22.964 122.103 22.7C121.599 22.436 120.663 22.088 119.295 21.656L118.179 21.296C116.139 20.624 114.639 19.844 113.679 18.956C112.743 18.044 112.275 16.796 112.275 15.212C112.275 13.292 113.043 11.816 114.579 10.784C116.115 9.728 118.167 9.2 120.735 9.2C122.175 9.2 123.567 9.344 124.911 9.632C126.255 9.92 127.335 10.292 128.151 10.748V15.572C127.383 15.044 126.411 14.612 125.235 14.276C124.083 13.94 122.979 13.772 121.923 13.772C119.811 13.772 118.755 14.252 118.755 15.212C118.755 15.692 119.019 16.064 119.547 16.328C120.099 16.592 120.999 16.904 122.247 17.264L123.615 17.696C125.799 18.368 127.299 19.196 128.115 20.18C128.931 21.14 129.339 22.376 129.339 23.888C129.339 25.592 128.595 26.96 127.107 27.992C125.643 29.024 123.447 29.54 120.519 29.54ZM139.398 29.54C137.934 29.54 136.446 29.396 134.934 29.108C133.422 28.844 132.234 28.448 131.37 27.92V23.168C132.402 23.768 133.578 24.248 134.898 24.608C136.242 24.968 137.442 25.148 138.498 25.148C139.602 25.148 140.418 25.052 140.946 24.86C141.474 24.644 141.738 24.284 141.738 23.78C141.738 23.324 141.486 22.964 140.982 22.7C140.478 22.436 139.542 22.088 138.174 21.656L137.058 21.296C135.018 20.624 133.518 19.844 132.558 18.956C131.622 18.044 131.154 16.796 131.154 15.212C131.154 13.292 131.922 11.816 133.458 10.784C134.994 9.728 137.046 9.2 139.614 9.2C141.054 9.2 142.446 9.344 143.79 9.632C145.134 9.92 146.214 10.292 147.03 10.748V15.572C146.262 15.044 145.29 14.612 144.114 14.276C142.962 13.94 141.858 13.772 140.802 13.772C138.69 13.772 137.634 14.252 137.634 15.212C137.634 15.692 137.898 16.064 138.426 16.328C138.978 16.592 139.878 16.904 141.126 17.264L142.494 17.696C144.678 18.368 146.178 19.196 146.994 20.18C147.81 21.14 148.218 22.376 148.218 23.888C148.218 25.592 147.474 26.96 145.986 27.992C144.522 29.024 142.326 29.54 139.398 29.54ZM163.029 29.54C161.853 29.54 160.713 29.324 159.609 28.892C158.505 28.436 157.557 27.812 156.765 27.02V29H150.753V9.74H157.089V22.34C157.545 23.108 158.085 23.684 158.709 24.068C159.333 24.428 160.089 24.608 160.977 24.608C162.009 24.608 162.801 24.356 163.353 23.852C163.905 23.348 164.181 22.592 164.181 21.584V9.74H170.517V21.98C170.517 23.42 170.229 24.716 169.653 25.868C169.077 26.996 168.225 27.896 167.097 28.568C165.969 29.216 164.613 29.54 163.029 29.54Z" fill="#E2928D"/>
</svg>
