<svg width="90" height="90" viewBox="0 0 90 90" fill="none" xmlns="http://www.w3.org/2000/svg">
<g clip-path="url(#clip0)">
<path d="M45.3 90C70.1529 90 90.3 69.8528 90.3 45C90.3 20.1472 70.1529 0 45.3 0C20.4472 0 0.300049 20.1472 0.300049 45C0.300049 69.8528 20.4472 90 45.3 90Z" fill="#E0E0E0"/>
<path d="M45 0C20.16 0 0 20.16 0 45C0 69.84 20.16 90 45 90C69.84 90 90 69.84 90 45C90 20.16 69.84 0 45 0ZM63.27 65.13V68.25C63.27 69.96 61.89 71.37 60.15 71.37H57.03H39.84H29.04C25.59 71.37 22.83 68.58 22.83 65.16V25.98C22.83 22.53 25.62 19.77 29.04 19.77H39.87H57.06H60.18C61.89 19.77 63.3 21.15 63.3 22.89V26.01L63.27 65.13ZM69.51 25.98V65.13V68.25C69.51 69.96 68.13 71.37 66.39 71.37H65.55C66.09 70.44 66.39 69.39 66.39 68.25V65.13V25.98V22.86C66.39 21.72 66.09 20.67 65.55 19.74H66.39C68.1 19.74 69.51 21.12 69.51 22.86V25.98Z" fill="#4F7670"/>
<path d="M52.68 49.65C52.68 49.65 51.51 48.24 50.22 49.2C49.26 49.92 47.52 51.54 47.1 51.93C47.1 51.93 44.19 50.37 42.48 48.96C39.93 46.86 38.22 44.28 37.32 42.81L36.66 41.55C36.9 41.31 38.67 39.39 39.45 38.37C40.41 37.08 39 35.91 39 35.91C39 35.91 35.04 31.95 34.14 31.17C33.24 30.39 32.19 30.81 32.19 30.81C30.3 32.04 28.32 33.09 28.23 38.22C28.23 43.02 31.86 47.94 35.79 51.78C39.72 56.1 45.15 60.42 50.37 60.42C55.5 60.3 56.55 58.35 57.78 56.46C57.78 56.46 58.23 55.41 57.42 54.51C56.64 53.61 52.68 49.65 52.68 49.65Z" fill="#4F7670"/>
</g>
<defs>
<clipPath id="clip0">
<rect width="90" height="90" fill="white"/>
</clipPath>
</defs>
</svg>
