<svg width="670" height="360" viewBox="0 0 670 360" fill="none" xmlns="http://www.w3.org/2000/svg">
<path d="M37.0578 71.5323L37.7626 75.3093C37.7754 75.3936 37.5251 75.7339 37.0117 76.33C36.534 76.8775 36.3241 77.341 36.3819 77.7207C36.4397 78.1003 36.7327 78.4657 37.261 78.8168C37.7892 79.1679 38.2431 79.3146 38.6227 79.2568C38.7915 79.2311 38.9497 79.7033 39.0975 80.6734C39.2388 81.6014 39.2833 82.1773 39.2311 82.401C39.1724 82.5826 39.0812 82.8338 38.9575 83.1548L38.7911 83.7628L38.926 84.6486C40.0439 91.9879 40.8729 96.156 41.4131 97.1526L41.4228 97.2159C41.4356 97.3003 41.1918 97.6827 40.6912 98.3632C40.2328 99.0372 40.0389 99.6062 40.1096 100.07C40.1738 100.492 40.3875 100.762 40.7506 100.879C41.1138 100.996 41.4673 101.05 41.8111 101.041C42.1972 101.025 42.3934 101.039 42.3999 101.081C42.4769 101.587 42.8732 102.347 43.5886 103.36C44.3039 104.373 44.7863 104.99 45.0358 105.211C45.3274 105.426 45.4797 105.575 45.4925 105.659C45.5824 106.25 44.6124 107.39 42.5825 109.081C40.5525 110.771 39.0313 111.693 38.019 111.847C37.0489 111.995 35.6188 111.673 33.7288 110.882C31.881 110.085 30.8534 109.572 30.6462 109.345C30.3353 109.004 29.9224 107.427 29.4076 104.613L29.186 103.158L30.2189 102.289C30.8588 101.673 31.1338 101.07 31.0439 100.48C30.954 99.8894 30.5376 99.5643 29.7948 99.5048C29.0521 99.4453 28.6775 99.3945 28.6711 99.3523C28.6582 99.2679 28.6834 98.7246 28.7465 97.7224C28.8096 96.7201 28.7095 95.3543 28.4461 93.6249C28.1827 91.8955 27.8809 90.9056 27.5407 90.6553C27.3105 90.5609 27.09 90.5298 26.8791 90.5619C24.6435 90.9024 22.8972 91.6215 21.6402 92.7193C20.3767 93.7749 19.8124 94.7456 19.9474 95.6314C20.0244 96.1376 20.5059 96.3232 21.3917 96.1883L22.2582 95.9268C22.3911 95.9497 22.4737 96.0666 22.5058 96.2775L23.1627 102.716C23.4968 104.909 23.8739 106.535 24.294 107.593C24.7563 108.645 25.0292 109.445 25.1127 109.993C25.1962 110.542 25.2022 110.865 25.1307 110.962C25.1014 111.053 24.7278 111.433 24.0099 112.104C23.2855 112.732 22.3535 113.413 21.2138 114.148C20.1227 114.918 19.1553 115.368 18.3117 115.496C17.4681 115.625 15.9583 115.488 13.7823 115.085C11.6484 114.677 10.5429 114.219 10.4658 113.713L10.5098 113.577C11.7079 110.676 11.6228 104.733 10.2544 95.7482L8.97444 89.4693C8.19676 88.8972 7.71478 87.9996 7.52847 86.7764L7.48992 86.5233C7.4835 86.4811 7.75809 86.1587 8.31371 85.5562C8.9115 84.9473 9.18148 84.453 9.12367 84.0734C9.06585 83.6937 8.89112 83.3967 8.5995 83.1821C8.30787 82.9676 8.02267 82.7952 7.74389 82.6651C7.50729 82.5285 7.38256 82.418 7.36972 82.3336C7.44207 81.6752 7.3337 80.397 7.04461 78.4988C6.74909 76.5586 6.03261 74.1213 4.89518 71.1871C4.88875 71.1449 4.85482 71.0638 4.79336 70.9437L4.78373 70.8804C4.71306 70.4164 5.83392 69.2746 8.14631 67.4551C10.4587 65.6355 11.9523 64.6743 12.6272 64.5715C13.3021 64.4687 14.4162 64.558 15.9696 64.8393C17.5588 65.072 18.3759 65.336 18.4208 65.6312C18.4594 65.8843 18.4916 67.0878 18.5176 69.2418C18.5793 71.3472 18.6019 72.4875 18.5854 72.6626L18.2967 73.7424C18.3545 74.122 18.6668 74.6139 19.2336 75.2182C19.8004 75.8224 20.103 76.251 20.1416 76.5041C20.1801 76.7572 20.1554 77.0199 20.0674 77.2923C19.7026 78.2973 19.5601 79.2038 19.64 80.0116C19.762 80.813 19.8873 81.6355 20.0158 82.4792C20.1443 83.3228 20.2604 83.8014 20.364 83.9151C20.5034 83.9802 20.9527 83.9549 21.7119 83.8393C23.7788 83.5245 25.1551 82.9264 25.8409 82.0451C26.4359 81.1345 26.4282 78.6756 25.8179 74.6685C25.2012 70.6192 24.5938 67.9064 23.9957 66.5301L23.9861 66.4668C23.9154 66.0028 24.7717 64.9661 26.5551 63.3565C28.332 61.7048 29.6844 60.8083 30.6124 60.667C31.5825 60.5192 32.8929 60.6217 34.5435 60.9746C36.2298 61.2788 37.1084 61.6629 37.179 62.1269L37.1887 62.1901C36.5361 64.7064 36.4925 67.8205 37.0578 71.5323Z" fill="#4F766F"/>
<path d="M66.9343 73.9369C66.8388 73.8631 66.7611 73.5935 66.7013 73.128C66.636 72.6202 66.7313 71.8551 66.987 70.8329C66.9435 70.4943 66.6255 70.3631 66.0331 70.4393L65.0337 70.6968C64.3578 71.1278 63.7977 72.1247 63.3533 73.6874C63.5836 74.4752 63.7504 75.271 63.8538 76.0751C63.9517 76.8368 63.9085 77.3371 63.7241 77.5759C63.7936 77.782 63.8897 78.0278 64.0124 78.3131C64.1775 78.593 64.5888 78.9488 65.2466 79.3805C65.9043 79.8122 66.6987 79.9682 67.6297 79.8485C67.9259 79.8104 68.0598 79.5136 68.0314 78.958C68.003 78.4024 67.9638 77.7622 67.9136 77.0374C67.8635 76.3125 67.9121 75.8546 68.0596 75.6635C68.244 75.4247 68.3254 75.2207 68.3036 75.0514C68.2546 74.6706 67.7982 74.2991 66.9343 73.9369ZM79.643 87.4671L80.7873 92.3531C80.8199 92.607 80.7891 92.869 80.6948 93.1393C80.6428 93.4041 80.2534 94.0564 79.5267 95.0962C78.8423 96.1305 78.4611 96.8463 78.3831 97.2435C78.342 97.5929 77.6558 98.1113 76.3246 98.7986C75.0411 99.5228 74.1666 99.9148 73.7011 99.9747C73.278 100.029 73.0186 100.019 72.9231 99.9456C72.8699 99.8664 72.7342 99.6473 72.5159 99.2882C72.0523 98.3584 71.63 97.9179 71.2492 97.9669C70.7413 98.0322 70.2532 98.4176 69.7846 99.123C69.3584 99.8231 69.1241 100.176 69.0818 100.181C66.6273 100.497 64.3089 100.365 62.1265 99.7848C61.3267 99.5865 60.9132 99.3815 60.886 99.1699C60.8207 98.6621 59.4221 97.4868 56.6902 95.6441L55.2819 94.7281C54.9053 94.4754 54.4562 93.1566 53.9345 90.7716C53.4552 88.3812 53.1149 86.4032 52.9136 84.8374C52.7069 83.2293 52.622 82.4013 52.6589 82.3536C52.6958 82.3058 52.9518 82.1223 53.427 81.8032C53.8967 81.4417 54.2054 81.1654 54.3529 80.9744C54.5004 80.7833 54.5551 80.5397 54.517 80.2435L54.2922 79.498C53.337 78.7605 52.8567 78.3705 52.8513 78.3282C52.8023 77.9473 53.1155 76.7026 53.7908 74.5939C54.4608 72.443 55.0907 70.9854 55.6808 70.2213C60.3414 66.654 63.7719 64.7289 65.9725 64.4461C70.4637 63.9118 73.0197 63.8844 73.6406 64.3638C75.9831 66.8588 77.3149 69.3548 77.6358 71.8515C76.68 72.4476 76.0703 72.8916 75.8067 73.1836C75.5854 73.4702 75.5101 73.8885 75.5809 74.4386C75.6516 74.9888 75.9408 75.2312 76.4487 75.1659L77.8125 74.7325C77.9395 74.7162 78.0084 74.7504 78.0193 74.835C78.4599 78.2628 77.8136 81.099 76.0802 83.3436C75.6008 83.9645 74.2723 84.673 72.0947 85.4691C69.954 86.2175 68.5874 86.6297 67.9949 86.7059C67.8256 86.7276 67.3166 86.4489 66.4679 85.8698C65.6191 85.2906 65.1524 85.0064 65.0678 85.0173C65.0254 85.0227 64.841 85.2615 64.5146 85.7337C64.1881 86.2058 64.0439 86.59 64.082 86.8862C65.0202 88.8305 66.0146 90.2083 67.0653 91.0196C67.4474 91.3146 68.2309 91.386 69.4158 91.2337C72.9705 90.7768 75.4855 89.5931 76.9606 87.6828C77.3814 86.9404 77.6765 86.5584 77.8457 86.5366C78.0573 86.5094 78.3883 86.5744 78.8387 86.7316C79.326 86.841 79.5805 86.9804 79.6022 87.1497L79.643 87.4671Z" fill="#4F766F"/>
<path d="M98.8306 54.9581L99.8237 62.5954C100.377 65.2693 101.092 68.1932 101.967 71.3671C102.884 74.5323 103.359 76.1984 103.394 76.3655C103.42 76.4909 103.305 76.7762 103.048 77.2214C102.834 77.658 102.765 78.0643 102.843 78.4403C102.912 78.7745 103.541 79.6029 104.73 80.9253C105.961 82.2391 106.632 83.1675 106.745 83.7107C106.762 83.7943 106.562 83.9881 106.146 84.2921C104.963 85.1035 104.319 85.6726 104.212 85.9997C103.99 86.6121 103.179 87.2159 101.777 87.8111L101.064 88.1548C100.228 88.3279 98.7262 88.3338 96.5578 88.1728C94.3981 88.0536 93.2966 87.8895 93.2534 87.6806L92.8227 83.3908C92.814 83.349 92.8839 83.1603 93.0322 82.8246C93.3937 81.8347 93.5182 81.0682 93.4057 80.5251C93.3971 80.4833 93.1399 80.188 92.6341 79.6391C92.1283 79.0903 91.8451 78.6696 91.7846 78.3771C91.7154 78.0429 91.693 77.8297 91.7175 77.7375C91.7837 77.6366 91.971 77.4889 92.2793 77.2943C92.6207 77.0494 92.8246 76.8764 92.8908 76.7756C93.0866 76.0379 93.1586 75.5437 93.1067 75.293C93.0288 74.917 92.1982 74.5879 90.6148 74.3058C90.6363 73.7784 90.5216 72.909 90.2708 71.6973L89.4447 68.3391C89.4101 68.1719 89.6002 67.8276 90.0151 67.306C90.0482 67.2555 89.948 66.6663 89.7144 65.5382L87.0631 53.996C87.0285 53.8289 87.2395 53.4802 87.6962 52.95C88.1442 52.3779 88.3076 51.7994 88.1865 51.2145C88.1259 50.922 87.7607 50.7362 87.0907 50.6571C86.4625 50.5693 86.1398 50.4836 86.1225 50.4001C85.6207 47.9768 85.1054 46.0139 84.5764 44.5112C84.0474 43.0086 83.7656 42.1737 83.731 42.0066C83.6877 41.7977 83.7324 41.5924 83.8649 41.3907C84.0305 41.1385 84.9957 40.3287 86.7604 38.9611C88.5251 37.5936 89.8462 36.819 90.7236 36.6373C91.6428 36.447 92.7507 36.3265 94.0473 36.2759C95.3354 36.1835 96.0053 36.2626 96.0572 36.5133L95.5219 40.8724L95.6539 41.8254L97.9093 50.5085C98.0131 51.0099 98.0484 51.2858 98.0153 51.3362C97.0444 52.5394 96.6152 53.4125 96.7277 53.9557C96.8401 54.4988 97.2061 54.7934 97.8257 54.8394C98.487 54.8768 98.8219 54.9163 98.8306 54.9581Z" fill="#4F766F"/>
<path d="M118.511 44.7977L119.432 52.444C119.96 55.123 120.647 58.0535 121.492 61.2355C122.379 64.4092 122.839 66.0798 122.872 66.2472C122.897 66.3728 122.779 66.657 122.518 67.0998C122.3 67.5343 122.227 67.9399 122.302 68.3167C122.368 68.6516 122.989 69.4858 124.165 70.8194C125.383 72.1447 126.046 73.0795 126.153 73.6237C126.17 73.7074 125.969 73.8993 125.549 74.1994C124.359 74.9995 123.709 75.5626 123.6 75.8887C123.372 76.4989 122.555 77.095 121.147 77.677L120.431 78.014C119.594 78.1791 118.092 78.1709 115.925 77.9894C113.766 77.8498 112.667 77.6754 112.625 77.4661L112.235 73.1724C112.227 73.1305 112.298 72.9425 112.45 72.6082C112.821 71.6218 112.953 70.8565 112.845 70.3123C112.837 70.2704 112.583 69.9727 112.082 69.4191C111.581 68.8655 111.302 68.4422 111.244 68.1492C111.178 67.8143 111.158 67.6009 111.183 67.5089C111.251 67.4087 111.439 67.2627 111.749 67.0711C112.093 66.8294 112.298 66.6584 112.366 66.5581C112.568 65.8223 112.645 65.3288 112.596 65.0777C112.521 64.7009 111.694 64.364 110.113 64.0669C110.14 63.5398 110.033 62.6693 109.794 61.4554L108.999 58.0895C108.966 57.922 109.16 57.5795 109.579 57.0618C109.613 57.0117 109.518 56.4215 109.295 55.2913L106.753 43.7246C106.72 43.5572 106.934 43.2105 107.396 42.6845C107.849 42.1167 108.018 41.5398 107.903 40.9538C107.845 40.6608 107.481 40.4715 106.812 40.3861C106.185 40.2924 105.863 40.2036 105.847 40.1199C105.368 37.692 104.871 35.7243 104.356 34.2168C103.841 32.7092 103.567 31.8717 103.534 31.7043C103.493 31.495 103.54 31.2901 103.674 31.0896C103.842 30.839 104.815 30.0383 106.592 28.6875C108.37 27.3367 109.698 26.5746 110.577 26.4012C111.498 26.2196 112.607 26.1095 113.904 26.0712C115.193 25.9909 115.862 26.0764 115.912 26.3275L115.335 30.6814L115.458 31.6356L117.632 40.3396C117.731 40.8419 117.764 41.1181 117.73 41.1682C116.748 42.3622 116.31 43.2312 116.418 43.7754C116.525 44.3196 116.888 44.6176 117.507 44.6695C118.168 44.7131 118.503 44.7558 118.511 44.7977Z" fill="#4F766F"/>
<path d="M134.717 39.8384L134.1 38.9071C134.048 38.6129 134.834 37.414 136.459 35.3103C138.117 33.1573 139.181 31.9315 139.648 31.6331C142.724 30.4014 144.83 29.6862 145.965 29.4875C146.091 29.4655 146.699 29.5973 147.788 29.883C148.878 30.1686 149.535 30.3351 149.76 30.3824C149.977 30.3876 150.447 30.717 151.167 31.3704C151.881 31.9819 152.252 32.3717 152.282 32.5398C152.278 33.7533 152.192 34.3748 152.024 34.4043C149.398 34.9939 147.688 35.6182 146.894 36.2771C146.51 36.5608 145.809 37.5065 144.791 39.1141C143.808 40.6724 143.194 41.8629 142.948 42.6856C142.737 43.459 142.977 45.8209 143.669 49.7715C144.983 50.1044 145.699 50.6071 145.817 51.2796C145.701 53.3358 145.668 54.511 145.72 54.8052C145.764 55.0574 146.016 55.5112 146.478 56.1668C146.939 56.8224 147.367 57.2889 147.762 57.5663C148.452 57.7921 148.985 57.8719 149.364 57.8057C149.784 57.7321 150.046 57.6212 150.15 57.4731C150.982 56.2878 151.185 54.4764 150.758 52.0388C150.662 51.4924 150.521 50.9324 150.334 50.3588C149.452 49.7767 148.934 49.0445 148.78 48.1619C148.758 48.0358 148.906 47.7715 149.226 47.3691C149.538 46.9246 149.657 46.4922 149.583 46.072C149.51 45.6517 149.261 45.2188 148.836 44.7734C148.412 44.3279 148.009 44.0085 147.629 43.8152C147.241 43.5799 147.04 43.4202 147.025 43.3362C146.929 42.7898 147.404 41.6671 148.45 39.968C149.537 38.2616 150.354 37.3606 150.9 37.2649L151.783 37.1104C155.355 36.4849 157.182 36.4033 157.263 36.8656C157.251 38.0371 157.26 38.7069 157.289 38.875C157.319 39.0431 157.837 39.7754 158.844 41.0719C159.85 42.3684 160.468 43.668 160.696 44.9709C159.758 46.0448 159.325 46.7919 159.399 47.2121C159.465 47.5904 159.742 47.9318 160.228 48.2365C160.715 48.5412 160.962 48.7145 160.969 48.7565C161.035 49.1348 161.018 50.0258 160.917 51.4295C160.809 52.7912 160.818 53.8293 160.943 54.5438C161.068 55.2583 160.298 56.8007 158.634 59.1713C157.025 61.359 155.905 62.508 155.274 62.6184L155.211 62.6294C154.972 62.4981 154.621 62.4729 154.158 62.5539L153.476 62.7383C152.846 62.8487 152.457 63.3499 152.31 64.242C152.25 64.6423 152.147 64.9202 152.001 65.0757C151.904 65.2659 151.415 65.4383 150.532 65.5928L145.096 66.0898C143.994 65.9795 142.671 65.4748 141.128 64.5755C139.626 63.6689 138.85 63.0685 138.798 62.7743C138.791 62.7323 138.953 62.4223 139.285 61.8444C139.61 61.2245 139.75 60.7884 139.706 60.5363C139.632 60.116 139.289 59.7646 138.677 59.482L136.525 60.1835C136.315 60.2203 135.988 59.7144 135.545 58.6659C134.502 56.4227 133.621 53.2418 132.899 49.1231C132.796 48.5347 133.015 46.9371 133.555 44.3303C134.095 41.7235 134.486 40.2472 134.728 39.9015L134.717 39.8384Z" fill="#4F766F"/>
<path d="M149.6 130.041L150.618 131.327L150.638 131.388C149.519 133.764 148.959 135.02 148.958 135.155L149.056 135.459C149.291 136.191 149.73 136.722 150.375 137.052C150.482 137.107 150.614 137.379 150.771 137.866C150.914 138.313 150.997 139.407 151.019 141.148C151.068 142.835 150.991 143.711 150.788 143.776C150.097 143.998 149.349 144.53 148.544 145.371C147.739 146.213 147.226 146.848 147.006 147.278C146.62 148.029 146.12 148.705 145.506 149.306C142.176 150.376 139.741 150.89 138.204 150.846L137.394 150.838C136.64 150.721 135.417 150.263 133.725 149.462C132.074 148.648 131.158 147.957 130.975 147.388L132.354 145.197C132.224 144.791 131.837 144.422 131.192 144.092L131.01 144.15C130.685 144.255 130.199 144.209 129.554 144.013C129.201 142.916 128.407 140.864 127.171 137.855C125.935 134.846 125.144 133.151 124.797 132.769C124.771 132.688 124.697 132.667 124.575 132.706C124.291 132.798 123.97 133.192 123.611 133.89C123.513 134.28 123.855 136.321 124.638 140.014L125.023 141.839C124.362 143.127 124.122 144.056 124.305 144.625L125.049 145.058C125.586 145.333 125.894 145.593 125.972 145.837C126.076 146.162 125.866 146.902 125.341 148.056C125.258 148.217 125.334 148.731 125.567 149.597C125.828 150.409 126.063 151.208 126.27 151.993C126.505 152.724 126.541 153.116 126.379 153.168C125.688 153.39 124.674 154.209 123.337 155.625C122.04 157.027 120.64 157.97 119.137 158.453C118.649 158.61 116.982 158.72 114.134 158.784C111.299 158.889 109.797 158.677 109.627 158.149L106.487 150.889C106.461 150.808 106.179 150.697 105.641 150.556C105.143 150.402 104.855 150.204 104.777 149.96C104.686 149.676 104.85 148.794 105.271 147.314C105.036 146.583 104.152 145.993 102.618 145.545C102.621 145.275 102.46 144.632 102.133 143.617L100.582 139.208C100.181 138.799 99.1746 137.061 97.5615 133.994L96.8086 132.488C97.3555 131.819 97.4723 130.998 97.159 130.023L97.1198 129.901C97.0415 129.657 96.5577 129.477 95.6684 129.359C94.7791 129.242 94.3018 129.081 94.2366 128.878L94.328 126.025L90.0152 118.672C89.9499 118.469 90.2669 117.852 90.9661 116.82C91.6654 115.789 92.5743 114.713 93.6928 113.591C94.8389 112.416 95.8587 111.685 96.7524 111.398C96.9149 111.346 98.0022 111.243 100.014 111.089C102.013 110.895 103.039 110.879 103.091 111.041C103.664 112.963 104.179 114.635 104.636 116.057C105.08 117.438 105.355 118.224 105.461 118.414C104.397 119.428 103.97 120.26 104.179 120.91C104.271 121.194 104.984 121.39 106.318 121.499L106.945 121.567C109.494 129.218 111.126 133.668 111.841 134.917C111.822 135.416 111.709 135.901 111.501 136.371C113.294 140.276 114.332 142.318 114.613 142.496C115.446 142.856 115.964 143.003 116.167 142.938C116.37 142.873 116.499 142.786 116.554 142.679C116.418 139.048 116.069 136.359 115.508 134.612C115.946 134.023 116.139 133.58 116.089 133.283C115.401 129.47 114.933 127.178 114.685 126.406L114.607 126.163C113.762 125.627 113.242 125.055 113.047 124.446C113.662 122.455 113.945 121.177 113.897 120.609C113.877 119.988 113.744 119.157 113.499 118.116C112.802 115.248 112.507 113.774 112.616 113.694C114.88 110.143 116.642 108.165 117.902 107.76L118.084 107.701C119.058 107.523 120.279 107.489 121.749 107.599C123.259 107.696 124.806 107.49 126.39 106.981L126.573 106.922C126.913 106.723 127.742 108.675 129.06 112.778C129.387 113.793 129.536 114.328 129.509 114.382C129.037 115.564 128.906 116.48 129.115 117.13C129.311 117.739 130.031 117.889 131.276 117.578C133.285 121.459 134.661 124.557 135.406 126.872C134.859 127.541 134.65 128.079 134.781 128.485C134.899 128.851 135.292 129.239 135.963 129.651C136.907 132.171 137.594 133.541 138.023 133.762C139.018 134.07 139.597 134.197 139.76 134.145C139.963 134.08 140.085 133.973 140.128 133.825C140.17 133.677 140.062 132.995 139.805 131.777C139.549 130.56 139.448 129.898 139.503 129.791C139.793 129.16 139.926 128.736 139.901 128.52C138.636 123.19 138 120.302 137.991 119.857C138.758 118.759 139.096 118.067 139.005 117.783L138.985 117.722C138.816 117.194 138.233 116.776 137.238 116.469C136.642 112.941 136.27 110.461 136.124 109.029C135.213 107.17 134.62 105.815 134.346 104.962C134.072 104.109 133.976 103.602 134.059 103.441C135.758 101.057 137.206 99.4265 138.403 98.5489C140.518 97.6001 142.083 96.9626 143.098 96.6362L143.403 96.5383C145.293 96.4237 146.31 96.5898 146.454 97.0366L146.474 97.0976C145.895 101.989 145.703 104.74 145.899 105.349C144.561 106.765 143.997 107.798 144.206 108.448C144.284 108.692 144.485 108.829 144.809 108.859C145.16 108.836 145.43 108.839 145.618 108.868L146.123 108.975C146.258 108.976 146.312 109.004 146.284 109.057C146.499 111.677 146.735 113.528 146.993 114.611C147.292 115.68 147.496 116.802 147.605 117.977C147.7 119.111 147.758 120.057 147.777 120.812C147.795 121.568 147.99 122.94 148.36 124.927C148.717 126.874 149.13 128.579 149.6 130.041Z" fill="#4F766F"/>
<path d="M165.437 115.42L164.791 114.508C164.73 114.216 165.479 112.993 167.038 110.841C168.63 108.638 169.655 107.38 170.113 107.067C173.15 105.741 175.232 104.962 176.361 104.728C176.486 104.702 177.098 104.815 178.195 105.067C179.293 105.319 179.955 105.465 180.182 105.506C180.399 105.504 180.878 105.819 181.619 106.45C182.351 107.039 182.734 107.417 182.769 107.585C182.802 108.798 182.735 109.422 182.568 109.456C179.961 110.126 178.272 110.803 177.498 111.486C177.123 111.781 176.452 112.748 175.484 114.386C174.549 115.974 173.971 117.183 173.751 118.013C173.564 118.792 173.877 121.146 174.69 125.073C176.014 125.365 176.745 125.846 176.883 126.514C176.83 128.573 176.834 129.749 176.894 130.041C176.946 130.292 177.213 130.738 177.694 131.379C178.175 132.02 178.618 132.473 179.021 132.738C179.717 132.943 180.253 133.006 180.629 132.928C181.047 132.842 181.306 132.723 181.405 132.572C182.2 131.361 182.347 129.545 181.845 127.121C181.733 126.578 181.574 126.023 181.37 125.455C180.471 124.9 179.93 124.184 179.749 123.307C179.723 123.182 179.863 122.913 180.17 122.501C180.468 122.047 180.574 121.611 180.488 121.193C180.401 120.776 180.139 120.351 179.701 119.918C179.263 119.486 178.851 119.179 178.465 118.998C178.07 118.775 177.864 118.621 177.846 118.538C177.734 117.994 178.174 116.858 179.167 115.127C180.201 113.388 180.99 112.462 181.533 112.35L182.41 112.168C185.962 111.433 187.785 111.296 187.88 111.755C187.905 112.926 187.934 113.596 187.969 113.763C188.003 113.93 188.544 114.646 189.59 115.911C190.636 117.176 191.293 118.456 191.561 119.751C190.656 120.853 190.247 121.613 190.334 122.031C190.412 122.407 190.698 122.74 191.194 123.029C191.69 123.319 191.942 123.485 191.95 123.526C192.028 123.902 192.038 124.794 191.981 126.2C191.915 127.564 191.955 128.601 192.102 129.312C192.249 130.022 191.528 131.587 189.937 134.008C188.396 136.244 187.312 137.427 186.685 137.557L186.622 137.57C186.379 137.446 186.027 137.432 185.568 137.527L184.891 137.732C184.265 137.862 183.891 138.375 183.772 139.271C183.724 139.673 183.63 139.954 183.489 140.114C183.398 140.307 182.914 140.494 182.037 140.676L176.619 141.34C175.514 141.263 174.176 140.8 172.605 139.948C171.077 139.088 170.282 138.512 170.222 138.22C170.213 138.178 170.366 137.863 170.68 137.275C170.985 136.646 171.112 136.205 171.06 135.955C170.973 135.537 170.62 135.196 169.999 134.933L167.87 135.7C167.661 135.743 167.319 135.248 166.843 134.213C165.732 132.003 164.753 128.851 163.906 124.756C163.785 124.171 163.954 122.568 164.413 119.946C164.872 117.323 165.218 115.836 165.45 115.483L165.437 115.42Z" fill="#4F766F"/>
<path d="M202.643 98.5299L204.553 98.2555C204.925 98.1634 205.283 98.0091 205.625 97.7927C206.544 98.4885 207.045 99.0021 207.126 99.3334C207.081 100.927 207.304 102.718 207.795 104.706C208.104 105.421 208.527 105.712 209.066 105.579C210.931 100.503 212.299 97.857 213.169 97.642C215.271 97.2544 217.205 97.6113 218.972 98.7129C219.92 100.237 220.603 101.848 221.023 103.546C221.523 106.455 221.674 108.044 221.476 108.312C220.823 108.694 220.352 108.92 220.062 108.992L219.938 109.022C218.201 108.397 216.856 108.202 215.903 108.437C214.951 108.673 213.799 109.792 212.449 111.796C211.098 113.8 210.499 115.113 210.653 115.734C210.961 116.801 211.322 117.283 211.736 117.181C212.036 116.975 212.352 116.831 212.684 116.749C213.015 116.667 213.211 116.75 213.273 116.999C213.762 119.866 214.206 122.108 214.605 123.723C214.995 125.297 215.287 126.214 215.483 126.473C215.367 127.249 215.34 127.761 215.401 128.01C215.463 128.258 215.787 128.771 216.375 129.549C217.004 130.316 217.35 130.824 217.411 131.073C217.503 131.446 216.683 132.395 214.951 133.922C213.26 135.439 212.042 136.29 211.296 136.474C210.592 136.648 209.35 136.867 207.569 137.131C205.799 137.437 204.873 137.424 204.791 137.093C204.77 137.01 204.716 136.255 204.626 134.826C204.578 133.388 204.411 132.089 204.124 130.929L204.7 130.325C205.084 129.923 205.215 129.473 205.092 128.976C204.959 128.437 204.256 127.996 202.984 127.651C202.976 126.73 202.544 124.09 201.686 119.731L201.241 117.665L199.28 113.733C199.27 113.691 199.379 113.511 199.608 113.19C199.826 112.829 199.869 112.379 199.736 111.84C199.603 111.302 199.036 110.167 198.037 108.436C197.038 106.706 196.477 105.592 196.354 105.095C196.231 104.598 196.222 104.292 196.326 104.179C196.429 104.065 196.647 103.879 196.979 103.622C197.301 103.322 197.565 103.059 197.773 102.832C197.98 102.605 198.286 102.244 198.691 101.748C199.127 101.201 199.496 100.736 199.797 100.354C200.7 99.3836 201.649 98.7756 202.643 98.5299Z" fill="#4F766F"/>
<path d="M240.142 88.065L241.918 95.5589C242.745 98.1614 243.757 100.996 244.955 104.062C246.194 107.116 246.839 108.724 246.891 108.887C246.93 109.009 246.845 109.304 246.636 109.774C246.467 110.23 246.441 110.641 246.557 111.007C246.661 111.333 247.372 112.092 248.691 113.284C250.051 114.464 250.815 115.318 250.982 115.847C251.008 115.928 250.83 116.141 250.447 116.487C249.355 117.416 248.772 118.049 248.7 118.385C248.543 119.017 247.797 119.701 246.465 120.438L245.791 120.854C244.978 121.112 243.484 121.273 241.311 121.337C239.15 121.441 238.038 121.392 237.973 121.189L237.102 116.966C237.089 116.925 237.139 116.731 237.252 116.381C237.509 115.359 237.554 114.584 237.386 114.056C237.373 114.015 237.087 113.748 236.527 113.254C235.967 112.76 235.642 112.371 235.552 112.086C235.448 111.761 235.404 111.551 235.419 111.457C235.474 111.35 235.645 111.184 235.932 110.958C236.246 110.679 236.431 110.486 236.487 110.379C236.605 109.625 236.626 109.126 236.548 108.882C236.432 108.516 235.572 108.275 233.968 108.158C233.935 107.631 233.731 106.778 233.356 105.599L232.188 102.344C232.136 102.181 232.289 101.819 232.648 101.257C232.676 101.204 232.515 100.628 232.167 99.53L228.338 88.3233C228.286 88.1606 228.46 87.792 228.859 87.2174C229.246 86.6022 229.349 86.0099 229.168 85.4406C229.077 85.156 228.695 85.0089 228.02 84.9993C227.386 84.9769 227.057 84.925 227.031 84.8437C226.281 82.4852 225.566 80.5859 224.885 79.146C224.203 77.706 223.837 76.9047 223.785 76.742C223.721 76.5387 223.744 76.3299 223.855 76.1156C223.994 75.8477 224.87 74.9425 226.484 73.4C228.098 71.8575 229.332 70.9507 230.186 70.6794C231.081 70.3951 232.17 70.1609 233.455 69.9767C234.726 69.7517 235.401 69.7613 235.478 70.0053L235.396 74.3963L235.626 75.3306L238.766 83.7343C238.921 84.2223 238.984 84.4931 238.957 84.5467C238.115 85.8437 237.778 86.7565 237.946 87.2851C238.114 87.8137 238.509 88.069 239.13 88.0507C239.791 88.0196 240.129 88.0244 240.142 88.065Z" fill="#4F766F"/>
<path d="M267.294 92.2917L266.34 88.1107C266.18 87.3595 266.099 86.8751 266.097 86.6576L266.083 86.595C266.057 86.4698 265.939 86.4294 265.73 86.4737C265.522 86.5181 265.107 86.8243 264.486 87.3925C263.865 87.9607 263.489 88.346 263.358 88.5484C263.259 88.7002 263.22 89.2321 263.239 90.144C263.3 91.047 263.384 91.7489 263.49 92.2497C263.588 92.7088 263.671 92.9965 263.739 93.1128L263.766 93.238C263.801 93.405 263.631 93.8338 263.254 94.5246C262.91 95.1647 262.801 95.7769 262.925 96.3612C263.049 96.9454 263.288 97.3526 263.643 97.5826C263.997 97.8127 264.201 98.0529 264.254 98.3033C264.264 99.1735 264.358 100.026 264.536 100.861C264.704 101.654 264.966 102.165 265.32 102.395C266.305 102.927 266.965 103.158 267.299 103.087C267.633 103.016 267.997 102.371 268.393 101.153C268.779 99.893 268.937 99.0961 268.866 98.7623C268.795 98.4284 268.495 98.1433 267.965 97.907C267.467 97.6202 267.205 97.4141 267.179 97.2889L267.54 94.9875C267.704 94.7344 267.623 93.8358 267.294 92.2917ZM283.78 111.361C283.523 111.59 283.187 111.857 282.773 112.164C282.409 112.503 282.128 112.824 281.931 113.128C281.536 113.735 280.656 114.315 279.291 114.867L278.566 115.152L273.935 115.22C272.974 114.596 272.056 113.766 271.181 112.73L270.735 112.171C270.924 111.214 271.007 110.063 270.982 108.716L270.961 108.001C270.809 107.902 270.608 107.879 270.358 107.933C269.857 108.039 269.285 108.531 268.643 109.409C268.545 109.561 268.459 110.081 268.386 110.969C268.191 113.54 267.968 114.853 267.718 114.906C264.713 115.545 262.67 115.783 261.588 115.62C261.136 115.542 259.793 114.562 257.561 112.681L256.445 111.741L254.936 108.332L255.63 107.596C256.051 107.114 256.234 106.747 256.181 106.497C256.084 106.038 255.43 105.632 254.221 105.278C253.968 105.114 253.686 104.301 253.375 102.84L252.906 100.323L253.662 99.5734C254.125 99.0825 254.321 98.6701 254.25 98.3362C254.179 98.0023 253.891 97.6711 253.384 97.3424C252.87 96.9721 252.594 96.7034 252.559 96.5365C252.408 95.827 252.403 94.3668 252.544 92.1559C252.684 89.945 252.808 88.7845 252.916 88.6744C253.014 88.5226 253.688 87.7906 254.935 86.4785C256.216 85.1158 256.971 84.2573 257.201 83.903C258.154 82.4354 260.571 81.2891 264.453 80.464C264.661 80.4197 264.575 79.5002 264.193 77.7056C263.812 75.9111 263.39 74.5396 262.926 73.5912C263.374 73.2343 263.522 72.7012 263.371 71.9917C261.698 69.2504 260.835 67.7545 260.782 67.5041C260.72 67.212 261.591 66.2851 263.397 64.7236C265.235 63.1114 266.53 62.2255 267.281 62.0658C271.037 61.2673 272.955 61.0559 273.035 61.4315C273.107 64.644 273.281 66.8972 273.556 68.1909C272.32 69.1514 271.783 70.0073 271.942 70.7585C272.093 71.468 272.586 71.734 273.421 71.5566C273.713 71.4945 273.884 71.4798 273.935 71.5127C273.985 71.5456 274.05 71.7498 274.13 72.1254C274.21 72.501 274.318 73.8303 274.455 76.1131C274.591 78.396 274.743 79.9339 274.912 80.7269C275.466 80.8708 275.765 81.0471 275.81 81.2558C276.029 83.5209 276.437 86.0516 277.031 88.8478C277.617 91.6022 278.222 93.938 278.848 95.8552C277.57 97.4355 277.002 98.5595 277.144 99.2272C277.673 100.074 278.334 100.414 279.127 100.245C280.427 105.334 281.654 108.236 282.809 108.95C283.684 109.985 284.139 110.586 284.174 110.753C284.21 110.92 284.078 111.123 283.78 111.361Z" fill="#4F766F"/>
<path d="M220.542 182.704L222.846 189.328C222.846 189.52 222.126 190.48 220.686 192.208C219.246 193.936 218.526 195.232 218.526 196.096C218.526 196.864 219.15 197.776 220.398 198.832C221.742 199.888 222.414 200.704 222.414 201.28C220.206 212.032 219.102 219.808 219.102 224.608C219.102 225.664 220.254 227.344 222.558 229.648C222.75 229.84 222.846 230.224 222.846 230.8C222.846 231.28 222.366 232.576 221.406 234.688C220.542 236.704 220.11 237.904 220.11 238.288C220.11 240.88 221.262 243.52 223.566 246.208C225.87 248.896 228.03 250.24 230.046 250.24C231.294 250.24 232.35 249.76 233.214 248.8C234.174 247.744 235.038 246.736 235.806 245.776L237.102 244.336C237.198 244.24 237.246 244.096 237.246 243.904C237.246 243.712 236.67 242.752 235.518 241.024C234.462 239.2 233.934 237.952 233.934 237.28C233.934 236.608 234.414 234.784 235.374 231.808C236.43 228.736 236.958 226.528 236.958 225.184L234.654 222.88C234.558 222.784 234.51 222.496 234.51 222.016V221.728C234.51 220.096 234.174 218.944 233.502 218.272L233.358 217.84C233.55 216.88 234.702 215.152 236.814 212.656C237.294 212.176 237.534 210.208 237.534 206.752L236.814 192.784C236.814 191.92 236.046 190.912 234.51 189.76C233.07 188.608 232.35 187.888 232.35 187.6C232.35 185.104 233.022 182.272 234.366 179.104L235.086 177.52C235.086 176.368 233.79 175.072 231.198 173.632L229.902 172.912C228.27 172.912 226.302 174.112 223.998 176.512C221.694 178.816 220.542 180.88 220.542 182.704ZM261.438 234.256C261.438 236.176 262.398 238 264.318 239.728C264.318 241.84 263.598 244.528 262.158 247.792C260.718 250.96 259.182 253.648 257.55 255.856C256.014 258.064 255.006 259.168 254.526 259.168C252.318 259.168 249.726 259.792 246.75 261.04C243.87 262.288 241.518 263.536 239.694 264.784L236.958 266.656C235.998 267.52 231.582 268.384 223.71 269.248L219.822 269.68C215.79 269.68 211.614 268 207.294 264.64C202.974 261.184 199.662 257.872 197.358 254.704C195.15 251.536 194.046 249.76 194.046 249.376C194.046 248.992 194.238 248.176 194.622 246.928C195.102 245.68 195.342 244.48 195.342 243.328C195.342 241.024 193.854 239.872 190.878 239.872L189.726 240.016C188.958 240.016 187.998 234.88 186.846 224.608L186.27 219.568L187.998 199.984C187.998 199.696 188.574 198.736 189.726 197.104C190.878 195.472 191.454 194.464 191.454 194.08L191.166 181.696C191.166 177.952 191.31 175.888 191.598 175.504C192.846 173.776 196.83 170.416 203.55 165.424C210.27 160.432 215.31 157.936 218.67 157.936C219.342 156.304 220.062 155.488 220.83 155.488C225.63 155.2 231.198 155.056 237.534 155.056C243.966 155.056 247.71 155.584 248.766 156.64C248.862 156.736 249.966 157.744 252.078 159.664C254.19 161.584 255.966 163.264 257.406 164.704C258.846 166.144 260.238 167.92 261.582 170.032C263.022 172.144 263.742 173.92 263.742 175.36L260.862 178.96C261.918 181.168 263.406 185.824 265.326 192.928C267.342 199.936 268.35 204.976 268.35 208.048C267.966 223.024 267.246 230.512 266.19 230.512C263.022 231.76 261.438 233.008 261.438 234.256ZM304.04 218.128L303.608 232.672C303.608 235.84 303.752 237.952 304.04 239.008C304.04 239.296 303.32 240.016 301.88 241.168C300.44 242.32 299.72 243.184 299.72 243.76V244.624C299.72 245.968 300.104 246.64 300.872 246.64C302.6 245.968 303.704 245.632 304.184 245.632C304.76 245.632 305.048 245.728 305.048 245.92C305.528 252.832 306.344 256.864 307.496 258.016C310.664 260.128 312.248 262 312.248 263.632C312.248 264.016 311.384 264.976 309.656 266.512C307.928 268.048 306.536 269.104 305.48 269.68C303.368 270.736 299.672 271.648 294.392 272.416L291.656 272.704C291.368 272.704 290.168 272.128 288.056 270.976C285.944 269.92 284.456 269.392 283.592 269.392C282.824 269.392 281.576 268.48 279.848 266.656C278.216 264.736 277.4 263.344 277.4 262.48V262.192C278.552 260.08 279.128 252.736 279.128 240.16V237.856C279.128 237.664 279.608 237.184 280.568 236.416C281.624 235.648 282.152 234.832 282.152 233.968C282.152 233.104 281.864 232.48 281.288 232.096C280.712 231.712 280.136 231.376 279.56 231.088C278.984 230.8 278.696 230.56 278.696 230.368C279.368 227.68 279.704 223.936 279.704 219.136C279.704 214.24 279.608 211.696 279.416 211.504C279.224 211.312 278.648 211.216 277.688 211.216C276.824 211.216 276.152 211.312 275.672 211.504C275.192 211.6 274.808 211.744 274.52 211.936C274.328 212.032 274.184 212.128 274.088 212.224C273.992 212.32 273.752 212.368 273.368 212.368C272.984 212.368 272.312 211.936 271.352 211.072C270.488 210.208 270.056 209.632 270.056 209.344C270.056 208.192 270.776 205.456 272.216 201.136C273.656 196.816 274.52 194.512 274.808 194.224C275.096 193.936 275.624 193.792 276.392 193.792L279.272 193.936C279.848 193.936 280.232 193.84 280.424 193.648C280.616 193.456 280.712 192.16 280.712 189.76C280.712 184.576 280.136 179.872 278.984 175.648L278.264 173.488C278.264 172.528 280.376 170.656 284.6 167.872C288.92 165.088 291.992 163.696 293.816 163.696C300.632 163.888 304.328 164.272 304.904 164.848C305 164.944 305.048 165.232 305.048 165.712L302.312 185.728C302.408 189.664 302.744 191.92 303.32 192.496C303.992 192.88 305.048 193.072 306.488 193.072C307.928 193.072 310.184 192.064 313.256 190.048C313.64 190.048 314.264 190.72 315.128 192.064C316.088 193.408 316.568 194.464 316.568 195.232C316.568 196 315.704 198.112 313.976 201.568C312.248 204.928 310.328 207.616 308.216 209.632C308.12 209.728 307.448 209.776 306.2 209.776H302.6C299.72 209.776 298.28 210.064 298.28 210.64C298.28 212.368 298.664 213.568 299.432 214.24C300.296 214.912 301.208 215.248 302.168 215.248C303.128 215.248 303.656 215.344 303.752 215.536C303.944 215.632 304.04 216.496 304.04 218.128ZM351.149 218.128L350.717 232.672C350.717 235.84 350.861 237.952 351.149 239.008C351.149 239.296 350.429 240.016 348.989 241.168C347.549 242.32 346.829 243.184 346.829 243.76V244.624C346.829 245.968 347.213 246.64 347.981 246.64C349.709 245.968 350.813 245.632 351.293 245.632C351.869 245.632 352.157 245.728 352.157 245.92C352.637 252.832 353.453 256.864 354.605 258.016C357.773 260.128 359.357 262 359.357 263.632C359.357 264.016 358.493 264.976 356.765 266.512C355.037 268.048 353.645 269.104 352.589 269.68C350.477 270.736 346.781 271.648 341.501 272.416L338.765 272.704C338.477 272.704 337.277 272.128 335.165 270.976C333.053 269.92 331.565 269.392 330.701 269.392C329.933 269.392 328.685 268.48 326.957 266.656C325.325 264.736 324.509 263.344 324.509 262.48V262.192C325.661 260.08 326.237 252.736 326.237 240.16V237.856C326.237 237.664 326.717 237.184 327.677 236.416C328.733 235.648 329.261 234.832 329.261 233.968C329.261 233.104 328.973 232.48 328.397 232.096C327.821 231.712 327.245 231.376 326.669 231.088C326.093 230.8 325.805 230.56 325.805 230.368C326.477 227.68 326.813 223.936 326.813 219.136C326.813 214.24 326.717 211.696 326.525 211.504C326.333 211.312 325.757 211.216 324.797 211.216C323.933 211.216 323.261 211.312 322.781 211.504C322.301 211.6 321.917 211.744 321.629 211.936C321.437 212.032 321.293 212.128 321.197 212.224C321.101 212.32 320.861 212.368 320.477 212.368C320.093 212.368 319.421 211.936 318.461 211.072C317.597 210.208 317.165 209.632 317.165 209.344C317.165 208.192 317.885 205.456 319.325 201.136C320.765 196.816 321.629 194.512 321.917 194.224C322.205 193.936 322.733 193.792 323.501 193.792L326.381 193.936C326.957 193.936 327.341 193.84 327.533 193.648C327.725 193.456 327.821 192.16 327.821 189.76C327.821 184.576 327.245 179.872 326.093 175.648L325.373 173.488C325.373 172.528 327.485 170.656 331.709 167.872C336.029 165.088 339.101 163.696 340.925 163.696C347.741 163.888 351.437 164.272 352.013 164.848C352.109 164.944 352.157 165.232 352.157 165.712L349.421 185.728C349.517 189.664 349.853 191.92 350.429 192.496C351.101 192.88 352.157 193.072 353.597 193.072C355.037 193.072 357.293 192.064 360.365 190.048C360.749 190.048 361.373 190.72 362.237 192.064C363.197 193.408 363.677 194.464 363.677 195.232C363.677 196 362.813 198.112 361.085 201.568C359.357 204.928 357.437 207.616 355.325 209.632C355.229 209.728 354.557 209.776 353.309 209.776H349.709C346.829 209.776 345.389 210.064 345.389 210.64C345.389 212.368 345.773 213.568 346.541 214.24C347.405 214.912 348.317 215.248 349.277 215.248C350.237 215.248 350.765 215.344 350.861 215.536C351.053 215.632 351.149 216.496 351.149 218.128ZM394.904 210.928C394.712 210.736 394.616 210.112 394.616 209.056C394.616 207.904 395.048 206.224 395.912 204.016C395.912 203.248 395.24 202.864 393.896 202.864L391.592 203.152C389.96 203.92 388.424 205.984 386.984 209.344C387.272 211.168 387.416 212.992 387.416 214.816C387.416 216.544 387.176 217.648 386.696 218.128C386.792 218.608 386.936 219.184 387.128 219.856C387.416 220.528 388.232 221.44 389.576 222.592C390.92 223.744 392.648 224.32 394.76 224.32C395.432 224.32 395.816 223.696 395.912 222.448C396.008 221.2 396.104 219.76 396.2 218.128C396.296 216.496 396.536 215.488 396.92 215.104C397.4 214.624 397.64 214.192 397.64 213.808C397.64 212.944 396.728 211.984 394.904 210.928ZM419.384 244.768L420.536 256C420.536 256.576 420.392 257.152 420.104 257.728C419.912 258.304 418.856 259.648 416.936 261.76C415.112 263.872 414.056 265.36 413.768 266.224C413.576 266.992 411.896 267.952 408.728 269.104C405.656 270.352 403.592 270.976 402.536 270.976C401.576 270.976 401 270.88 400.808 270.688C400.712 270.496 400.472 269.968 400.088 269.104C399.32 266.896 398.504 265.792 397.64 265.792C396.488 265.792 395.288 266.512 394.04 267.952C392.888 269.392 392.264 270.112 392.168 270.112C386.6 270.112 381.464 269.152 376.76 267.232C375.032 266.56 374.168 265.984 374.168 265.504C374.168 264.352 371.384 261.328 365.816 256.432L362.936 253.984C362.168 253.312 361.544 250.24 361.064 244.768C360.68 239.296 360.488 234.784 360.488 231.232C360.488 227.584 360.536 225.712 360.632 225.616C360.728 225.52 361.352 225.184 362.504 224.608C363.656 223.936 364.424 223.408 364.808 223.024C365.192 222.64 365.384 222.112 365.384 221.44L365.096 219.712C363.176 217.792 362.216 216.784 362.216 216.688C362.216 215.824 363.272 213.136 365.384 208.624C367.496 204.016 369.32 200.944 370.856 199.408C382.28 192.784 390.488 189.472 395.48 189.472C405.656 189.568 411.368 190.24 412.616 191.488C417.128 197.728 419.384 203.68 419.384 209.344C417.08 210.4 415.592 211.216 414.92 211.792C414.344 212.368 414.056 213.28 414.056 214.528C414.056 215.776 414.632 216.4 415.784 216.4L418.952 215.824C419.24 215.824 419.384 215.92 419.384 216.112C419.384 223.888 417.128 230.032 412.616 234.544C411.368 235.792 408.2 236.992 403.112 238.144C398.12 239.2 394.952 239.728 393.608 239.728C393.224 239.728 392.168 238.96 390.44 237.424C388.712 235.888 387.752 235.12 387.56 235.12C387.464 235.12 386.984 235.6 386.12 236.56C385.256 237.52 384.824 238.336 384.824 239.008C386.36 243.616 388.184 246.976 390.296 249.088C391.064 249.856 392.792 250.24 395.48 250.24C403.544 250.24 409.496 248.32 413.336 244.48C414.488 242.944 415.256 242.176 415.64 242.176C416.12 242.176 416.84 242.416 417.8 242.896C418.856 243.28 419.384 243.664 419.384 244.048V244.768ZM441.635 185.296L445.955 185.728C446.819 185.728 447.683 185.584 448.547 185.296C450.179 187.312 450.995 188.704 450.995 189.472C450.035 192.928 449.555 196.96 449.555 201.568C449.843 203.296 450.611 204.16 451.859 204.16C458.675 194.08 463.091 189.04 465.107 189.04C469.907 189.328 473.939 191.152 477.203 194.512C478.451 198.352 479.075 202.24 479.075 206.176C478.595 212.8 478.067 216.352 477.491 216.832C475.859 217.312 474.707 217.552 474.035 217.552H473.747C470.291 215.248 467.459 214.096 465.251 214.096C463.043 214.096 459.923 215.92 455.891 219.568C451.859 223.216 449.843 225.76 449.843 227.2C449.939 229.696 450.467 230.944 451.427 230.944C452.195 230.656 452.963 230.512 453.731 230.512C454.499 230.512 454.883 230.8 454.883 231.376C454.403 237.904 454.163 243.04 454.163 246.784C454.163 250.432 454.307 252.592 454.595 253.264C453.923 254.896 453.587 256 453.587 256.576C453.587 257.152 454.019 258.448 454.883 260.464C455.843 262.48 456.323 263.776 456.323 264.352C456.323 265.216 454.019 266.848 449.411 269.248C444.899 271.648 441.779 272.848 440.051 272.848C438.419 272.848 435.587 272.656 431.555 272.272C427.523 271.984 425.507 271.456 425.507 270.688C425.507 270.496 425.795 268.816 426.371 265.648C427.043 262.48 427.379 259.552 427.379 256.864L428.963 255.856C430.019 255.184 430.547 254.272 430.547 253.12C430.547 251.872 429.251 250.528 426.659 249.088C427.139 247.072 427.619 241.072 428.099 231.088L428.243 226.336L426.083 216.688C426.083 216.592 426.419 216.256 427.091 215.68C427.763 215.008 428.099 214.048 428.099 212.8C428.099 211.552 427.475 208.768 426.227 204.448C424.979 200.128 424.355 197.392 424.355 196.24C424.355 195.088 424.499 194.416 424.787 194.224C425.075 194.032 425.651 193.744 426.515 193.36C427.379 192.88 428.099 192.448 428.675 192.064C429.251 191.68 430.115 191.056 431.267 190.192C432.515 189.232 433.571 188.416 434.435 187.744C436.931 186.112 439.331 185.296 441.635 185.296Z" fill="#E6C570"/>
<g clip-path="url(#clip0)">
<path d="M642.512 244.92V256.515C642.512 264.952 649.352 271.793 657.79 271.793H665.429C665.429 267.574 662.009 264.154 657.79 264.154V233.981C653.363 237.602 645.26 242.568 642.512 244.92Z" fill="#6B8F9C"/>
<path d="M512.654 252.695C502.108 252.695 493.557 261.246 493.557 271.792H535.57L542.535 261.91L535.57 252.695H512.654Z" fill="#325763"/>
<path d="M630.789 245.057V256.515C634.712 256.515 638.766 255.557 642.512 253.81C644.557 252.857 646.512 251.672 648.3 250.27C653.775 245.978 657.218 240.124 657.79 233.98C657.848 233.357 657.79 232.732 657.79 232.104V199.225L631.668 199.701C631.668 199.701 630.789 236.556 630.789 245.057Z" fill="#FAE8AC"/>
<path d="M535.57 239.328V271.793H573.764C573.764 267.152 570.002 263.39 565.361 263.39H562.428C565.3 261.392 567.939 259.086 570.3 256.515H615.509L625.394 236.034L615.509 219.421L573.336 212.569C552.566 209.43 535.57 221.472 535.57 239.328Z" fill="#6B8F9C"/>
<path d="M665.429 185.475L657.79 180.128H646.332L638.464 191.337L646.332 203.044C646.332 203.044 660.368 198.365 663.519 197.315C666.67 196.264 669.248 193.171 669.248 190.44C669.248 187.709 669.248 185.475 669.248 185.475H665.429Z" fill="#F6D76F"/>
<path d="M642.715 180.128C636.414 180.128 629.339 184.914 626.995 190.764L615.51 219.421V256.515C615.51 260.732 617.22 264.551 619.986 267.316C622.751 270.081 626.57 271.792 630.787 271.792H638.426C638.426 267.572 635.007 264.154 630.787 264.154V245.057C632.771 245.057 634.854 244.604 636.829 243.799C636.849 243.791 636.87 243.783 636.891 243.775C641.989 241.67 646.332 237.222 646.332 232.106V191.548L642.907 185.848L646.332 180.128H642.715Z" fill="#325763"/>
<path d="M640.985 185.838C640.985 188.874 643.345 191.349 646.332 191.548V180.128C643.345 180.326 640.985 182.801 640.985 185.838Z" fill="#05232E"/>
</g>
<defs>
<clipPath id="clip0">
<rect width="175.69" height="175.69" fill="white" transform="translate(493.557 138.115)"/>
</clipPath>
</defs>
</svg>
